<svg width="30" height="30" viewBox="0 0 30 30" fill="none" xmlns="http://www.w3.org/2000/svg">
<g clip-path="url(#clip0_95_5)">
<path d="M28.8451 7.85586L22.1509 1.16159C21.3988 0.409579 20.4051 0 19.3442 0C18.2833 0 17.2896 0.409579 16.5443 1.15488L15.4432 2.25604C14.6979 3.00134 14.2883 3.99508 14.2883 5.05595C14.2883 5.84825 14.5166 6.60027 14.9463 7.24485L5.88183 11.8778C4.00851 12.8312 2.69919 14.5636 2.2829 16.6249L0 27.9252L1.77932 29.7046L13.073 27.4284C15.1343 27.0121 16.8666 25.7028 17.8201 23.8295L22.4261 14.8187C23.1513 15.4163 24.0443 15.7184 24.9373 15.7184C25.9512 15.7184 26.9651 15.329 27.7372 14.5568L28.8384 13.4557C30.3894 11.9181 30.3894 9.40018 28.8451 7.85586ZM16.0609 22.9297C15.3827 24.2592 14.154 25.1925 12.6902 25.4879L3.83393 27.2739L9.29275 21.8151C9.62847 21.9696 9.99105 22.0501 10.3536 22.0501C11.0049 22.0501 11.6629 21.8017 12.1598 21.3048C13.1535 20.3111 13.1535 18.6862 12.1598 17.6925C11.1661 16.6987 9.54118 16.6987 8.54745 17.6925C7.82901 18.4109 7.63429 19.4517 7.94987 20.3514L2.43062 25.8706L4.20994 17.021C4.50537 15.5573 5.43868 14.3286 6.76813 13.6504L16.3295 8.76231L20.9355 13.3684L16.0609 22.9297ZM9.95076 19.0958C10.0649 18.9816 10.2059 18.9279 10.3536 18.9279C10.5013 18.9279 10.6491 18.9816 10.7565 19.0958C10.9781 19.3174 10.9781 19.6799 10.7565 19.9015C10.5349 20.1231 10.1723 20.1231 9.95076 19.9015C9.72919 19.6799 9.72919 19.3174 9.95076 19.0958ZM27.4418 12.0591L26.3406 13.1602C25.9714 13.5295 25.4678 13.7377 24.9373 13.7377C24.4069 13.7377 23.91 13.5295 23.534 13.1602L16.8398 6.46598C16.4705 6.09669 16.2623 5.59311 16.2623 5.06267C16.2623 4.53223 16.4705 4.03536 16.8398 3.65936L17.9409 2.55819C18.3102 2.1889 18.8138 1.98075 19.3442 1.98075C19.8747 1.98075 20.3715 2.1889 20.7475 2.55819L27.4418 9.25246C28.214 10.0313 28.214 11.2869 27.4418 12.0591Z" fill="white"/>
</g>
<defs>
<clipPath id="clip0_95_5">
<rect width="30" height="29.7046" fill="white"/>
</clipPath>
</defs>
</svg>
