<svg width="30" height="30" viewBox="0 0 30 30" fill="none" xmlns="http://www.w3.org/2000/svg">
<path d="M22.1485 18.9844C21.0789 18.9841 20.0518 19.4029 19.2874 20.151L11.836 15.9615C11.9891 15.3297 11.9891 14.6704 11.836 14.0385L19.285 9.84904C19.9809 10.526 20.895 10.9331 21.8637 10.9975C22.8324 11.062 23.7924 10.7795 24.5718 10.2008C25.3513 9.62202 25.8993 8.78473 26.1177 7.8388C26.3362 6.89288 26.2108 5.90008 25.7641 5.03815C25.3174 4.17622 24.5784 3.50143 23.6796 3.13459C22.7807 2.76775 21.7807 2.73281 20.8584 3.03603C19.9362 3.33924 19.1519 3.96082 18.6461 4.78947C18.1403 5.61812 17.946 6.59975 18.0979 7.55861L10.4731 11.8477C9.87419 11.3487 9.14549 11.0307 8.37236 10.931C7.59923 10.8313 6.81369 10.9539 6.10777 11.2846C5.40185 11.6153 4.80478 12.1403 4.38651 12.7981C3.96824 13.4559 3.74609 14.2193 3.74609 14.9988C3.74609 15.7784 3.96824 16.5418 4.38651 17.1996C4.80478 17.8574 5.40185 18.3824 6.10777 18.7131C6.81369 19.0438 7.59923 19.1664 8.37236 19.0667C9.14549 18.967 9.87419 18.649 10.4731 18.15L18.0979 22.4414C17.9661 23.2698 18.0914 24.1187 18.457 24.8736C18.8226 25.6285 19.4108 26.2532 20.1425 26.6635C20.8741 27.0737 21.7139 27.2498 22.5487 27.1679C23.3835 27.0861 24.1731 26.7503 24.8111 26.2058C25.4492 25.6612 25.9049 24.9342 26.1169 24.1226C26.3289 23.3111 26.287 22.454 25.9968 21.667C25.7066 20.88 25.1821 20.2009 24.494 19.7212C23.8059 19.2416 22.9873 18.9844 22.1485 18.9844Z" fill="white"/>
</svg>
