<svg width="30" height="30" viewBox="0 0 30 30" fill="none" xmlns="http://www.w3.org/2000/svg">
<path d="M10 28.75H7.5C6.67924 28.75 5.86651 28.5883 5.10823 28.2742C4.34994 27.9602 3.66095 27.4998 3.08058 26.9194C2.50022 26.3391 2.03984 25.6501 1.72575 24.8918C1.41166 24.1335 1.25 23.3208 1.25 22.5V7.5C1.25 5.8424 1.90848 4.25269 3.08058 3.08058C4.25269 1.90848 5.8424 1.25 7.5 1.25H17.5C18.3208 1.25 19.1335 1.41166 19.8918 1.72575C20.6501 2.03984 21.3391 2.50022 21.9194 3.08058C22.4998 3.66095 22.9602 4.34994 23.2742 5.10823C23.5883 5.86651 23.75 6.67924 23.75 7.5V10C23.75 10.3315 23.6183 10.6495 23.3839 10.8839C23.1495 11.1183 22.8315 11.25 22.5 11.25C22.1685 11.25 21.8505 11.1183 21.6161 10.8839C21.3817 10.6495 21.25 10.3315 21.25 10V7.5C21.25 6.50544 20.8549 5.55161 20.1517 4.84835C19.4484 4.14509 18.4946 3.75 17.5 3.75H7.5C6.50544 3.75 5.55161 4.14509 4.84835 4.84835C4.14509 5.55161 3.75 6.50544 3.75 7.5V22.5C3.75 23.4946 4.14509 24.4484 4.84835 25.1517C5.55161 25.8549 6.50544 26.25 7.5 26.25H10C10.3315 26.25 10.6495 26.3817 10.8839 26.6161C11.1183 26.8505 11.25 27.1685 11.25 27.5C11.25 27.8315 11.1183 28.1495 10.8839 28.3839C10.6495 28.6183 10.3315 28.75 10 28.75Z" fill="white"/>
<path d="M15 16.25H7.5C7.16848 16.25 6.85054 16.1183 6.61612 15.8839C6.3817 15.6495 6.25 15.3315 6.25 15C6.25 14.6685 6.3817 14.3505 6.61612 14.1161C6.85054 13.8817 7.16848 13.75 7.5 13.75H15C15.3315 13.75 15.6495 13.8817 15.8839 14.1161C16.1183 14.3505 16.25 14.6685 16.25 15C16.25 15.3315 16.1183 15.6495 15.8839 15.8839C15.6495 16.1183 15.3315 16.25 15 16.25ZM10 21.25H7.5C7.16848 21.25 6.85054 21.1183 6.61612 20.8839C6.3817 20.6495 6.25 20.3315 6.25 20C6.25 19.6685 6.3817 19.3505 6.61612 19.1161C6.85054 18.8817 7.16848 18.75 7.5 18.75H10C10.3315 18.75 10.6495 18.8817 10.8839 19.1161C11.1183 19.3505 11.25 19.6685 11.25 20C11.25 20.3315 11.1183 20.6495 10.8839 20.8839C10.6495 21.1183 10.3315 21.25 10 21.25ZM17.5 11.25H7.5C7.16848 11.25 6.85054 11.1183 6.61612 10.8839C6.3817 10.6495 6.25 10.3315 6.25 10C6.25 9.66848 6.3817 9.35054 6.61612 9.11612C6.85054 8.8817 7.16848 8.75 7.5 8.75H17.5C17.8315 8.75 18.1495 8.8817 18.3839 9.11612C18.6183 9.35054 18.75 9.66848 18.75 10C18.75 10.3315 18.6183 10.6495 18.3839 10.8839C18.1495 11.1183 17.8315 11.25 17.5 11.25ZM15 28.75C14.8212 28.7515 14.6442 28.7147 14.4809 28.6419C14.3176 28.5692 14.1718 28.4623 14.0533 28.3284C13.9348 28.1946 13.8464 28.0368 13.7941 27.8659C13.7418 27.6949 13.7268 27.5148 13.75 27.3375L14.1625 24.1375C14.2599 23.313 14.6346 22.5461 15.225 21.9625L22.3375 14.85C23.0528 14.1712 24.0014 13.7928 24.9875 13.7928C25.9736 13.7928 26.9222 14.1712 27.6375 14.85C28.3398 15.5531 28.7342 16.5062 28.7342 17.5C28.7342 18.4938 28.3398 19.4469 27.6375 20.15L20.525 27.2625C19.9414 27.8529 19.1745 28.2276 18.35 28.325L15.1625 28.75H15ZM25 16.25C24.8355 16.249 24.6724 16.2806 24.5201 16.3428C24.3678 16.405 24.2293 16.4966 24.1125 16.6125L17.0125 23.75C16.8145 23.9447 16.6869 24.1998 16.65 24.475L16.45 26.075L18.05 25.875C18.3162 25.8245 18.5605 25.6936 18.75 25.5L25.8625 18.3875C25.9797 18.2713 26.0727 18.133 26.1361 17.9807C26.1996 17.8284 26.2322 17.665 26.2322 17.5C26.2322 17.335 26.1996 17.1716 26.1361 17.0193C26.0727 16.867 25.9797 16.7287 25.8625 16.6125C25.6328 16.3846 25.3236 16.2546 25 16.25Z" fill="white"/>
</svg>
