<svg width="500" height="500" viewBox="0 0 500 500" fill="none" xmlns="http://www.w3.org/2000/svg">
<rect width="500" height="500" fill="#212121"/>
<g clip-path="url(#clip0_0_1)">
<rect width="1300" height="7112" transform="translate(-70 -2933)" fill="#FBF9F4"/>
<rect width="1300" height="7112" transform="translate(-70 -2933)" fill="#FBF9F4"/>
<rect x="-20" y="-60" width="520" height="560" rx="20" fill="white"/>
<path d="M98.5501 298.55L85.4201 298.83L78.7601 298.94C76.5401 298.99 74.3001 298.94 72.0701 299H71.6301V298.55L71.5801 287.36V286.86H72.0801L85.3201 286.93C89.7301 286.93 94.1501 287.04 98.5601 287.09H98.8301V287.36C98.8301 289.26 98.7501 291.15 98.7001 293.02L98.5501 298.55ZM98.5501 298.55L98.4101 292.9C98.4101 291.04 98.2901 289.19 98.2801 287.36L98.5501 287.63C94.1401 287.69 89.7201 287.79 85.3101 287.8L72.0701 287.86L72.5701 287.36L72.5101 298.55L72.0701 298.11C74.2501 298.11 76.4301 298.11 78.6101 298.16L85.1901 298.27L98.5501 298.55Z" fill="#EBEBEB"/>
<path d="M83.7798 312.66L70.6498 312.94L63.9898 313.05C61.7698 313.1 59.5298 313.05 57.2998 313.11H56.8498V312.66L56.7998 301.47V301H57.2998L70.5398 301.07C74.9498 301.07 79.3598 301.18 83.7798 301.23H84.0498V301.5C84.0498 303.4 83.9598 305.29 83.9198 307.16L83.7798 312.66ZM83.7798 312.66L83.6398 307C83.6398 305.13 83.5198 303.29 83.4998 301.46L83.7798 301.73C79.3598 301.79 74.9498 301.89 70.5398 301.9L57.2998 302L57.7998 301.5L57.7398 312.69L57.2998 312.25C59.4798 312.25 61.6498 312.25 63.8398 312.25L70.4198 312.36L83.7798 312.66Z" fill="#EBEBEB"/>
<path d="M299.85 178.58L286.72 178.86L280.06 178.97C277.84 178.97 275.6 178.97 273.37 179.02H272.92V178.57L272.87 167.38V166.87H273.38L286.62 166.93C291.03 166.93 295.44 167.04 299.86 167.09H300.13V167.36C300.13 169.26 300.04 171.14 300 173.01L299.85 178.58ZM299.85 178.58L299.7 172.92C299.7 171.06 299.59 169.22 299.57 167.39L299.85 167.66C295.43 167.71 291.02 167.82 286.61 167.82L273.37 167.89L273.87 167.39L273.81 178.58L273.37 178.13C275.55 178.13 277.72 178.13 279.91 178.19L286.49 178.3L299.85 178.58Z" fill="#EBEBEB"/>
<path d="M285.07 192.69L272 193L265.34 193.12C263.11 193.12 260.88 193.12 258.64 193.12H258.2V192.67L258.14 181.48V181H258.64L271.88 181.06C276.3 181.06 280.71 181.17 285.12 181.22H285.4V181.49C285.4 183.39 285.31 185.27 285.27 187.14L285.07 192.69ZM285.07 192.69L284.93 187.03C284.93 185.17 284.82 183.33 284.8 181.5L285.07 181.77C280.66 181.77 276.25 181.93 271.83 181.93L258.59 182L259.09 181.5V192.69L258.64 192.24C260.83 192.24 263 192.24 265.19 192.3L271.77 192.41L285.07 192.69Z" fill="#EBEBEB"/>
<path d="M270.36 178.58L257.24 178.86L250.58 178.97C248.35 178.97 246.11 178.97 243.88 179.02H243.44V178.57L243.39 167.38V166.87H243.89L257.13 166.93C261.54 166.93 265.96 167.04 270.37 167.09H270.65V167.36C270.65 169.26 270.57 171.14 270.52 173.01L270.36 178.58ZM270.36 178.58L270.22 172.92C270.17 171.06 270.11 169.22 270.09 167.39L270.36 167.66C265.95 167.71 261.53 167.82 257.12 167.82L243.88 167.89L244.38 167.39V178.58L243.93 178.13C246.11 178.13 248.29 178.13 250.48 178.19L257.06 178.3L270.36 178.58Z" fill="#EBEBEB"/>
<path d="M439.3 259.46L426.18 259.74L419.52 259.85C417.29 259.85 415.05 259.85 412.82 259.85H412.38V259.4L412.33 248.21V247.71H412.83L426.07 247.77C430.48 247.77 434.9 247.88 439.31 247.93H439.59V248.2C439.59 250.1 439.51 251.98 439.46 253.85L439.3 259.46ZM439.3 259.46L439.16 253.8C439.11 251.94 439.05 250.1 439.03 248.27L439.3 248.54C434.89 248.59 430.47 248.7 426.06 248.7L412.82 248.77L413.32 248.27L413.27 259.46L412.82 259.01C415 259.01 417.18 259.01 419.37 259.07L425.95 259.18L439.3 259.46Z" fill="#EBEBEB"/>
<path d="M451.54 274.44L438.41 274.72L431.75 274.83C429.52 274.88 427.29 274.83 425.06 274.88H424.61V274.43L424.56 263.24V262.74H425.07L438.31 262.8C442.72 262.8 447.13 262.92 451.55 262.97H451.82V263.24C451.82 265.14 451.73 267.03 451.69 268.89L451.54 274.44ZM451.54 274.44L451.39 268.79C451.39 266.92 451.28 265.08 451.26 263.25L451.54 263.52C447.12 263.57 442.71 263.68 438.3 263.69L425.06 263.75L425.55 263.25L425.5 274.44L425.06 273.99C427.24 273.99 429.41 273.99 431.6 274.05L438.18 274.16L451.54 274.44Z" fill="#EBEBEB"/>
<path d="M443.89 58.2699L430.76 58.5499L424.1 58.6599C421.88 58.7099 419.64 58.6599 417.41 58.7099H417V58.2599V47.0699V46.5699H417.51L430.75 46.6299C435.16 46.6299 439.57 46.7399 443.99 46.7999H444.26V47.0699C444.26 48.9699 444.17 50.8599 444.13 52.7199L443.89 58.2699ZM443.89 58.2699L443.75 52.6199C443.7 50.7499 443.63 48.9099 443.61 47.0799L443.89 47.3499C439.47 47.3499 435.06 47.5099 430.65 47.5199L417.41 47.5799L417.91 47.0799L417.85 58.2699L417.41 57.8199C419.59 57.8199 421.76 57.8199 423.95 57.8799L430.53 57.9899L443.89 58.2699Z" fill="#EBEBEB"/>
<path d="M458.66 72.38L445.53 72.66L438.87 72.77C436.65 72.77 434.41 72.77 432.18 72.77H431.73V72.32L431.68 61.13V60.63H432.18L445.42 60.69C449.83 60.69 454.25 60.8 458.66 60.86H458.93V61.13C458.93 63.03 458.85 64.92 458.8 66.78L458.66 72.38ZM458.66 72.38L458.52 66.73C458.52 64.86 458.4 63.02 458.39 61.19L458.66 61.46C454.25 61.46 449.83 61.62 445.42 61.63L432.18 61.69L432.68 61.19L432.62 72.38L432.18 71.93C434.36 71.93 436.54 71.93 438.72 71.99L445.3 72.1L458.66 72.38Z" fill="#EBEBEB"/>
<path d="M83.7798 58.27L70.6498 58.55L63.9998 58.66C61.7798 58.71 59.5398 58.66 57.3098 58.71H56.8598V58.26L56.7998 47.08V46.58H57.2998L70.5398 46.64C74.9498 46.64 79.3598 46.75 83.7798 46.81H84.0498V47.08C84.0498 48.98 83.9598 50.87 83.9198 52.73L83.7798 58.27ZM83.7798 58.27L83.6398 52.62C83.6398 50.75 83.5198 48.91 83.4998 47.08L83.7798 47.35C79.3598 47.35 74.9498 47.51 70.5398 47.52L57.2998 47.58L57.7998 47.08L57.7398 58.27L57.2998 57.82C59.4798 57.82 61.6498 57.82 63.8398 57.88L70.4198 57.99L83.7798 58.27Z" fill="#EBEBEB"/>
<path d="M447.2 382.08H350.03L346.11 304.77H451.12L447.2 382.08Z" fill="#EBEBEB"/>
<path d="M357.63 313.32H439.63L438.15 340.16H359.35L357.63 313.32ZM438.63 314.27H358.63L360.23 339.21H437.23L438.63 314.27Z" fill="#C7C7C7"/>
<path d="M359.29 346.81H436.24L435 371H360.81L359.29 346.81ZM435.29 347.76H360.3L361.7 370.08H434.13L435.29 347.76Z" fill="#C7C7C7"/>
<path d="M390.32 323.17H405.22L404.39 329.65H391.15L390.32 323.17ZM404.14 324.12H391.4L391.99 328.69H403.55L404.14 324.12Z" fill="#C7C7C7"/>
<path d="M390.32 355.68H405.22L404.39 362.16H391.15L390.32 355.68ZM404.14 356.63H391.4L391.99 361.21H403.55L404.14 356.63Z" fill="#C7C7C7"/>
<path d="M430.31 382.08L431.49 390.5L433.87 407.42H438.52V382.08H430.31Z" fill="#EBEBEB"/>
<path d="M430.31 382.08L431.49 390.5H438.52V382.08H430.31Z" fill="#C7C7C7"/>
<path d="M366.92 382.08L365.74 390.5L363.36 407.42H358.71V382.08H366.92Z" fill="#EBEBEB"/>
<path d="M366.92 382.08L365.74 390.5H358.71V382.08H366.92Z" fill="#C7C7C7"/>
<path d="M178.68 57.83H47.25V237.2H178.68V57.83Z" fill="#EBEBEB"/>
<path d="M109.71 65.01H54.8701V144.79H109.71V65.01Z" fill="white"/>
<path d="M171.05 65.01H116.21V144.79H171.05V65.01Z" fill="white"/>
<path d="M109.71 150.23H54.8701V230.01H109.71V150.23Z" fill="white"/>
<path d="M171.05 150.23H116.21V230.01H171.05V150.23Z" fill="white"/>
<path d="M124.41 57.83H178.68V314.44H147.26L169.19 183.86L124.41 57.83Z" fill="#DBDBDB"/>
<path d="M133.81 64.76L142.88 94.47L151.86 124.2L169.67 183.72L169.7 183.82L169.68 183.93L161.3 246.17L157.02 277.28L152.64 308.37L156.53 277.21L160.53 246.07L168.7 183.8L168.71 184.01L151.13 124.42L142.42 94.61L133.81 64.76Z" fill="#EBEBEB"/>
<path d="M175.44 70.0299L175.69 95.7599L175.83 121.5L175.94 172.97L175.83 224.44L175.69 250.18L175.44 275.91L175.2 250.18L175.06 224.44L174.95 172.97L175.06 121.5L175.2 95.7599L175.44 70.0299Z" fill="#EBEBEB"/>
<path d="M165.31 74.85L167.46 102.18L169.52 129.51L173.48 184.19V184.21V184.24L171.49 245.18L170.4 275.64L169.19 306.11L169.89 275.63L170.69 245.15L172.5 184.21V184.26L168.78 129.56L167 102.21L165.31 74.85Z" fill="#EBEBEB"/>
<path d="M158.24 302.16L161.24 272.58L164.38 243C166.55 223.3 168.64 203.59 170.89 183.9V184.05L161.08 138.05L156.25 115.05L151.5 92L156.67 115L161.77 138L171.83 184C169.71 203.7 167.42 223.39 165.22 243.08L161.78 272.61L158.24 302.16Z" fill="#EBEBEB"/>
<path d="M178.68 181.71H166.42V187.69H178.68V181.71Z" fill="#DBDBDB"/>
<path d="M101.64 57.83H47.3799V314.44H78.7899L56.8599 183.86L101.64 57.83Z" fill="#DBDBDB"/>
<path d="M92.2401 64.76L83.6301 94.61L74.9201 124.42L57.3401 184.01L57.3501 183.8L65.5201 246.07L69.5101 277.21L73.4101 308.37L69.0301 277.28L64.7501 246.17L56.3701 183.93L56.3501 183.82L56.3801 183.72L74.1901 124.2L83.1701 94.47L92.2401 64.76Z" fill="#EBEBEB"/>
<path d="M50.6001 70.0299L50.8501 95.7599L50.9901 121.5L51.1001 172.97L50.9901 224.44L50.8501 250.18L50.6001 275.91L50.3601 250.18L50.2201 224.44L50.1001 172.97L50.2201 121.5L50.3601 95.7599L50.6001 70.0299Z" fill="#EBEBEB"/>
<path d="M60.7401 74.85L59.0501 102.21L57.2701 129.56L53.5401 184.26L53.5501 184.21L55.3601 245.15L56.1601 275.63L56.8601 306.11L55.6601 275.64L54.5601 245.18L52.5701 184.24L52.5601 184.21L52.5701 184.19L56.5301 129.51L58.5901 102.18L60.7401 74.85Z" fill="#EBEBEB"/>
<path d="M67.8102 302.16L64.2702 272.64L60.8302 243.11C58.6302 223.42 56.3402 203.73 54.2202 184.03V183.87L64.2802 137.87L69.3802 114.87L74.5502 91.87L69.7902 115L65.0002 138L55.1902 184V183.85C57.4402 203.54 59.5202 223.25 61.7002 242.95L64.8202 272.51L67.8102 302.16Z" fill="#EBEBEB"/>
<path d="M47.3801 187.69H59.6401V181.71H47.3801V187.69Z" fill="#DBDBDB"/>
<path d="M355.69 139.14L304.32 114.92L335.41 48.98L373.56 66.96L380.86 85.77L355.69 139.14Z" fill="#EBEBEB"/>
<path d="M373.56 66.96L380.86 85.77L367.63 79.53L373.56 66.96Z" fill="#DBDBDB"/>
<path d="M334.389 64.1234L362.954 77.5895L363.751 75.898L335.186 62.4319L334.389 64.1234Z" fill="#DBDBDB"/>
<path d="M332.372 68.3891L360.937 81.8551L361.734 80.1636L333.169 66.6976L332.372 68.3891Z" fill="#DBDBDB"/>
<path d="M330.36 72.6681L358.925 86.1342L359.722 84.4427L331.157 70.9766L330.36 72.6681Z" fill="#DBDBDB"/>
<path d="M328.343 76.9413L370.195 96.6714L370.993 94.9799L329.14 75.2499L328.343 76.9413Z" fill="#DBDBDB"/>
<path d="M326.321 81.2161L368.174 100.946L368.971 99.2547L327.119 79.5247L326.321 81.2161Z" fill="#DBDBDB"/>
<path d="M324.31 85.4952L366.162 105.225L366.959 103.534L325.107 83.8037L324.31 85.4952Z" fill="#DBDBDB"/>
<path d="M322.292 89.7608L364.145 109.491L364.942 107.799L323.09 88.0694L322.292 89.7608Z" fill="#DBDBDB"/>
<path d="M320.28 94.0399L362.133 113.77L362.93 112.078L321.078 92.3484L320.28 94.0399Z" fill="#DBDBDB"/>
<path d="M318.259 98.3147L360.112 118.045L360.909 116.353L319.057 96.6232L318.259 98.3147Z" fill="#DBDBDB"/>
<path d="M316.251 102.585L358.104 122.315L358.901 120.623L317.049 100.893L316.251 102.585Z" fill="#DBDBDB"/>
<path d="M314.23 106.859L356.083 126.589L356.88 124.898L315.028 105.168L314.23 106.859Z" fill="#DBDBDB"/>
<path d="M312.223 111.129L354.075 130.859L354.873 129.168L313.02 109.438L312.223 111.129Z" fill="#DBDBDB"/>
<path d="M216.92 173.63L160.2 170.75L163.89 97.9399L206 100.07L219.91 114.69L216.92 173.63Z" fill="#EBEBEB"/>
<path d="M206 100.07L219.91 114.69L205.3 113.95L206 100.07Z" fill="#DBDBDB"/>
<path d="M168.694 112.318L200.233 113.915L200.328 112.048L168.788 110.45L168.694 112.318Z" fill="#DBDBDB"/>
<path d="M168.453 117.036L199.992 118.634L200.087 116.766L168.547 115.168L168.453 117.036Z" fill="#DBDBDB"/>
<path d="M168.211 121.754L199.75 123.352L199.845 121.484L168.306 119.886L168.211 121.754Z" fill="#DBDBDB"/>
<path d="M167.977 126.48L214.188 128.821L214.282 126.953L168.071 124.612L167.977 126.48Z" fill="#DBDBDB"/>
<path d="M167.736 131.198L213.946 133.539L214.041 131.671L167.83 129.331L167.736 131.198Z" fill="#DBDBDB"/>
<path d="M167.494 135.916L213.705 138.257L213.799 136.39L167.588 134.049L167.494 135.916Z" fill="#DBDBDB"/>
<path d="M167.253 140.635L213.463 142.975L213.558 141.108L167.347 138.767L167.253 140.635Z" fill="#DBDBDB"/>
<path d="M167.021 145.353L213.231 147.694L213.326 145.826L167.115 143.485L167.021 145.353Z" fill="#DBDBDB"/>
<path d="M166.779 150.071L212.99 152.412L213.085 150.544L166.874 148.203L166.779 150.071Z" fill="#DBDBDB"/>
<path d="M166.538 154.789L212.749 157.13L212.843 155.262L166.632 152.921L166.538 154.789Z" fill="#DBDBDB"/>
<path d="M166.297 159.507L212.507 161.848L212.602 159.981L166.391 157.64L166.297 159.507Z" fill="#DBDBDB"/>
<path d="M166.065 164.235L212.275 166.576L212.37 164.709L166.159 162.368L166.065 164.235Z" fill="#DBDBDB"/>
<path d="M249.79 444.65C339.829 444.65 412.82 436.502 412.82 426.45C412.82 416.398 339.829 408.25 249.79 408.25C159.751 408.25 86.7598 416.398 86.7598 426.45C86.7598 436.502 159.751 444.65 249.79 444.65Z" fill="#EBEBEB"/>
<path d="M351.23 464.24C403.807 464.24 446.43 458.093 446.43 450.51C446.43 442.927 403.807 436.78 351.23 436.78C298.652 436.78 256.03 442.927 256.03 450.51C256.03 458.093 298.652 464.24 351.23 464.24Z" fill="#EBEBEB"/>
<path d="M40.7998 407.7L93.0998 407.46L145.4 407.37L250 407.2L354.6 407.37L406.9 407.45L459.19 407.7L406.9 407.94L354.6 408.03L250 408.2L145.4 408.03L93.0998 407.94L40.7998 407.7Z" fill="#263238"/>
<path d="M77.9997 260.46C77.9997 260.46 57.3297 257.57 62.1597 232.62C62.1997 232.62 85.2897 237.81 77.9997 260.46Z" fill="#AC86FF"/>
<path opacity="0.1" d="M77.9997 260.46C77.9997 260.46 57.3297 257.57 62.1597 232.62C62.1997 232.62 85.2897 237.81 77.9997 260.46Z" fill="black"/>
<path d="M76.9996 255.26C76.5951 253.996 76.1244 252.754 75.5896 251.54C75.5896 251.38 75.5896 251.22 75.5896 251.07L75.4996 250.07C75.4996 249.32 75.3996 248.58 75.3596 247.83C75.2696 246.34 75.1696 244.83 75.1496 243.36C75.1445 243.347 75.1355 243.336 75.1239 243.328C75.1123 243.32 75.0986 243.316 75.0846 243.316C75.0707 243.316 75.057 243.32 75.0454 243.328C75.0338 243.336 75.0248 243.347 75.0196 243.36C75.0196 244.85 75.0196 246.36 75.0196 247.84C75.0196 248.58 75.0896 249.33 75.1396 250.07V250.57C73.985 248.073 72.5989 245.689 70.9996 243.45C70.2896 242.45 69.5396 241.51 68.7396 240.59C67.9396 239.67 67.0496 238.75 66.2096 237.81C66.2096 237.75 66.0696 237.81 66.1196 237.91C67.6093 239.549 68.9481 241.32 70.1196 243.2C70.7496 244.2 71.3396 245.13 71.8996 246.12L71.6996 246L70.9596 245.71L69.2796 245.07L65.9996 243.87C65.9396 243.87 65.8896 243.96 65.9996 243.99C67.0996 244.43 68.1796 244.89 69.2696 245.36L70.8696 246.05L71.6796 246.38C71.8523 246.462 72.0334 246.526 72.2196 246.57C72.6396 247.32 73.0496 248.07 73.4296 248.84C74.3919 250.771 75.2367 252.758 75.9596 254.79L76.1096 255.22C75.5666 254.907 75.0018 254.633 74.4196 254.4L72.2796 253.4C70.8296 252.73 69.3896 252.06 67.9996 251.27C67.9296 251.27 67.8696 251.34 67.9396 251.38C69.3596 252.16 70.7496 252.98 72.1696 253.76C72.8796 254.14 73.5996 254.52 74.3296 254.87C74.9323 255.228 75.5867 255.491 76.2696 255.65C76.9579 257.541 77.4113 259.509 77.6196 261.51C77.8496 264.33 77.8296 267.18 77.8896 270C77.8896 270.05 77.9596 270.05 77.9696 270C78.1696 267.44 78.2896 264.85 78.2996 262.27C78.2408 259.879 77.802 257.513 76.9996 255.26Z" fill="#263238"/>
<path d="M73.8096 240.58C73.6103 242.038 73.54 243.51 73.5996 244.98C73.5996 245.03 73.6596 244.98 73.6696 244.98C73.7496 243.52 73.7596 242.07 73.9296 240.62C73.9396 240.54 73.8196 240.5 73.8096 240.58Z" fill="#263238"/>
<path d="M67.8996 241.83C66.9747 241.48 66.0842 241.045 65.2396 240.53C65.1696 240.48 65.1096 240.6 65.1796 240.64C66.0079 241.198 66.9145 241.629 67.8696 241.92C67.8696 241.92 67.9996 241.85 67.8996 241.83Z" fill="#263238"/>
<path d="M78.6998 300.07C78.6998 297.79 78.6398 295.51 78.6098 293.22C78.5698 285.64 78.4898 278.057 78.3698 270.47C78.2631 264.47 78.1231 258.45 77.9498 252.41C77.9498 252.41 77.9498 252.35 77.8898 252.33C77.8898 250.69 77.8898 249.04 77.8898 247.4C77.8898 247.4 77.8398 247.34 77.7898 247.34C77.7398 247.34 77.6898 247.34 77.6898 247.4V252.34C77.6898 252.34 77.6898 252.34 77.6898 252.41C77.3898 263.13 77.1198 273.85 77.0498 284.56C77.0498 286.74 77.0498 288.92 77.0498 291.1C76.9765 298.087 76.9498 305.087 76.9698 312.1C76.9698 313.21 76.9698 314.32 76.9698 315.43C76.9698 321.83 77.0298 328.22 77.0398 334.61C77.0398 334.96 77.4198 335.13 77.8298 335.14C78.2398 335.15 78.8298 334.98 78.8298 334.58C78.8298 327.53 78.8298 320.48 78.8298 313.43C78.7098 309 78.7298 304.52 78.6998 300.07Z" fill="#263238"/>
<path d="M70.0598 293.13C70.0598 293.13 60.1198 285.77 50.6898 290.75C41.2598 295.73 39.7798 314.91 39.7798 314.91C39.7798 314.91 53.6298 316.91 62.3498 308.58C70.7598 300.58 70.0598 293.13 70.0598 293.13Z" fill="#AC86FF"/>
<path d="M72.77 293.59C70.9453 292.866 68.9692 292.609 67.02 292.84C66.6168 292.77 66.209 292.73 65.8 292.72L64.4 292.61L61.5 292.41C59.5 292.26 57.57 292.14 55.61 291.94C55.54 291.94 55.53 292.06 55.61 292.07C57.55 292.32 59.47 292.59 61.42 292.79C62.42 292.89 63.42 292.99 64.42 293.06L65.14 293.13L64.26 293.35C62.7028 293.809 61.1954 294.422 59.76 295.18C58.97 295.32 58.2 295.54 57.43 295.72C56.2 296.01 54.97 296.33 53.75 296.65C51.34 297.28 48.95 298 46.55 298.65C46.534 298.65 46.5188 298.656 46.5075 298.668C46.4963 298.679 46.49 298.694 46.49 298.71C46.49 298.726 46.4963 298.741 46.5075 298.752C46.5188 298.764 46.534 298.77 46.55 298.77C48.94 298.19 51.35 297.65 53.75 297.08C54.91 296.8 56.08 296.53 57.24 296.24L58.16 296.03C55.4875 297.682 53.1 299.755 51.09 302.17C49.1548 304.575 47.5164 307.203 46.21 310C46.21 310.07 46.28 310.14 46.32 310.06C47.9546 307.217 49.9513 304.599 52.26 302.27L52.13 302.66C51.95 303.25 51.76 303.83 51.58 304.42C51.21 305.59 50.84 306.76 50.49 307.93C50.49 308.01 50.58 308.04 50.61 307.93C51.03 306.8 51.43 305.66 51.83 304.52L52.42 302.84L52.72 301.97L52.81 301.7C53.921 300.625 55.1001 299.623 56.34 298.7C57.9795 297.507 59.7472 296.501 61.61 295.7C61.61 295.87 61.55 296.04 61.51 296.21C61.42 296.66 61.31 297.11 61.22 297.57C61.03 298.51 60.84 299.45 60.66 300.4C60.29 302.32 60.05 304.27 59.66 306.19C59.66 306.27 59.77 306.3 59.79 306.19C60.23 304.26 60.79 302.35 61.24 300.42C61.45 299.42 61.67 298.48 61.87 297.5C61.97 297.05 62.06 296.59 62.15 296.14C62.15 295.89 62.26 295.63 62.29 295.38C62.47 295.31 62.65 295.22 62.83 295.16C65.4401 294.027 68.3093 293.626 71.13 294C72.4486 294.242 73.6867 294.808 74.7337 295.645C75.7806 296.483 76.6039 297.567 77.13 298.8C77.22 299.01 77.56 298.88 77.51 298.66C77.1741 297.502 76.5698 296.439 75.7463 295.558C74.9227 294.677 73.903 294.003 72.77 293.59Z" fill="#263238"/>
<path d="M47.9398 305C46.6798 305.64 45.4498 306.37 44.1298 306.9C44.0398 306.9 44.1298 307.05 44.1298 307.01C45.4565 306.413 46.7485 305.742 47.9998 305C47.9998 305 47.9998 305 47.9398 305Z" fill="#263238"/>
<path d="M72.2997 279.61C72.2997 279.61 60.1497 280.38 54.4997 272.37C48.8497 264.36 50.1197 252.92 50.1197 252.92C50.1197 252.92 62.8797 254.47 67.9497 260.22C73.0197 265.97 72.2997 279.61 72.2997 279.61Z" fill="#AC86FF"/>
<path d="M77.9999 291.6C77.5799 290.29 77.0599 289.01 76.5699 287.74C76.0799 286.47 75.5699 285.3 75.0599 284.1C73.973 281.651 72.758 279.261 71.4199 276.94C70.5599 275.46 69.6399 274.03 68.6899 272.62C68.6899 272.4 68.6299 272.19 68.5999 271.97C68.5399 271.59 68.4899 271.22 68.4299 270.84C68.3099 270.07 68.1699 269.3 68.0499 268.54C67.7699 266.86 67.4199 265.19 67.1499 263.54C67.1499 263.524 67.1436 263.509 67.1323 263.498C67.1211 263.486 67.1058 263.48 67.0899 263.48C67.074 263.48 67.0587 263.486 67.0475 263.498C67.0362 263.509 67.0299 263.524 67.0299 263.54C67.2699 265.19 67.4399 266.86 67.6699 268.54C67.7799 269.36 67.8899 270.17 68.0199 270.99C68.0199 271.28 68.1099 271.57 68.1499 271.87C66.3019 269.156 64.2986 266.552 62.1499 264.07L61.2699 263.07C61.2699 262.98 61.1899 262.89 61.1499 262.79L60.8899 262.1C60.7099 261.61 60.5399 261.1 60.3599 260.65C60.0199 259.7 59.7199 258.74 59.4599 257.76C59.4599 257.68 59.3199 257.76 59.3399 257.76C59.5799 258.76 59.8399 259.76 60.1299 260.76C60.2799 261.24 60.4299 261.71 60.5999 262.17L60.6899 262.41C59.1299 260.72 57.5099 259.08 55.8799 257.47C55.8199 257.41 55.7299 257.47 55.7899 257.56C58.9303 260.847 61.809 264.374 64.3999 268.11C64.105 268.015 63.8044 267.938 63.4999 267.88C62.5599 267.7 61.6199 267.57 60.6799 267.45C58.6799 267.19 56.6799 266.94 54.7499 266.63C54.6699 266.63 54.6399 266.74 54.7499 266.76C56.6299 267.13 58.4999 267.55 60.3699 267.98C61.2499 268.18 62.1399 268.36 63.0199 268.53C63.7455 268.687 64.4603 268.891 65.1599 269.14L65.7499 269.98C66.6366 271.28 67.4966 272.613 68.3299 273.98L67.0899 273.73C66.1599 273.55 65.2099 273.38 64.2699 273.23C62.4199 272.92 60.5599 272.6 58.7299 272.18C58.6499 272.18 58.6199 272.29 58.7299 272.3C60.5899 272.74 62.4299 273.25 64.2699 273.74C65.1599 273.98 66.0599 274.2 66.9599 274.39L68.3099 274.68C68.4898 274.73 68.6739 274.763 68.8599 274.78C70.6299 277.66 72.2999 280.6 73.8599 283.61C74.5399 284.93 75.1899 286.27 75.8599 287.61C76.5299 288.95 77.0699 290.4 77.6699 291.8C77.6599 292 78.0999 291.9 77.9999 291.6Z" fill="#263238"/>
<path d="M65.57 263.67C65.33 262.51 65.09 261.36 64.83 260.21C64.83 260.13 64.7 260.21 64.71 260.21C64.9434 261.35 65.1634 262.49 65.37 263.63C65.5393 264.778 65.7696 265.916 66.06 267.04C65.9699 265.907 65.8062 264.782 65.57 263.67Z" fill="#263238"/>
<path d="M58.4796 263.34C57.9196 263.06 57.3196 262.83 56.7296 262.6L55.8096 262.24L55.3396 262.05C55.1614 261.997 54.9902 261.923 54.8296 261.83C54.7396 261.76 54.6796 261.92 54.7696 261.93C54.9525 261.978 55.1276 262.052 55.2896 262.15L55.7496 262.35L56.6396 262.75C57.2217 263.022 57.8194 263.259 58.4296 263.46C58.4996 263.48 58.5496 263.37 58.4796 263.34Z" fill="#263238"/>
<path d="M84.7397 270.06C84.7397 270.06 92.0897 256.32 103.28 254.19C114.47 252.06 121.28 263.58 121.28 263.58C121.28 263.58 113.12 274 102.85 275.81C92.5797 277.62 84.7397 270.06 84.7397 270.06Z" fill="#AC86FF"/>
<path d="M110.77 260.35C107.857 259.958 104.903 259.992 102 260.45L102.5 260.19L104.98 258.91C106.686 257.966 108.438 257.108 110.23 256.34C110.32 256.34 110.23 256.19 110.23 256.23C108.48 257.04 106.67 257.73 104.91 258.53C104.03 258.94 103.17 259.36 102.32 259.81C101.76 260.1 101.15 260.38 100.61 260.73C98.153 261.226 95.7655 262.018 93.4999 263.09L94.8999 261.57C95.8999 260.43 96.9699 259.23 98.1099 258.19C98.1699 258.13 98.1099 258.05 98.0199 258.1C96.8499 259.17 95.6099 260.1 94.4799 261.25C93.9299 261.79 93.3999 262.35 92.8899 262.92C92.6299 263.2 92.3799 263.5 92.1299 263.8C88.2906 265.86 84.9547 268.744 82.3613 272.245C79.768 275.746 77.9814 279.777 77.1299 284.05C77.1299 284.13 77.2299 284.17 77.2499 284.05C78.8305 278.817 81.6543 274.045 85.4799 270.14C89.597 265.938 94.7836 262.94 100.48 261.47C103.858 260.609 107.352 260.291 110.83 260.53C110.9 260.58 110.91 260.37 110.77 260.35Z" fill="#263238"/>
<path opacity="0.1" d="M121.31 263.58C121.31 263.58 113.15 274 102.88 275.82C95.0497 277.2 88.6097 273.12 85.9897 271.11L85.4297 270.18C85.4297 270.18 90.7197 265.72 100.74 263.18C110.76 260.64 121.31 263.58 121.31 263.58Z" fill="black"/>
<path d="M104.27 255.45C103.43 255.97 102.58 256.45 101.79 257.09C101.011 257.69 100.288 258.359 99.6299 259.09C99.5699 259.15 99.6299 259.23 99.7299 259.18C100.47 258.53 101.22 257.89 101.99 257.28C102.738 256.667 103.523 256.099 104.34 255.58C104.41 255.52 104.34 255.41 104.27 255.45Z" fill="#263238"/>
<path d="M110.41 257.78L109.16 258.27L107.92 258.79C107.83 258.79 107.92 258.97 107.92 258.93L109.17 258.43L110.41 257.9C110.52 257.87 110.49 257.75 110.41 257.78Z" fill="#263238"/>
<path d="M83.27 287.34C83.27 287.34 85.27 300.96 95.48 305.73C105.69 310.5 118.21 305.73 118.21 305.73C118.21 305.73 113.3 276.25 83.27 287.34Z" fill="#AC86FF"/>
<path d="M111.15 296.87C110.21 296.76 109.27 296.6 108.33 296.43L106.96 296.17L106.24 296.02L105.41 295.26C103.467 293.55 101.368 292.027 99.1398 290.71C97.9277 289.996 96.6756 289.351 95.3898 288.78H95.5798L98.9498 288.93C101.2 289.03 103.45 289.08 105.7 289.23C105.78 289.23 105.77 289.11 105.7 289.1C103.45 288.95 101.2 288.7 98.9498 288.51L95.6798 288.22L93.9998 288.08L93.5698 288.03C92.9798 287.82 92.3898 287.61 91.7998 287.42C88.9944 286.478 85.9828 286.333 83.0998 287C80.5198 287.66 77.9498 289.35 77.2798 292.06C77.2798 292.16 77.4098 292.22 77.4498 292.13C78.4498 289.86 80.9298 288.71 83.1998 288.24C84.73 287.945 86.2993 287.915 87.8398 288.15C87.9445 288.852 88.1187 289.542 88.3598 290.21C88.6398 291.21 88.9198 292.13 89.2098 293.08C89.7898 295 90.4298 296.89 90.9998 298.81C90.9998 298.89 91.1398 298.81 91.1198 298.81C90.6398 296.9 90.2398 294.97 89.7798 293.06C89.5598 292.12 89.3198 291.18 89.0898 290.24C88.9548 289.584 88.7812 288.936 88.5698 288.3C89.4677 288.459 90.3559 288.669 91.2298 288.93C92.8102 289.4 94.3599 289.968 95.8698 290.63C96.0198 291.63 96.2398 292.56 96.4598 293.52C96.7398 294.72 97.0498 295.92 97.4598 297.09C97.4598 297.106 97.4661 297.121 97.4774 297.132C97.4886 297.144 97.5039 297.15 97.5198 297.15C97.5357 297.15 97.551 297.144 97.5622 297.132C97.5735 297.121 97.5798 297.106 97.5798 297.09C97.5798 297.01 97.5798 296.94 97.5798 296.86C97.3498 295.75 97.1098 294.64 96.8698 293.52C96.6798 292.63 96.5098 291.72 96.3098 290.83C97.5798 291.4 98.8398 292.03 100.05 292.72C100.05 293 100.14 293.28 100.18 293.53C100.25 294 100.34 294.47 100.42 294.93C100.62 295.98 100.83 297.03 101.08 298.07C101.54 300.079 102.128 302.056 102.84 303.99C102.83 304.001 102.825 304.015 102.825 304.03C102.825 304.045 102.83 304.059 102.84 304.07L102.9 304.14C102.9 304.19 103.02 304.14 103 304.08C102.53 302.08 102 300.08 101.54 298.08C101.32 297.08 101.1 296.08 100.9 295.08C100.79 294.57 100.7 294.08 100.6 293.56C100.6 293.41 100.6 293.26 100.53 293.1C101.914 293.907 103.25 294.795 104.53 295.76C106.741 297.42 108.787 299.288 110.64 301.34C110.71 301.42 110.86 301.34 110.79 301.21C110.01 300.21 109.23 299.21 108.35 298.21C107.83 297.66 107.3 297.13 106.75 296.61H106.92C107.4 296.69 107.92 296.76 108.37 296.82C109.31 296.95 110.26 297.04 111.21 297.15C111.2 297 111.23 296.88 111.15 296.87Z" fill="#263238"/>
<path d="M104 301.49C104 301.37 104 301.25 104 301.13C104 301.01 103.89 300.84 103.87 300.69C103.66 299.78 103.48 298.87 103.31 297.94C103.31 297.88 103.2 297.94 103.2 297.94C103.267 299.161 103.531 300.363 103.98 301.5H104.06L104 301.49Z" fill="#263238"/>
<path d="M95.3799 301.27C95.3799 301.254 95.3736 301.239 95.3623 301.228C95.3511 301.216 95.3358 301.21 95.3199 301.21C95.0299 300.01 94.7499 298.8 94.5099 297.58C94.3699 296.94 94.2399 296.31 94.1199 295.67C94.0499 295.32 93.9899 294.98 93.9299 294.67C93.9042 294.367 93.8299 294.07 93.7099 293.79C93.7037 293.78 93.6949 293.771 93.6844 293.765C93.6739 293.759 93.662 293.756 93.6499 293.756C93.6378 293.756 93.626 293.759 93.6154 293.765C93.6049 293.771 93.5961 293.78 93.5899 293.79C93.5815 294.41 93.6692 295.027 93.8499 295.62C93.9699 296.29 94.0999 296.95 94.2499 297.62C94.5499 298.97 94.8799 300.3 95.2499 301.62C95.2499 301.69 95.3999 301.68 95.3899 301.62L95.3799 301.27Z" fill="#263238"/>
<path d="M110.22 292.94C108.35 292.69 106.48 292.42 104.6 292.19C104.53 292.19 104.49 292.3 104.6 292.31C106.47 292.59 108.35 292.82 110.22 293.07C110.27 293.08 110.3 293 110.22 292.94Z" fill="#263238"/>
<path d="M77.9999 255.39C77.9999 255.39 71.7299 227.88 101.28 216.75C101.3 216.75 109.49 253 77.9999 255.39Z" fill="#AC86FF"/>
<path d="M84.4 239.79L84.72 239.6L86.39 238.66L89.81 236.75C92.07 235.48 94.3 234.17 96.57 232.94C96.64 232.94 96.57 232.79 96.5 232.83C94.23 234.07 91.91 235.22 89.62 236.43L86.23 238.22L84.85 238.96C85.85 237.09 86.85 235.25 88.05 233.49C89.59 231.13 91.28 228.89 93.05 226.69C93.0685 226.67 93.0784 226.644 93.0775 226.617C93.0766 226.589 93.0649 226.564 93.045 226.545C93.0251 226.526 92.9986 226.517 92.9714 226.518C92.9443 226.518 92.9185 226.53 92.9 226.55C90.3086 229.071 88.0167 231.883 86.07 234.93C86.065 234.833 86.065 234.737 86.07 234.64C86.07 233.96 86.07 233.28 86.13 232.64C86.13 231.3 86.13 229.95 86.13 228.64C86.13 228.56 86.01 228.57 86.01 228.64C85.95 229.96 85.79 231.27 85.72 232.64C85.72 233.29 85.65 233.95 85.63 234.64C85.63 235 85.63 235.41 85.63 235.8C85.02 236.8 84.44 237.8 83.88 238.74C82.8959 240.535 82.0145 242.385 81.24 244.28C81.24 243.6 81.17 242.91 81.13 242.28C81.04 240.77 80.86 239.28 80.8 237.77C80.7948 237.757 80.7858 237.746 80.7742 237.738C80.7626 237.73 80.749 237.726 80.735 237.726C80.721 237.726 80.7073 237.73 80.6957 237.738C80.6841 237.746 80.6752 237.757 80.67 237.77C80.67 239.28 80.67 240.77 80.67 242.29C80.67 243.04 80.67 243.79 80.76 244.55C80.76 244.817 80.78 245.097 80.82 245.39C79.8738 247.843 79.1248 250.368 78.58 252.94C78.074 255.69 77.7069 258.463 77.48 261.25C77.7981 258.741 78.3233 256.263 79.05 253.84C79.42 252.55 79.8 251.25 80.22 249.97C81.45 249.39 82.63 248.67 83.81 247.97L87.52 245.97C89.99 244.62 92.45 243.25 94.99 242.05C95.07 242.05 94.99 241.91 94.93 241.94C92.35 243.11 89.75 244.22 87.22 245.49C85.97 246.12 84.73 246.8 83.5 247.49C82.5 248.07 81.42 248.65 80.44 249.31C80.72 248.46 81.02 247.6 81.35 246.76C82.2458 244.386 83.2638 242.059 84.4 239.79Z" fill="#263238"/>
<path d="M81.9098 233.5C81.9098 233.42 81.7798 233.42 81.7798 233.5C81.8898 235.07 81.9398 236.64 82.1098 238.21C82.1098 238.229 82.1172 238.246 82.1303 238.259C82.1434 238.273 82.1612 238.28 82.1798 238.28C82.1984 238.28 82.2162 238.273 82.2293 238.259C82.2424 238.246 82.2498 238.229 82.2498 238.21C82.1898 236.63 81.9998 235.07 81.9098 233.5Z" fill="#263238"/>
<path d="M96.08 238.75C94.22 239.5 92.36 240.2 90.52 240.98C90.52 240.98 90.52 241.08 90.52 241.06C92.39 240.36 94.23 239.6 96.09 238.87C96.19 238.84 96.15 238.72 96.08 238.75Z" fill="#263238"/>
<path d="M98.8798 226.07C97.0733 226.901 95.32 227.843 93.6298 228.89C93.5398 228.94 93.6298 229.07 93.7098 229.02C95.4298 228.02 97.1698 227.02 98.9498 226.18C98.9998 226.14 98.9998 226 98.8798 226.07Z" fill="#263238"/>
<path d="M98.4398 314.86H55.8198V359.78H98.4398V314.86Z" fill="#37474F"/>
<path d="M55.0696 330.76H52.8896V407.7H55.0696V330.76Z" fill="#263238"/>
<path d="M101.14 330.76H98.96V407.7H101.14V330.76Z" fill="#263238"/>
<path d="M79.2596 330.76H77.0796V407.7H79.2596V330.76Z" fill="#263238"/>
<path d="M100.05 356.9H53.98V363.12H100.05V356.9Z" fill="#263238"/>
<path d="M83.1304 376.09C83.1387 387.434 87.4311 398.356 95.1484 406.671C102.866 414.985 113.438 420.078 124.75 420.93V421.05H379.43C393.006 421.027 406.052 415.781 415.865 406.401C425.679 397.02 431.507 384.224 432.142 370.663C432.777 357.102 428.17 343.817 419.277 333.56C410.383 323.304 397.884 316.862 384.37 315.57C383.757 294.885 375.955 275.06 362.306 259.505C348.656 243.951 330.013 233.639 309.583 230.343C289.153 227.047 268.213 230.974 250.365 241.448C232.517 251.921 218.877 268.287 211.79 287.73C204.463 284.033 196.367 282.118 188.16 282.14C174.708 282.137 161.76 287.264 151.957 296.477C142.154 305.689 136.233 318.293 135.4 331.72C132.985 331.316 130.54 331.116 128.09 331.12C116.168 331.131 104.737 335.872 96.307 344.304C87.8774 352.735 83.1383 364.167 83.1304 376.09Z" fill="#AC86FF"/>
<g opacity="0.1">
<path d="M83.1304 376.09C83.1387 387.434 87.4311 398.356 95.1484 406.671C102.866 414.985 113.438 420.078 124.75 420.93V421.05H379.43C393.006 421.027 406.052 415.781 415.865 406.401C425.679 397.02 431.507 384.224 432.142 370.663C432.777 357.102 428.17 343.817 419.277 333.56C410.383 323.304 397.884 316.862 384.37 315.57C383.757 294.885 375.955 275.06 362.306 259.505C348.656 243.951 330.013 233.639 309.583 230.343C289.153 227.047 268.213 230.974 250.365 241.448C232.517 251.921 218.877 268.287 211.79 287.73C204.463 284.033 196.367 282.118 188.16 282.14C174.708 282.137 161.76 287.264 151.957 296.477C142.154 305.689 136.233 318.293 135.4 331.72C132.985 331.316 130.54 331.116 128.09 331.12C116.168 331.131 104.737 335.872 96.307 344.304C87.8774 352.735 83.1383 364.167 83.1304 376.09Z" fill="black"/>
</g>
<path d="M67.7202 376.09C67.7285 387.434 72.0209 398.356 79.7382 406.671C87.4555 414.985 98.0283 420.078 109.34 420.93V421.05H364C377.581 421.042 390.637 415.807 400.462 406.432C410.287 397.056 416.127 384.258 416.77 370.693C417.413 357.128 412.81 343.835 403.916 333.572C395.022 323.309 382.519 316.863 369 315.57C368.387 294.885 360.585 275.06 346.936 259.505C333.286 243.951 314.643 233.639 294.213 230.343C273.783 227.047 252.843 230.974 234.995 241.448C217.147 251.921 203.507 268.287 196.42 287.73C189.094 284.031 180.997 282.115 172.79 282.14C159.331 282.125 146.374 287.247 136.563 296.461C126.752 305.675 120.828 318.286 120 331.72C117.584 331.317 115.139 331.116 112.69 331.12C100.766 331.128 89.3322 335.868 80.9004 344.3C72.4686 352.732 67.7282 364.166 67.7202 376.09Z" fill="#AC86FF"/>
<path d="M214.64 325.44L206.41 319.1C211.588 312.4 218.56 307.306 226.516 304.411C234.473 301.515 243.088 300.936 251.361 302.741C259.634 304.547 267.225 308.662 273.252 314.61C279.279 320.557 283.495 328.092 285.41 336.34L275.29 338.69C273.827 332.346 270.593 326.549 265.962 321.972C261.332 317.396 255.497 314.229 249.137 312.841C242.776 311.453 236.152 311.9 230.036 314.13C223.92 316.361 218.563 320.283 214.59 325.44H214.64Z" fill="white"/>
<path d="M264.99 333.3L279.55 358.38L294 333.23L264.99 333.3Z" fill="white"/>
<g opacity="0.2">
<path d="M214.64 325.44L206.41 319.1C211.588 312.4 218.56 307.306 226.516 304.411C234.473 301.515 243.088 300.936 251.361 302.741C259.634 304.547 267.225 308.662 273.252 314.61C279.279 320.557 283.495 328.092 285.41 336.34L275.29 338.69C273.827 332.346 270.593 326.549 265.962 321.972C261.332 317.396 255.497 314.229 249.137 312.841C242.776 311.453 236.152 311.9 230.036 314.13C223.92 316.361 218.563 320.283 214.59 325.44H214.64Z" fill="white"/>
<path d="M264.99 333.3L279.55 358.38L294 333.23L264.99 333.3Z" fill="white"/>
</g>
<path d="M229.19 386.62C221.789 384.242 215.13 379.988 209.862 374.271C204.594 368.555 200.897 361.571 199.13 354L209.25 351.66C210.752 358.189 214.129 364.137 218.967 368.772C223.804 373.408 229.89 376.528 236.478 377.75C243.065 378.972 249.866 378.242 256.044 375.65C262.221 373.057 267.507 368.716 271.25 363.16L279.87 368.96C274.44 376.956 266.579 382.991 257.451 386.172C248.324 389.353 238.414 389.51 229.19 386.62Z" fill="white"/>
<path d="M219.6 357.09L205.04 332L190.6 357.15L219.6 357.09Z" fill="white"/>
<path d="M191.48 164.78L140.73 190.28L108 125.14L145.68 106.2L158.75 99.64L164.98 112.05L191.48 164.78Z" fill="white"/>
<path d="M191.48 164.78L140.8 190.42L140.67 190.49L140.6 190.35L107.78 125.25L107.66 125.03L107.89 124.92L158.67 99.48L158.82 99.4L158.9 99.56L191.48 164.78ZM191.48 164.78L158.59 99.72L158.82 99.8L108.11 125.36L108.22 125.03L140.87 190.21L140.66 190.14L191.48 164.78Z" fill="#263238"/>
<path d="M119.281 135.256L160.625 114.48L159.785 112.809L118.442 133.585L119.281 135.256Z" fill="#DBDBDB"/>
<path d="M121.398 139.478L162.742 118.702L161.902 117.031L120.559 137.807L121.398 139.478Z" fill="#DBDBDB"/>
<path d="M123.529 143.699L164.873 122.924L164.033 121.253L122.689 142.028L123.529 143.699Z" fill="#DBDBDB"/>
<path d="M125.65 147.92L166.994 127.145L166.154 125.474L124.81 146.249L125.65 147.92Z" fill="#DBDBDB"/>
<path d="M127.762 152.146L169.105 131.37L168.266 129.699L126.922 150.475L127.762 152.146Z" fill="#DBDBDB"/>
<path d="M129.888 156.358L171.232 135.583L170.392 133.912L129.049 154.687L129.888 156.358Z" fill="#DBDBDB"/>
<path d="M132.009 160.58L173.353 139.804L172.513 138.133L131.169 158.909L132.009 160.58Z" fill="#DBDBDB"/>
<path d="M134.13 164.811L175.474 144.035L174.634 142.364L133.29 163.14L134.13 164.811Z" fill="#DBDBDB"/>
<path d="M136.261 169.032L177.604 148.256L176.765 146.585L135.421 167.361L136.261 169.032Z" fill="#DBDBDB"/>
<path d="M138.382 173.253L179.726 152.478L178.886 150.807L137.542 171.582L138.382 173.253Z" fill="#DBDBDB"/>
<path d="M140.489 177.47L181.833 156.694L180.993 155.023L139.65 175.799L140.489 177.47Z" fill="#DBDBDB"/>
<path d="M142.611 181.691L183.954 160.916L183.114 159.245L141.771 180.02L142.611 181.691Z" fill="#DBDBDB"/>
<path d="M219.518 175.494L219.485 128.334C219.482 123.916 215.898 120.336 211.479 120.34L164.32 120.372C159.901 120.376 156.322 123.96 156.325 128.378L156.358 175.538C156.361 179.956 159.945 183.536 164.364 183.532L211.524 183.5C215.942 183.496 219.521 179.912 219.518 175.494Z" fill="#712FFF"/>
<path d="M190.217 139.665C189.896 138.499 189.146 137.922 188.471 138.009C188.061 138.048 187.666 138.19 187.322 138.422C186.978 138.654 186.696 138.968 186.501 139.338C185.558 141.517 187.572 147.857 187.829 148.914C186.072 154.306 180.428 164.503 177.012 166.813C176.925 166.867 176.825 166.894 176.723 166.89C176.621 166.885 176.523 166.849 176.442 166.786C176.36 166.724 176.3 166.638 176.268 166.539C176.236 166.441 176.234 166.335 176.262 166.235C176.605 165.146 177.687 163.446 180.707 161.474C180.918 161.248 181.115 161.008 181.296 160.755C177.708 162.531 173.06 165.396 175.855 167.532C176.056 167.673 176.276 167.783 176.509 167.858C178.65 168.665 181.649 166.028 184.659 160.047C187.839 158.9 191.115 158.05 194.447 157.509C198.592 160.374 201.366 160.962 203.25 160.222C203.623 160.057 203.957 159.813 204.231 159.507C204.504 159.201 204.71 158.839 204.836 158.446C203.304 160.363 199.716 159.023 196.857 157.193C199.491 156.899 202.212 156.725 203.4 157.106C204.9 157.585 204.846 158.337 204.836 158.446C204.944 158.191 205 157.917 205 157.64C205 157.362 204.944 157.088 204.836 156.834C203.572 154.742 197.778 155.962 195.668 156.18C192.677 154.196 190.388 151.291 189.135 147.89C190.003 144.512 190.924 142.061 190.206 139.632M188.771 146.702C188.278 144.905 187.604 141.124 188.375 139.338C188.406 139.264 188.454 139.198 188.515 139.146C188.576 139.095 188.648 139.058 188.725 139.04C188.802 139.022 188.882 139.023 188.959 139.043C189.036 139.062 189.107 139.1 189.167 139.153C190.913 140.732 189.553 143.837 188.771 146.702ZM193.344 156.638C190.428 157.227 187.581 158.129 184.851 159.328C186.27 156.226 187.451 153.017 188.386 149.731C189.582 152.338 191.271 154.681 193.355 156.627" fill="white"/>
<path d="M270.32 77.56L269.33 77.48L269.4 76.48L270.4 76.56L270.32 77.56Z" fill="#263238"/>
<path d="M211.41 97.12L210.72 96.4C211.17 95.97 211.66 95.52 212.19 95.04L212.85 95.79C212.34 96.25 211.86 96.7 211.41 97.12ZM214.34 94.5L213.69 93.73C214.18 93.32 214.69 92.9 215.24 92.47L215.86 93.25C215.33 93.67 214.82 94.09 214.34 94.5ZM217.42 92.05L216.82 91.25C217.33 90.86 217.87 90.47 218.43 90.07L219.01 90.89C218.46 91.28 217.93 91.66 217.42 92.05ZM220.63 89.77L220.07 88.94C220.61 88.58 221.17 88.22 221.75 87.86L222.28 88.71C221.71 89.06 221.16 89.42 220.63 89.77ZM224 87.68L223.49 86.82L225.22 85.82L225.71 86.7C225.08 87 224.51 87.36 224 87.68ZM227.44 85.77L226.98 84.89C227.56 84.58 228.15 84.29 228.76 83.99L229.2 84.89L227.44 85.77ZM230.98 84.05L230.56 83.14C231.16 82.87 231.77 82.6 232.39 82.34L232.78 83.27C232.13 83.52 231.53 83.79 230.94 84.05H230.98ZM234.6 82.52L234.24 81.59C234.85 81.35 235.47 81.12 236.1 80.89L236.44 81.83L234.6 82.52ZM238.3 81.19L237.99 80.19C238.61 79.98 239.24 79.78 239.89 79.59L240.18 80.59C239.5 80.79 238.88 81 238.26 81.19H238.3ZM242 80.05L241.73 79.05C242.37 78.87 243.01 78.71 243.66 78.55L243.9 79.55C243.29 79.72 242.65 79.88 242 80.05ZM245.82 79.11L245.6 78.11L247.6 77.71L247.79 78.71C247.13 78.8367 246.484 78.97 245.85 79.11H245.82ZM249.68 78.37L249.52 77.37C250.16 77.26 250.82 77.16 251.52 77.07L251.66 78.07C251 78.16 250.35 78.26 249.71 78.37H249.68ZM253.58 77.82L253.46 76.82L255.46 76.62L255.55 77.62C254.9 77.68 254.25 77.74 253.61 77.82H253.58ZM257.49 77.46L257.43 76.46L259.43 76.35V77.35L257.49 77.46ZM267.33 77.37C266.67 77.37 266.01 77.31 265.33 77.3V76.3L267.33 76.37V77.37ZM261.43 77.29V76.29H263.2H263.42V77.29H263.2H261.43Z" fill="#263238"/>
<path d="M209.33 99.2201L208.6 98.5401L209.29 97.8101L210.01 98.5101L209.33 99.2201Z" fill="#263238"/>
<path d="M210.87 92.51L211.78 92.91L209.14 98.9L215.01 96.02L215.46 96.91L207.11 101.01L210.87 92.51Z" fill="#263238"/>
<path d="M401.19 163.45C401.19 163.45 401.12 163.11 400.97 162.51L401.97 162.26C402.13 162.91 402.2 163.26 402.2 163.26L401.19 163.45Z" fill="#263238"/>
<path d="M400.41 160.59C400.24 160.02 400.02 159.39 399.77 158.68L400.71 158.34C400.97 159.06 401.19 159.71 401.37 160.29L400.41 160.59ZM399.05 156.8C398.81 156.22 398.55 155.6 398.27 154.95L399.18 154.55C399.47 155.21 399.74 155.83 399.98 156.43L399.05 156.8ZM397.42 153.12C397.14 152.54 396.84 151.94 396.52 151.32L397.41 150.86C397.74 151.49 398.04 152.1 398.33 152.69L397.42 153.12ZM395.57 149.54C395.26 148.97 394.92 148.39 394.57 147.8L395.43 147.29C395.79 147.89 396.12 148.48 396.43 149.06L395.57 149.54ZM393.52 146.08C393.17 145.52 392.8 144.96 392.42 144.39L393.25 143.83C393.637 144.41 394.007 144.98 394.36 145.54L393.52 146.08ZM391.27 142.73C390.89 142.19 390.5 141.65 390.09 141.1L390.89 140.5L392.09 142.15L391.27 142.73ZM388.86 139.5L387.59 137.94L388.36 137.3C388.8 137.83 389.22 138.36 389.64 138.88L388.86 139.5ZM386.28 136.41C385.84 135.91 385.39 135.41 384.93 134.91L385.67 134.23C386.13 134.74 386.59 135.23 387.03 135.75L386.28 136.41ZM383.54 133.41C383.08 132.93 382.61 132.41 382.12 131.98L382.83 131.26C383.32 131.75 383.83 132.26 384.26 132.71L383.54 133.41ZM380.67 130.58C380.19 130.12 379.67 129.67 379.19 129.21L379.86 128.47L381.36 129.85L380.67 130.58ZM377.67 127.88C377.17 127.45 376.67 127.02 376.12 126.59L376.76 125.82C377.29 126.25 377.81 126.69 378.32 127.12L377.67 127.88ZM374.55 125.33C374.03 124.92 373.49 124.51 372.95 124.1L373.55 123.3C374.1 123.71 374.63 124.13 375.17 124.54L374.55 125.33ZM371.32 122.91C370.78 122.52 370.23 122.14 369.67 121.75L370.23 120.93L371.9 122.1L371.32 122.91Z" fill="#263238"/>
<path d="M368 120.66L367.16 120.11L367.7 119.27L368.55 119.82L368 120.66Z" fill="#263238"/>
<path d="M374.06 120.32L373.83 121.3L367.46 119.8L371.38 125.05L370.58 125.64L365.01 118.2L374.06 120.32Z" fill="#263238"/>
<path d="M145.48 204.35L144.48 204.28L144.56 203.28L145.55 203.36L145.48 204.35Z" fill="#263238"/>
<path d="M164.4 263C163.97 262.55 163.51 262.06 163.04 261.53L163.79 260.86C164.25 261.38 164.7 261.86 165.12 262.31L164.4 263ZM161.73 260C161.32 259.51 160.9 259 160.47 258.45L161.25 257.83C161.67 258.36 162.09 258.83 162.49 259.35L161.73 260ZM159.25 256.87C158.86 256.36 158.46 255.82 158.07 255.26L158.89 254.68C159.28 255.23 159.66 255.76 160.04 256.27L159.25 256.87ZM156.94 253.62C156.58 253.08 156.22 252.52 155.86 251.94L156.7 251.41C157.06 251.98 157.42 252.53 157.77 253.06L156.94 253.62ZM154.82 250.24C154.49 249.68 154.16 249.1 153.82 248.51L154.69 248.02C155.02 248.61 155.34 249.18 155.69 249.73L154.82 250.24ZM152.89 246.75C152.58 246.17 152.28 245.58 151.99 244.97L152.89 244.53C153.18 245.13 153.47 245.72 153.77 246.29L152.89 246.75ZM151.14 243.17C150.87 242.57 150.6 241.96 150.34 241.34L151.26 240.95C151.52 241.56 151.78 242.16 152.05 242.75L151.14 243.17ZM149.59 239.49C149.35 238.88 149.12 238.26 148.89 237.63L149.83 237.29L150.52 239.13L149.59 239.49ZM148.24 235.74C148.03 235.12 147.83 234.49 147.64 233.84L148.64 233.55C148.84 234.19 149.03 234.81 149.24 235.43L148.24 235.74ZM147.08 231.93C146.91 231.29 146.74 230.65 146.58 230L147.58 229.76C147.74 230.4 147.91 231.04 148.08 231.66L147.08 231.93ZM146.08 228.06C145.94 227.41 145.81 226.76 145.68 226.06L146.68 225.87C146.81 226.52 146.94 227.16 147.08 227.79L146.08 228.06ZM145.33 224.14C145.22 223.49 145.12 222.84 145.03 222.14L146.03 222C146.12 222.65 146.22 223.3 146.33 223.94L145.33 224.14ZM144.77 220.2C144.7 219.55 144.63 218.88 144.57 218.2L145.57 218.11C145.63 218.777 145.7 219.427 145.78 220.06L144.77 220.2ZM144.41 216.2C144.41 215.55 144.33 214.88 144.3 214.2H145.3C145.3 214.86 145.36 215.52 145.41 216.2H144.41ZM144.24 212.2C144.24 211.62 144.24 211.03 144.24 210.43V210.21H145.24V210.43C145.24 211.02 145.24 211.6 145.24 212.18L144.24 212.2ZM145.24 208.2H144.24C144.24 207.54 144.24 206.88 144.31 206.2H145.31C145.34 207 145.31 207.63 145.3 208.29L145.24 208.2Z" fill="#263238"/>
<path d="M166.54 265.08L165.81 264.38L166.51 263.67L167.22 264.35L166.54 265.08Z" fill="#263238"/>
<path d="M160.5 262.81L160.91 261.89L166.9 264.54L164.01 258.66L164.91 258.22L169.01 266.57L160.5 262.81Z" fill="#263238"/>
<path d="M355.78 87.03H278.08V137.27H355.78V87.03Z" fill="#AC86FF"/>
<path d="M302.57 81.83H278.08V87.03H303.97L302.57 81.83Z" fill="#AC86FF"/>
<g opacity="0.1">
<path d="M355.78 87.0299H278.08V137.27H355.78V87.0299Z" fill="black"/>
<path d="M302.57 81.83H278.08V87.03H303.97L302.57 81.83Z" fill="black"/>
</g>
<path d="M339.24 120.03L288.7 120L288.73 55.13L326.26 55.15L339.26 67.52L339.24 120.03Z" fill="#AC86FF"/>
<path opacity="0.6" d="M339.24 120.03L288.7 120L288.73 55.13L326.26 55.15L339.26 67.52L339.24 120.03Z" fill="white"/>
<path d="M326.26 55.15L339.26 67.52L326.25 67.51L326.26 55.15Z" fill="#AC86FF"/>
<path opacity="0.4" d="M326.26 55.15L339.26 67.52L326.25 67.51L326.26 55.15Z" fill="white"/>
<path d="M293.655 67.6816L321.755 67.6963L321.756 66.0263L293.656 66.0116L293.655 67.6816Z" fill="white"/>
<path d="M293.657 71.8815L321.757 71.8962L321.758 70.2262L293.658 70.2115L293.657 71.8815Z" fill="white"/>
<path d="M293.649 76.0915L321.749 76.1062L321.75 74.4362L293.65 74.4215L293.649 76.0915Z" fill="white"/>
<path d="M293.651 80.2947L334.821 80.3163L334.822 78.6463L293.652 78.6247L293.651 80.2947Z" fill="white"/>
<path d="M293.643 84.5047L334.813 84.5262L334.814 82.8562L293.644 82.8347L293.643 84.5047Z" fill="white"/>
<path d="M293.646 88.6948L334.816 88.7163L334.817 87.0463L293.647 87.0248L293.646 88.6948Z" fill="white"/>
<path d="M293.648 92.9047L334.818 92.9263L334.819 91.2563L293.649 91.2347L293.648 92.9047Z" fill="white"/>
<path d="M293.64 97.1047L334.81 97.1262L334.811 95.4562L293.641 95.4347L293.64 97.1047Z" fill="white"/>
<path d="M293.643 101.315L334.812 101.336L334.813 99.6663L293.643 99.6447L293.643 101.315Z" fill="white"/>
<path d="M293.635 105.515L334.805 105.536L334.806 103.866L293.636 103.845L293.635 105.515Z" fill="white"/>
<path d="M293.627 109.725L334.797 109.746L334.798 108.076L293.628 108.055L293.627 109.725Z" fill="white"/>
<path d="M293.639 113.925L334.809 113.946L334.81 112.276L293.64 112.255L293.639 113.925Z" fill="white"/>
<path d="M355.6 137.27H277.9L272.55 91.2H350.26L355.6 137.27Z" fill="#AC86FF"/>
<path d="M296.49 86.42H272L272.55 91.2H298.45L296.49 86.42Z" fill="#AC86FF"/>
<path d="M350.18 354.91L321.35 379.8C315.81 384.53 311.04 388.8 308.78 391.2C308.193 391.711 307.728 392.346 307.42 393.06C307.42 393.06 307.42 393.06 307.42 393.13C307.72 395.73 344.2 441.07 346.01 442.22C347.82 443.37 351.24 438.32 351.23 435.43C351.22 432.54 345 409 345 409L373.57 383.86L350.18 354.91Z" fill="#FFC4C0"/>
<path d="M348.1 421.29C349.64 427.5 351.16 434.03 351.18 435.47C351.18 438.36 347.76 443.47 345.96 442.26C344.16 441.05 307.67 395.77 307.38 393.17C307.38 393.17 307.38 393.17 307.38 393.1C307.69 392.384 308.158 391.748 308.75 391.24C310.58 389.24 314.08 386.11 318.29 382.45C319.29 381.6 320.29 380.73 321.29 379.84L350.12 354.95L373.46 383.87L345 409C345 409 346.58 415 348.15 421.31L348.1 421.29Z" fill="#FFC4C0"/>
<path d="M351.18 435.47C351.18 438.36 347.76 443.47 345.96 442.26C344.16 441.05 307.67 395.77 307.38 393.17C307.38 393.17 307.38 393.17 307.38 393.1C307.69 392.384 308.158 391.748 308.75 391.24C310.58 389.24 314.08 386.11 318.29 382.45C325.13 395.22 343.86 429.53 347.41 429.17C348.67 429.04 348.5 425.06 348.07 421.33C349.64 427.5 351.16 434 351.18 435.47Z" fill="#263238"/>
<path d="M365.26 325.9C363.5 336.32 321.89 379 321.89 379L353 412.62C353 412.62 412 349.77 408 327C404.59 307.19 372.21 228.14 372.21 228.14L337.84 229.25C337.84 229.25 367 315.65 365.26 325.9Z" fill="#263238"/>
<path d="M365.26 325.9C363.5 336.32 321.89 379 321.89 379L353 412.62C353 412.62 412 349.77 408 327C404.59 307.19 372.21 228.14 372.21 228.14L337.84 229.25C337.84 229.25 367 315.65 365.26 325.9Z" fill="#37474F"/>
<path d="M356.09 404.29C351.95 399.46 353.21 400.79 349.01 396.01C346.96 393.67 333.46 378.32 331.17 376.48C331.12 376.48 331.04 376.48 331.07 376.56C332.65 379.05 346.41 394.16 348.51 396.46C352.79 401.16 351.62 399.76 355.95 404.46C356 404.5 356.17 404.38 356.09 404.29Z" fill="#263238"/>
<path d="M369.37 320.71C368.79 318.15 368.15 315.59 367.52 313.03C366.233 307.81 364.88 302.607 363.46 297.42C360.653 287.14 357.63 276.92 354.39 266.76C351.13 256.57 347.7 246.4 343.8 236.43C343.32 235.2 342.8 233.98 342.33 232.75C342.321 232.733 342.307 232.72 342.289 232.712C342.271 232.705 342.252 232.705 342.234 232.711C342.216 232.717 342.2 232.729 342.19 232.745C342.181 232.762 342.177 232.781 342.18 232.8C345.6 242.8 349.11 252.8 352.33 262.8C355.55 272.8 358.54 282.91 361.39 293.04C362.82 298.13 364.16 303.24 365.48 308.36C366.13 310.88 366.76 313.36 367.38 315.92C368.137 318.471 368.702 321.075 369.07 323.71C369.234 326.215 368.608 328.709 367.28 330.84C366.06 332.99 364.61 335.02 363.21 337.05C360.4 341.13 333.44 373.21 332.57 374.05C332.5 374.12 332.57 374.22 332.68 374.15C336.32 370.66 359.22 344.15 362.11 340.15C363.54 338.15 364.93 336.09 366.29 334.03C367.656 332.158 368.741 330.096 369.51 327.91C370.075 325.537 370.027 323.059 369.37 320.71Z" fill="#263238"/>
<path d="M366.31 228.33L362.72 310.41C355.86 282.58 337.89 229.25 337.89 229.25L366.31 228.33Z" fill="#263238"/>
<path d="M360 397.3C360 397.3 368.59 433.19 368.59 433.21C368.92 440.49 369.35 446.85 369.87 450.13C369.865 450.146 369.865 450.164 369.87 450.18C369.911 450.959 370.13 451.719 370.51 452.4V452.45C372.74 453.81 430.93 452.83 432.95 452.12C434.97 451.41 433.08 445.59 430.79 443.83C428.5 442.07 406.05 432.48 406.05 432.48L397.1 396.63L360 397.3Z" fill="#FFC4C0"/>
<path d="M433 452.11C431 452.83 372.79 453.82 370.56 452.45V452.4C370.18 451.719 369.961 450.959 369.92 450.18C369.914 450.164 369.914 450.146 369.92 450.13C369.51 447.52 369.15 442.94 368.85 437.51C383.73 439.91 421.04 445.57 422.85 442.58C423.55 441.43 419.85 438.93 416.42 436.96C422.66 439.7 429.65 442.89 430.88 443.83C433.1 445.59 435 451.41 433 452.11Z" fill="#263238"/>
<path d="M371.87 228.15C370.721 233.846 369.923 239.606 369.48 245.4C368.99 252.61 368.3 259 367.37 259.83C366.44 260.66 360.99 264.42 359.2 265.6C359.2 265.6 377.79 316.38 382.72 333.35C389.85 357.95 407.44 431.88 407.44 431.88L367 433.18C367 433.18 352.41 362.73 346.28 339.29C341 319.19 321.41 259 321.41 259C319.394 254.374 318.394 249.369 318.476 244.323C318.559 239.277 319.723 234.308 321.89 229.75C321.89 229.75 371.88 228.13 371.87 228.15Z" fill="#37474F"/>
<path d="M405.72 424.06C399.37 424.23 401.19 424.06 394.83 424.34C391.73 424.45 371.3 425.25 368.42 425.87C368.36 425.87 368.36 426 368.42 426C371.34 426.34 391.75 425.19 394.86 425C401.2 424.64 399.38 424.67 405.72 424.23C405.85 424.24 405.84 424.06 405.72 424.06Z" fill="#263238"/>
<path d="M370.16 257.71C366.304 259.996 362.654 262.613 359.25 265.53C359.12 265.65 359.25 265.86 359.41 265.76C363.11 263.27 366.91 260.84 370.47 258.15C370.522 258.107 370.556 258.045 370.565 257.978C370.574 257.911 370.557 257.842 370.518 257.787C370.479 257.732 370.42 257.693 370.354 257.679C370.288 257.664 370.218 257.675 370.16 257.71Z" fill="#263238"/>
<path d="M366.17 229.88C366.17 229.74 365.89 229.76 365.92 229.88C366.85 234.66 367.34 238.88 367.78 243.47C367.98 245.58 368.48 257.36 364.72 257.21C364.09 257.21 363.67 256.65 363.4 255.75C363.189 254.562 363.129 253.353 363.22 252.15C363.17 249.67 363.03 247.15 362.78 244.74C362.348 240.146 361.443 235.609 360.08 231.2C360.069 231.175 360.049 231.154 360.025 231.141C360 231.128 359.972 231.125 359.945 231.131C359.917 231.137 359.893 231.152 359.876 231.173C359.859 231.195 359.85 231.222 359.85 231.25C361.133 237.494 361.945 243.825 362.28 250.19C362.39 253.26 361.74 258.03 364.95 257.9C368.16 257.77 368.85 249.9 368.85 247.73C368.732 241.689 367.831 235.689 366.17 229.88Z" fill="#263238"/>
<path d="M364.87 257.53C364.695 258.364 364.575 259.21 364.51 260.06C364.392 260.721 364.392 261.398 364.51 262.06C364.51 262.18 364.72 262.16 364.77 262.06C365.032 261.401 365.194 260.707 365.25 260C365.39 259.22 365.54 258.43 365.65 257.64C365.638 257.552 365.597 257.47 365.534 257.408C365.471 257.345 365.389 257.304 365.301 257.292C365.213 257.279 365.124 257.296 365.046 257.339C364.968 257.382 364.906 257.449 364.87 257.53Z" fill="#263238"/>
<path d="M361.33 403.2C361.2 402.27 361.04 401.34 360.88 400.41C360.57 398.62 360.21 396.85 359.88 395.07C359.21 391.5 358.48 387.93 357.73 384.37C356.23 377.28 354.54 370.21 352.73 363.17C351.73 359.17 350.59 355.27 349.39 351.35C349.3 351.08 348.92 351.23 348.98 351.49C349.74 355.09 350.49 358.69 351.35 362.27C352.21 365.85 353.05 369.41 353.88 372.99C355.53 380.05 357.07 387.14 358.71 394.21C359.17 396.21 359.6 398.21 360.05 400.21C360.28 401.21 360.52 402.21 360.76 403.21C361 404.21 361.35 405.16 361.55 406.16C361.55 406.26 361.71 406.21 361.69 406.11C361.52 405.14 361.48 404.16 361.33 403.2Z" fill="#263238"/>
<path d="M387.47 348.58C385.91 341.92 383.88 335.36 381.84 328.83C377.74 315.68 372.99 302.75 368.25 289.83L364.15 278.65C363.47 276.79 360.15 266.74 359.69 265.79C359.687 265.78 359.682 265.77 359.675 265.761C359.667 265.753 359.659 265.746 359.649 265.741C359.639 265.736 359.629 265.733 359.618 265.732C359.607 265.731 359.596 265.732 359.585 265.735C359.575 265.738 359.565 265.744 359.556 265.751C359.548 265.758 359.541 265.766 359.536 265.776C359.531 265.786 359.528 265.797 359.527 265.808C359.526 265.818 359.527 265.829 359.53 265.84C360.53 269.27 361.88 274.27 363 277.66C364.12 281.05 365.3 284.34 366.46 287.66C368.74 294.21 371.05 300.75 373.27 307.32C377.66 320.32 382.02 333.32 385.67 346.52C386.67 350.22 387.67 353.92 388.67 357.64C389.67 361.36 390.44 365.11 391.35 368.83C391.35 368.93 391.54 368.9 391.53 368.83C390.61 362 389 355.27 387.47 348.58Z" fill="#263238"/>
<path d="M363.47 384.49C360.83 371.76 357.76 359.12 354.39 346.57C351.02 334.02 347.3 321.43 343.26 309C339.22 296.57 334.77 284.29 330.04 272.12C327.679 266.402 325.663 260.548 324 254.59C322.47 248.66 321.59 242.21 322.78 236.14C323.07 234.598 323.478 233.08 324 231.6C324 231.5 323.89 231.42 323.85 231.52C319.35 243.01 322.91 255.3 326.97 266.35C329.2 272.35 331.56 278.35 333.75 284.47C335.94 290.59 338.18 296.95 340.27 303.23C344.41 315.677 348.253 328.22 351.8 340.86C355.346 353.5 358.526 366.213 361.34 379C364.2 391.85 366.67 404.76 369.17 417.69C369.5 419.37 369.76 421.06 370.04 422.75C370.04 422.84 370.2 422.84 370.19 422.75C368.22 410 366.11 397.19 363.47 384.49Z" fill="#263238"/>
<path d="M367.78 150.76C373.96 158.83 369.86 167.81 371.93 173.59C373.19 177.13 378.76 181.76 379.25 185.59C380.04 191.95 374.57 193.01 375.01 196.47C375.64 201.36 381.82 202.3 381.34 210C380.86 217.7 371 223.93 351 222C331 220.07 321.87 210.62 322.51 204.14C323.15 197.66 330.08 196.93 331.51 192.3C332.43 189.3 328.87 186.39 329.85 180.79C330.83 175.19 336.62 174.52 338.4 169.97C340.18 165.42 340.11 153.41 348.28 149.02C356.45 144.63 364.74 146.78 367.78 150.76Z" fill="#263238"/>
<path d="M366.87 150.75C368.667 152.687 369.968 155.03 370.66 157.58C371.366 160.276 371.755 163.044 371.82 165.83C371.814 167.482 371.995 169.129 372.36 170.74C372.778 172.103 373.431 173.383 374.29 174.52C376 176.87 378.21 178.85 379.64 181.4C381.01 183.8 381.83 186.81 380.53 189.4C379.82 190.82 378.53 191.83 377.65 193.11C376.77 194.39 376.2 195.91 377.11 197.26C377.88 198.41 379.2 199.14 380.11 200.15C381.034 201.145 381.797 202.279 382.37 203.51C382.948 204.736 383.264 206.069 383.299 207.424C383.333 208.779 383.085 210.126 382.57 211.38C380.14 217.2 373.73 219.44 368.02 220.5C367.22 220.65 366.42 220.78 365.62 220.92C365.5 220.92 365.44 220.76 365.57 220.73C371.33 219.49 378.03 218.02 381.31 212.56C382.036 211.372 382.48 210.033 382.609 208.646C382.737 207.259 382.546 205.861 382.05 204.56C381.55 203.268 380.818 202.079 379.89 201.05C379 200.05 377.89 199.3 376.96 198.33C376.492 197.881 376.153 197.315 375.977 196.691C375.801 196.067 375.796 195.407 375.96 194.78C376.42 193.426 377.199 192.201 378.23 191.21C379.303 190.179 380.039 188.847 380.34 187.39C380.482 185.942 380.226 184.483 379.6 183.17C378.45 180.5 376.35 178.46 374.54 176.24C372.659 174.133 371.487 171.489 371.19 168.68C371.08 167.21 371.14 165.68 371.08 164.25C371.042 162.878 370.928 161.509 370.74 160.15C370.416 157.432 369.501 154.818 368.06 152.49C367.67 151.896 367.225 151.34 366.73 150.83C366.73 150.78 366.82 150.69 366.87 150.75Z" fill="#263238"/>
<path d="M322.66 199.27C323.116 198.288 323.781 197.417 324.61 196.72C325.47 196 326.44 195.45 327.36 194.82C328.277 194.273 329.022 193.479 329.51 192.53C329.905 191.321 329.866 190.013 329.4 188.83C328.977 187.602 328.643 186.346 328.4 185.07C328.215 183.813 328.215 182.537 328.4 181.28C328.841 178.699 330.062 176.315 331.9 174.45C332.79 173.5 333.76 172.63 334.66 171.69C335.649 170.665 336.5 169.516 337.19 168.27C338.69 165.52 339.53 162.47 340.88 159.65C342.268 156.765 343.943 154.028 345.88 151.48C345.88 151.42 346.02 151.48 345.97 151.57C344.232 153.87 342.74 156.347 341.52 158.96C340.34 161.44 339.52 164.04 338.52 166.58C338.041 167.834 337.438 169.036 336.72 170.17C336.016 171.207 335.22 172.178 334.34 173.07C332.57 174.93 330.76 176.76 329.86 179.23C328.966 181.656 328.865 184.303 329.57 186.79C330.18 188.94 331.17 191.38 329.79 193.46C328.63 195.22 326.55 195.98 325 197.32C324.173 198.06 323.512 198.966 323.06 199.979C322.609 200.993 322.377 202.09 322.38 203.2C322.27 208.87 327.16 212.74 332.22 214.09C332.248 214.102 332.271 214.122 332.285 214.149C332.299 214.175 332.303 214.206 332.298 214.235C332.292 214.265 332.276 214.291 332.252 214.31C332.229 214.33 332.2 214.34 332.17 214.34C327.73 213.34 323.3 210.34 322.1 205.75C321.53 203.59 321.728 201.3 322.66 199.27Z" fill="#263238"/>
<path d="M353.06 193.79C362.35 211.48 374.06 230.58 384.48 233.3C394.41 235.88 418.06 211.12 422.07 202.9C423.45 200.07 404.73 187.66 402.07 189.74C397.07 193.67 386.15 206.13 384.59 205.82C383.03 205.51 369.77 193.69 357.8 183.76C350.56 177.74 346.62 181.54 353.06 193.79Z" fill="#FFC4C0"/>
<path d="M405.46 161L398.31 186C398.01 186.73 398.37 187.35 399.09 187.37L412.09 187.78C412.489 187.763 412.875 187.633 413.203 187.404C413.53 187.176 413.786 186.859 413.94 186.49L421.09 161.49C421.174 161.352 421.22 161.194 421.222 161.032C421.224 160.87 421.183 160.71 421.102 160.57C421.021 160.43 420.904 160.314 420.763 160.235C420.622 160.156 420.462 160.116 420.3 160.12L407.3 159.71C406.903 159.731 406.52 159.863 406.195 160.091C405.869 160.319 405.615 160.634 405.46 161Z" fill="#A6A6A6"/>
<path d="M407 161L399.84 186.05C399.759 186.189 399.716 186.346 399.715 186.507C399.715 186.668 399.757 186.825 399.837 186.965C399.917 187.104 400.033 187.219 400.172 187.299C400.312 187.379 400.47 187.421 400.63 187.42L413.63 187.82C414.028 187.803 414.413 187.674 414.74 187.447C415.067 187.221 415.324 186.906 415.48 186.54L422.63 161.54C422.92 160.8 422.57 160.19 421.84 160.17L408.84 159.76C408.449 159.775 408.069 159.9 407.744 160.119C407.419 160.338 407.161 160.643 407 161Z" fill="#DBDBDB"/>
<path d="M410.54 162.31C410.524 162.603 410.394 162.877 410.176 163.074C409.959 163.271 409.673 163.374 409.38 163.36C409.086 163.342 408.812 163.209 408.615 162.99C408.419 162.771 408.316 162.484 408.33 162.19C408.367 161.913 408.507 161.66 408.722 161.482C408.937 161.303 409.211 161.213 409.49 161.228C409.769 161.243 410.032 161.363 410.227 161.563C410.421 161.764 410.533 162.031 410.54 162.31Z" fill="#455A64"/>
<path d="M428.09 188.73C429.19 181.45 428.36 179.41 432.55 173.73C435.3 170.02 434.11 166.67 429.78 168.73C422.71 172.14 419.32 181.23 419.05 184.73L428.09 188.73Z" fill="#FFC4C0"/>
<path d="M418.7 207.8C418.7 207.8 425.49 199.87 427.43 192.23C428.77 186.95 430.43 175.13 418.86 163.67C416.12 160.95 410.29 159.02 413.15 165.08C415.15 169.39 417.77 171.51 418.5 174.23C418.5 174.23 410.79 172.65 408.17 175.5C405.89 177.999 403.785 180.652 401.87 183.44C402.303 183.904 402.764 184.342 403.25 184.75C403.25 184.75 401.06 187.65 401.52 193.15L418.7 207.8Z" fill="#FFC4C0"/>
<path d="M427.91 187C426.62 184.45 423.79 179.1 419.91 175.52C415.65 171.52 406.36 165.05 403.47 168.23C401.34 170.56 404.66 173.35 404.66 173.35C404.66 173.35 400.26 171.47 398.8 173.99C397.47 176.3 400.17 178.3 400.17 178.3C400.17 178.3 397.31 177.62 396.45 180.08C395.45 183.08 401.6 183.99 403.15 187.89C403.54 188.74 427.91 187 427.91 187Z" fill="#FFC4C0"/>
<path d="M416.5 180.71C413.452 177.106 409.378 174.518 404.82 173.29C404.7 173.29 404.62 173.34 404.72 173.39C408.922 175.356 412.868 177.828 416.47 180.75C416.47 180.75 416.52 180.73 416.5 180.71Z" fill="#263238"/>
<path d="M412.37 184.89C409.013 181.604 404.828 179.288 400.26 178.19C400.15 178.19 400.07 178.25 400.17 178.29C404.465 180.034 408.545 182.265 412.33 184.94C412.33 184.94 412.39 184.92 412.37 184.89Z" fill="#263238"/>
<path d="M395.64 193L415.13 213.68C415.13 213.68 394.54 236.76 384.87 234.35C375.2 231.94 356.92 205.76 351.06 189.15C347.01 177.65 353.41 179.5 360.12 185.15C366.83 190.8 384.4 204.78 385.17 204.57C385.94 204.36 395.64 193 395.64 193Z" fill="#AC86FF"/>
<g opacity="0.2">
<path d="M395.64 193L415.13 213.68C415.13 213.68 394.54 236.76 384.87 234.35C375.2 231.94 356.92 205.76 351.06 189.15C347.01 177.65 353.41 179.5 360.12 185.15C366.83 190.8 384.4 204.78 385.17 204.57C385.94 204.36 395.64 193 395.64 193Z" fill="black"/>
</g>
<path opacity="0.1" d="M351.06 189.11C356.92 205.72 375.2 231.89 384.87 234.31C389.14 235.38 395.56 231.46 401.38 226.75C391.52 216.59 365.3 192 353.38 180.93C350.14 179.87 348.48 181.78 351.06 189.11Z" fill="black"/>
<path d="M408.81 217.07C405.98 214.22 394.81 202.14 392.63 199.36C392.47 199.17 392.56 199.02 392.74 199.2C398.457 204.831 403.859 210.773 408.92 217C409 217 408.88 217.15 408.81 217.07Z" fill="#263238"/>
<path d="M321.67 230.6L373.08 229.78L368.55 214.52C369.835 212.542 370.67 210.306 370.995 207.969C371.32 205.633 371.127 203.254 370.43 201C369.06 196.51 362.99 189.91 359.26 185.72C350.19 175.51 342.76 180.5 340.43 183.27C331.52 193.92 321.67 230.6 321.67 230.6Z" fill="#EBEBEB"/>
<path d="M354.78 214.06C356.969 213.789 359.175 213.682 361.38 213.74C362.48 213.74 363.56 213.87 364.65 213.99C365.2 214.05 365.74 214.09 366.29 214.12C366.858 214.19 367.432 214.19 368 214.12C368.05 214.12 368.06 214.18 368 214.2C367.477 214.339 366.946 214.442 366.41 214.51C365.887 214.54 365.363 214.54 364.84 214.51C363.73 214.51 362.62 214.39 361.51 214.35C359.26 214.26 357.02 214.17 354.78 214.25C354.76 214.243 354.742 214.231 354.73 214.214C354.718 214.197 354.711 214.176 354.711 214.155C354.711 214.134 354.718 214.113 354.73 214.096C354.742 214.079 354.76 214.067 354.78 214.06Z" fill="#263238"/>
<path d="M349.88 217.11C351.609 216.543 353.368 216.075 355.15 215.71C356.04 215.52 356.94 215.4 357.84 215.29L359.14 215.16C359.62 215.16 360.14 215.16 360.58 215.1C360.63 215.1 360.64 215.17 360.58 215.17C360.14 215.23 359.7 215.36 359.25 215.45L357.92 215.7L355.24 216.21C353.45 216.53 351.67 216.87 349.9 217.21C349.81 217.28 349.79 217.14 349.88 217.11Z" fill="#263238"/>
<path d="M339 182.89C322.41 192.89 298.65 216.75 300.29 223.24C302.11 230.46 325.29 216.42 325.45 215.31C325.61 214.47 336.45 199.05 344.5 187.88C352.55 176.71 343.08 180.42 339 182.89Z" fill="#FFC4C0"/>
<path d="M325.55 215.36C326.55 213.68 341.11 193.36 345.44 186.94C349.77 180.52 348.01 177.66 339.17 182.35C330.33 187.04 309.05 204.8 302.51 215.45C296.21 225.7 301.94 227.16 310.82 223.96C318.08 221.34 325.55 215.36 325.55 215.36Z" fill="#AC86FF"/>
<g opacity="0.2">
<path d="M325.55 215.36C326.55 213.68 341.11 193.36 345.44 186.94C349.77 180.52 348.01 177.66 339.17 182.35C330.33 187.04 309.05 204.8 302.51 215.45C296.21 225.7 301.94 227.16 310.82 223.96C318.08 221.34 325.55 215.36 325.55 215.36Z" fill="black"/>
</g>
<path d="M325.55 215.36C326.66 213.51 327.85 211.7 329.04 209.9C330.23 208.1 331.47 206.34 332.68 204.56C333.89 202.78 335.18 201.05 336.47 199.32C337.76 197.59 339.06 195.87 340.47 194.19C339.36 196.05 338.18 197.85 336.99 199.65C335.8 201.45 334.55 203.21 333.34 204.99C332.13 206.77 330.84 208.51 329.55 210.23C328.26 211.95 326.92 213.69 325.55 215.36Z" fill="#263238"/>
<path d="M340.57 195.87C340.202 196.52 339.725 197.102 339.16 197.59C338.881 197.837 338.58 198.058 338.26 198.25C337.95 198.448 337.613 198.599 337.26 198.7C337.8 198.17 338.32 197.7 338.86 197.21C339.396 196.721 339.967 196.274 340.57 195.87Z" fill="#263238"/>
<path d="M300.22 222.6C302.07 227.53 309.81 230.35 328.64 239.3C331.25 240.53 344.93 224.5 342.22 223.03C338.8 221.19 325.13 214.77 324.07 214.42C315.14 211.53 299 219.27 300.22 222.6Z" fill="#FFC4C0"/>
<path d="M338.48 221.11C338.48 221.11 346.56 224.53 350.24 227.63C353.993 230.957 356.879 235.148 358.65 239.84C360.59 244.84 361.77 258.45 357.92 259.47C354.44 260.39 353.92 246.47 353.92 246.47C353.92 246.47 356.78 260.57 352.39 260.91C348 261.25 348.32 245.07 348.32 245.07C348.32 245.07 350.93 259.62 346.32 259.26C342.86 258.98 342.32 244.26 342.32 244.26C342.32 244.26 344.48 256.79 340.9 256.66C336.95 256.52 335.61 243 335.61 243C326.61 241.14 323.03 236.56 320.89 233C320.42 232.18 338.48 221.11 338.48 221.11Z" fill="#FFC4C0"/>
<path d="M353.26 241.53C353.65 243.18 354.07 244.84 354.31 246.53C354.55 248.22 354.75 249.88 354.84 251.53C355.01 253.736 354.919 255.955 354.57 258.14C354.691 254.259 354.45 250.376 353.85 246.54C353.6 244.87 353.44 243.18 353.19 241.54C353.19 241.5 353.25 241.5 353.26 241.53Z" fill="#263238"/>
<path d="M347.2 242.32C347.61 244.44 348.1 246.53 348.42 248.67C348.74 250.81 348.86 252.85 349.03 255C349.03 255.17 348.95 255.12 348.93 254.95C348.67 252.82 348.27 250.86 347.99 248.72C347.71 246.58 347.5 244.44 347.15 242.33C347.14 242.29 347.19 242.29 347.2 242.32Z" fill="#263238"/>
<path d="M341.87 242.06C342.586 245.299 342.965 248.603 343 251.92C343 252.08 342.89 252.01 342.88 251.84C342.56 248.56 342.34 245.98 341.76 242.09C341.75 242 341.86 242 341.87 242.06Z" fill="#263238"/>
<path d="M340.23 221.56L317.93 236.47C317.93 236.47 301.4 228 300 222.78C299.05 219.38 315.34 210.78 325 214.7L340.23 221.56Z" fill="#AC86FF"/>
<path opacity="0.2" d="M340.23 221.56L317.93 236.47C317.93 236.47 301.4 228 300 222.78C299.05 219.38 315.34 210.78 325 214.7L340.23 221.56Z" fill="black"/>
<path d="M312.21 214.81C316.294 213.204 320.827 213.161 324.94 214.69C324.99 214.69 324.94 214.79 324.94 214.78C320.62 213.54 314.15 214.32 312.25 214.89C312.18 214.9 312.17 214.83 312.21 214.81Z" fill="#263238"/>
<path d="M314 232C316.36 230.23 318.82 228.59 321.28 227C323.74 225.41 326.2 223.72 328.71 222.14C330.12 221.26 331.53 220.36 332.98 219.52C332.98 219.52 333.06 219.52 333.03 219.58C330.67 221.35 328.21 223 325.77 224.65C323.33 226.3 320.84 227.93 318.36 229.54C316.95 230.44 315.53 231.32 314.09 232.16C314.069 232.172 314.044 232.175 314.02 232.168C313.997 232.162 313.977 232.146 313.965 232.125C313.953 232.104 313.95 232.079 313.957 232.055C313.963 232.032 313.979 232.012 314 232Z" fill="#263238"/>
<path d="M340.33 221.32C339.345 220.726 338.319 220.201 337.26 219.75C336.22 219.257 335.17 218.787 334.11 218.34C330.732 216.688 327.223 215.317 323.62 214.24C323.62 214.24 323.75 214.5 323.8 214.51C325.75 214.9 338.8 221.16 339.95 221.51L339.77 221.71C339.77 221.76 339.77 221.85 339.84 221.82C339.998 221.757 340.152 221.683 340.3 221.6C340.325 221.587 340.346 221.568 340.361 221.545C340.377 221.522 340.386 221.496 340.389 221.468C340.392 221.44 340.389 221.412 340.378 221.387C340.368 221.361 340.351 221.338 340.33 221.32Z" fill="#263238"/>
<path d="M348.68 182.33C348.78 183.27 352.42 189.7 356.61 190C357.97 190.09 358.83 182.68 358.83 182.68L359.01 182.14L361.64 174.68L353.32 167.83L352.11 166.91C352.11 166.91 351.53 169 350.83 171.61C350.83 171.73 350.76 171.85 350.73 171.98C350.681 172.117 350.64 172.258 350.61 172.4L350.28 173.58C350.2 173.89 350.13 174.18 350.06 174.5C349.99 174.82 349.91 175.13 349.83 175.45C349.288 177.714 348.904 180.013 348.68 182.33Z" fill="#FFC4C0"/>
<path d="M350.83 171.61C351.347 173.853 352.345 175.956 353.756 177.774C355.167 179.593 356.956 181.082 359 182.14L361.63 174.68L353.31 167.83L352.1 166.91C352.1 166.91 351.53 169 350.83 171.61Z" fill="#263238"/>
<path d="M373.92 161.62C376.92 175.18 369.13 178.51 366.21 179.15C363.55 179.73 354.44 181.38 350.06 168.15C345.68 154.92 351.06 149.29 357.06 147.64C363.06 145.99 370.93 148.06 373.92 161.62Z" fill="#FFC4C0"/>
<path d="M371.56 160.91C371.226 160.912 370.892 160.892 370.56 160.85C370.209 160.885 369.857 160.8 369.56 160.61C369.483 160.533 369.433 160.432 369.419 160.324C369.404 160.215 369.426 160.105 369.48 160.01C369.615 159.839 369.792 159.707 369.993 159.626C370.195 159.545 370.415 159.519 370.63 159.55C371.077 159.547 371.508 159.711 371.84 160.01C371.909 160.078 371.959 160.164 371.983 160.259C372.006 160.353 372.004 160.452 371.975 160.545C371.946 160.638 371.892 160.722 371.819 160.786C371.745 160.85 371.656 160.893 371.56 160.91Z" fill="#263238"/>
<path d="M362.33 161.94C362.64 161.85 362.92 161.72 363.22 161.6C363.555 161.53 363.857 161.35 364.08 161.09C364.133 160.994 364.153 160.883 364.136 160.775C364.12 160.666 364.069 160.566 363.99 160.49C363.811 160.364 363.602 160.288 363.384 160.27C363.165 160.252 362.947 160.294 362.75 160.39C362.328 160.516 361.97 160.798 361.75 161.18C361.704 161.269 361.685 161.369 361.694 161.469C361.703 161.568 361.74 161.663 361.801 161.743C361.861 161.822 361.943 161.883 362.037 161.918C362.13 161.953 362.232 161.96 362.33 161.94Z" fill="#263238"/>
<path d="M364.74 164.28C364.74 164.28 364.68 164.34 364.68 164.37C364.88 165.3 364.94 166.37 364.15 166.85C364.15 166.85 364.15 166.91 364.15 166.9C365.17 166.58 365.07 165.13 364.74 164.28Z" fill="#263238"/>
<path d="M363.74 163.45C362.22 163.59 362.63 166.62 364.03 166.45C365.43 166.28 365 163.33 363.74 163.45Z" fill="#263238"/>
<path d="M363.17 163.69C362.93 163.89 362.71 164.23 362.39 164.3C362.07 164.37 361.71 164.11 361.39 163.84H361.34C361.41 164.42 361.71 164.99 362.34 164.99C362.97 164.99 363.26 164.43 363.34 163.82C363.38 163.75 363.27 163.6 363.17 163.69Z" fill="#263238"/>
<path d="M369.89 163.14C369.89 163.14 369.97 163.14 369.97 163.22C370.06 164.16 370.32 165.22 371.21 165.43C370.15 165.47 369.82 164.05 369.89 163.14Z" fill="#263238"/>
<path d="M370.61 162.06C372.1 161.76 372.61 164.77 371.21 165.06C369.81 165.35 369.35 162.31 370.61 162.06Z" fill="#263238"/>
<path d="M371.27 162.15C371.53 162.27 371.82 162.52 372.1 162.5C372.38 162.48 372.63 162.1 372.79 161.75C372.9 162.32 372.79 162.95 372.27 163.15C371.75 163.35 371.33 162.9 371.1 162.35C371.11 162.28 371.16 162.1 371.27 162.15Z" fill="#263238"/>
<path d="M365.76 172.2C366.01 172.4 366.26 172.69 366.6 172.69C366.953 172.652 367.293 172.539 367.6 172.36C367.6 172.36 367.67 172.36 367.65 172.36C367.531 172.556 367.361 172.716 367.159 172.824C366.956 172.931 366.729 172.982 366.5 172.97C366.302 172.939 366.117 172.849 365.971 172.711C365.825 172.574 365.723 172.396 365.68 172.2C365.691 172.19 365.705 172.185 365.72 172.185C365.734 172.185 365.749 172.19 365.76 172.2Z" fill="#263238"/>
<path d="M369.19 168.25C369.19 168.25 369.58 169.62 369.68 170.25C369.68 170.31 369.53 170.37 369.31 170.41C368.759 170.594 368.169 170.623 367.603 170.494C367.037 170.366 366.517 170.084 366.1 169.68C366.04 169.62 366.1 169.54 366.18 169.57C367.11 170.026 368.162 170.17 369.18 169.98C369.18 169.79 368.43 167.65 368.53 167.63C369.05 167.604 369.571 167.644 370.08 167.75C369.34 164.88 368.14 162.14 367.45 159.26C367.449 159.241 367.455 159.222 367.465 159.207C367.475 159.191 367.491 159.179 367.508 159.172C367.526 159.166 367.545 159.165 367.564 159.17C367.582 159.175 367.598 159.185 367.61 159.2C368.986 162.084 370.068 165.099 370.84 168.2C370.89 168.63 369.47 168.33 369.19 168.25Z" fill="#263238"/>
<path d="M369.21 170.21C368.919 170.801 368.482 171.307 367.94 171.68C367.643 171.874 367.294 171.971 366.94 171.96C366.16 171.96 366 171.24 366.01 170.63C366.024 170.292 366.074 169.957 366.16 169.63C367.09 170.142 368.158 170.345 369.21 170.21Z" fill="#263238"/>
<path d="M367.94 171.68C367.643 171.874 367.294 171.971 366.94 171.96C366.16 171.96 366 171.24 366.01 170.63C366.403 170.562 366.808 170.629 367.158 170.819C367.508 171.01 367.784 171.313 367.94 171.68Z" fill="#FF9ABB"/>
<path d="M350.16 169C351.022 168.506 351.74 167.796 352.245 166.941C352.75 166.085 353.024 165.113 353.04 164.12C355.395 162.885 357.38 161.045 358.79 158.79C358.72 159.09 358.19 161.2 357.89 162.27C366.59 160.01 368.89 153.08 368.89 153.08C370.684 154.51 372.131 156.329 373.12 158.4C373.12 158.4 372.81 152.99 369.78 149.56C368.786 148.369 367.494 147.464 366.036 146.937C364.577 146.41 363.005 146.28 361.48 146.56C359.265 146.184 356.991 146.413 354.895 147.22C352.799 148.028 350.959 149.385 349.57 151.15C344.24 157.69 350.16 169 350.16 169Z" fill="#263238"/>
<path d="M364.49 160.3C363.127 161.181 361.641 161.854 360.08 162.3C362.512 161.451 364.659 159.942 366.28 157.94C366.97 157.069 367.548 156.115 368 155.1C368.543 154.029 368.863 152.858 368.94 151.66C368.94 151.641 368.947 151.624 368.961 151.61C368.974 151.597 368.992 151.59 369.01 151.59C369.029 151.59 369.046 151.597 369.06 151.61C369.073 151.624 369.08 151.641 369.08 151.66C369.123 152.851 368.967 154.04 368.62 155.18C368.227 156.3 367.63 157.337 366.86 158.24C366.175 159.035 365.381 159.729 364.5 160.3" fill="#263238"/>
<path d="M352.58 167.53C352.58 167.53 349 163.62 347.2 165C345.4 166.38 348.47 172.26 350.87 172.82C351.174 172.911 351.492 172.939 351.807 172.904C352.121 172.868 352.425 172.77 352.701 172.614C352.976 172.458 353.218 172.248 353.41 171.996C353.602 171.745 353.742 171.457 353.82 171.15L352.58 167.53Z" fill="#FFC4C0"/>
</g>
<defs>
<clipPath id="clip0_0_1">
<rect width="1300" height="7112" fill="white" transform="translate(-70 -2933)"/>
</clipPath>
</defs>
</svg>
