<svg width="512" height="512" viewBox="0 0 512 512" fill="none" xmlns="http://www.w3.org/2000/svg">
<path d="M256 511.667C397.201 511.667 511.667 397.201 511.667 256C511.667 114.799 397.201 0.333313 256 0.333313C114.799 0.333313 0.333496 114.799 0.333496 256C0.333496 397.201 114.799 511.667 256 511.667Z" fill="#712FFF" fill-opacity="0.37"/>
<path d="M435.172 120.423H425.243C424.354 115.583 423.086 110.876 421.474 106.331L430.067 101.37L413.266 72.2695L404.654 77.242C401.493 73.542 398.046 70.0954 394.346 66.9349L399.319 58.3227L370.218 41.5213L365.257 50.1142C360.712 48.5026 356.006 47.2346 351.166 46.3452V36.4164H317.563V46.3452C312.723 47.2343 308.016 48.5023 303.472 50.1142L298.511 41.5213L269.41 58.3227L274.382 66.9349C270.683 70.0954 267.236 73.5423 264.075 77.242L255.463 72.2695L238.662 101.371L247.254 106.332C245.643 110.876 244.375 115.583 243.485 120.423H233.557V154.025H243.486C244.375 158.865 245.643 163.572 247.254 168.117L238.662 173.078L255.463 202.178L264.075 197.206C267.236 200.906 270.682 204.352 274.383 207.513L269.41 216.125L298.511 232.927L303.472 224.334C308.016 225.945 312.723 227.213 317.563 228.102V238.031H351.166V228.102C356.006 227.213 360.712 225.945 365.257 224.334L370.218 232.927L399.318 216.125L394.346 207.513C398.046 204.352 401.492 200.905 404.653 197.206L413.265 202.178L430.066 173.077L421.474 168.116C423.086 163.572 424.354 158.865 425.243 154.025H435.171L435.172 120.423ZM390.019 139.046C389.089 168.202 365.343 191.948 336.187 192.879C303.992 193.907 277.681 167.596 278.709 135.402C279.639 106.246 303.385 82.4993 332.541 81.5685C364.736 80.5408 391.047 106.851 390.019 139.046Z" fill="white"/>
<path d="M334.367 211.346C293.496 211.346 260.245 178.095 260.245 137.224C260.245 119.366 266.685 102.115 278.38 88.6481C289.958 75.3152 305.899 66.5359 323.268 63.9278C323.605 63.8764 323.918 64.1095 323.968 64.4456C324.019 64.782 323.787 65.0955 323.45 65.1461C288.12 70.4517 261.477 101.438 261.477 137.224C261.477 177.415 294.175 210.113 334.367 210.113C367.576 210.113 396.589 187.693 404.923 155.591C405.008 155.262 405.345 155.064 405.674 155.15C406.003 155.235 406.201 155.572 406.115 155.901C397.641 188.546 368.136 211.346 334.367 211.346Z" fill="#F2E6DC"/>
<path d="M152.605 282.37C228.002 282.37 289.124 221.248 289.124 145.851C289.124 70.4532 228.002 9.33142 152.605 9.33142C77.2072 9.33142 16.0854 70.4532 16.0854 145.851C16.0854 221.248 77.2072 282.37 152.605 282.37Z" fill="#712FFF"/>
<mask id="mask0_12_8" style="mask-type:luminance" maskUnits="userSpaceOnUse" x="2" y="3" width="288" height="280">
<path d="M152.604 9.33137C138.419 9.33137 124.739 11.4963 111.877 15.5115C106.528 8.49312 98.0841 3.96069 88.5783 3.96069C72.4065 3.96069 59.2968 17.0707 59.2968 33.2428C59.2968 37.1331 60.0621 40.8432 61.4396 44.2395C38.8848 64.4889 23.1145 92.1361 17.9383 123.366C6.96643 127.181 2.78467 137.606 2.78467 149.878C2.78467 162.775 7.78903 173.632 19.6385 176.92C21.0549 183.007 22.8851 188.934 25.0855 194.677C19.524 200.252 16.0846 207.944 16.0846 216.44C16.0846 233.457 29.8797 247.253 46.8971 247.253C51.0693 247.253 55.0457 246.419 58.6745 244.916C83.1475 268.128 116.212 282.37 152.604 282.37C228.001 282.37 289.123 221.249 289.123 145.851C289.123 70.453 228.002 9.33137 152.604 9.33137Z" fill="white"/>
</mask>
<g mask="url(#mask0_12_8)">
<path d="M167.884 88.0926C161.039 70.3206 140.462 53.9859 140.462 53.9859C140.462 53.9859 101.099 45.5444 97.6818 72.6356C94.2651 99.727 70.8387 114.567 35.6769 119.313C0.515322 124.059 4.57554 161.633 4.57554 161.633L8.05149 165.408L11.801 148.65L11.8778 169.564L16.7643 174.871L22.0673 156.808C22.0673 156.808 23.8422 173.695 24.3979 183.161L39.5921 199.662L166.911 130.389C166.911 130.389 176.128 109.498 167.884 88.0926Z" fill="#363E44"/>
<path d="M17.4018 159.183C17.3775 159.183 17.3532 159.181 17.3286 159.179C16.9905 159.139 16.7488 158.832 16.789 158.494C18.0501 147.829 27.0023 140.039 34.9593 136.305C42.8092 132.621 51.5388 131.238 59.9805 129.901C61.1624 129.713 62.343 129.527 63.5202 129.334C72.435 127.872 82.6259 125.823 90.7399 119.979C97.6968 114.968 104.03 105.114 101.496 95.3208C101.411 94.9914 101.609 94.6556 101.939 94.5701C102.271 94.4868 102.604 94.6835 102.689 95.0124C105.368 105.366 98.7463 115.731 91.4602 120.979C83.1294 126.979 72.7728 129.065 63.7197 130.55C62.5408 130.743 61.3581 130.93 60.1736 131.118C51.8165 132.442 43.175 133.811 35.4829 137.42C27.8255 141.014 19.2147 148.475 18.0129 158.639C17.9757 158.952 17.7097 159.183 17.4018 159.183Z" fill="#40484C"/>
<path d="M34.3976 162.35C34.3568 162.35 34.3151 162.346 34.2735 162.337C33.9399 162.27 33.725 161.944 33.7935 161.611C35.6429 152.571 44.0573 145.166 56.3019 141.803C60.7734 140.575 65.4288 139.861 69.9311 139.17C75.4549 138.322 81.167 137.445 86.5069 135.614C95.7797 132.433 105.203 124.682 105.352 114.534C105.357 114.197 105.632 113.928 105.968 113.928C105.971 113.928 105.974 113.928 105.977 113.928C106.318 113.933 106.589 114.213 106.584 114.553C106.426 125.298 96.5872 133.459 86.9062 136.779C81.4623 138.646 75.6951 139.532 70.1177 140.388C65.6504 141.074 61.0308 141.783 56.6277 142.992C47.5268 145.491 37.0663 151.76 35.0003 161.858C34.9408 162.149 34.6843 162.35 34.3976 162.35Z" fill="#40484C"/>
<path d="M110.667 216.999L64.7709 237.471C50.3608 243.899 33.4184 238.657 25.1571 225.214C17.3141 212.451 19.5523 195.925 30.5211 185.723C41.9805 175.065 55.9405 162.503 63.9735 156.808C79.2877 145.949 110.667 216.999 110.667 216.999Z" fill="#1C1C1C"/>
<path d="M294.632 123.946C294.632 123.946 283.584 98.991 213.533 100.649L210.927 130.628L294.632 123.946Z" fill="#1C1C1C"/>
<path d="M213.535 100.649C213.535 100.649 117.744 112.538 62.0483 158.358L105.392 220.962L100.953 306.312C100.953 306.312 262.834 255.949 262.804 254.402C262.774 252.855 226.756 165.78 226.756 165.78L213.535 100.649Z" fill="#1C1C1C"/>
<path d="M107.984 133.326C107.984 133.326 144.683 213.036 159.453 287.707L236.828 263.393L187.288 106.992C187.288 106.992 139.207 111.912 107.984 133.326Z" fill="white"/>
<path d="M145.846 54.5433C153.927 68.5398 151.516 87.1803 138.613 94.6293C125.712 102.078 104.598 94.9104 96.5168 80.9138C88.4357 66.9172 92.3439 49.5322 105.246 42.0832C118.148 34.6342 137.765 40.5464 145.846 54.5433Z" fill="#363E44"/>
<path d="M125.715 92.0286L135.966 127.07L156.15 121.649L148.191 93.9361L125.715 92.0286Z" fill="#9E6C5A"/>
<path d="M120.827 128C120.827 128 141.434 112.262 166.91 111.924L163.268 153.88L120.827 128Z" fill="#9E6C5A"/>
<path d="M120.016 51.7609C120.966 51.1808 130.153 45.763 139.085 49.5122C145.731 52.3019 149.272 58.3001 153.692 69.2586C158.896 82.1635 160.204 90.6049 157.803 94.8135C154.008 101.463 132.758 100.999 121.07 93.1926C112.633 87.5579 108.246 77.161 109.357 67.0045C110.465 56.8762 119.409 52.1311 120.016 51.7609Z" fill="#9E6C5A"/>
<path d="M150.751 57.4703C150.781 57.558 150.865 57.6005 150.894 57.6885C150.896 57.6921 150.895 57.6955 150.895 57.6955C151.67 58.7458 152.488 59.8476 153.439 60.7347C153.861 61.1276 154.315 61.2474 154.754 61.5724C155.076 61.811 155.383 62.0407 155.71 62.2626C157.149 58.1962 156.504 54.1678 156.504 54.1678C156.504 54.1678 153.487 55.1578 150.751 57.4703Z" fill="white"/>
<mask id="mask1_12_8" style="mask-type:luminance" maskUnits="userSpaceOnUse" x="145" y="54" width="12" height="18">
<path d="M156.503 54.1678C156.503 54.1678 157.442 60.0169 154.54 64.7329C151.638 69.4492 145.994 71.2467 145.994 71.2467C145.994 71.2467 145.054 65.3976 147.956 60.6816C150.858 55.9656 156.503 54.1678 156.503 54.1678Z" fill="white"/>
</mask>
<g mask="url(#mask1_12_8)">
<path d="M155.305 61.2843C157.049 64.8838 155.545 69.2153 151.946 70.9591C148.347 72.703 144.015 71.1989 142.271 67.5997C140.527 64.0005 142.031 59.669 145.631 57.9249C149.23 56.1808 153.561 57.6849 155.305 61.2843Z" fill="#363E44"/>
</g>
<path d="M132.631 75.9196C133.277 77.315 134.023 78.2497 135.305 78.9753C138.502 77.1828 140.46 74.6368 140.46 74.6368C140.46 74.6368 136.225 72.3475 131.472 72.6661C131.572 73.7943 132.172 74.9293 132.631 75.9196Z" fill="white"/>
<mask id="mask2_12_8" style="mask-type:luminance" maskUnits="userSpaceOnUse" x="120" y="72" width="21" height="9">
<path d="M120.827 78.7134C120.827 78.7134 124.436 74.0161 129.858 72.8906C135.28 71.7648 140.461 74.6367 140.461 74.6367C140.461 74.6367 136.852 79.334 131.429 80.4597C126.008 81.5855 120.827 78.7134 120.827 78.7134Z" fill="white"/>
</mask>
<g mask="url(#mask2_12_8)">
<path d="M121.233 76.4491C122.654 72.7105 126.837 70.832 130.575 72.2531C134.314 73.6742 136.193 77.8571 134.771 81.5957C133.35 85.3343 129.167 87.2128 125.429 85.7917C121.69 84.3703 119.812 80.1877 121.233 76.4491Z" fill="#363E44"/>
</g>
<path d="M150.038 78.0344C150.01 78.0344 149.982 78.0328 149.953 78.0286C149.616 77.9822 149.38 77.6715 149.427 77.3345C149.511 76.7184 149.431 76.2392 149.188 75.9106C148.956 75.5949 148.623 75.4853 148.007 75.3029C147.537 75.1643 146.953 74.9916 146.309 74.632C145.487 74.1718 144.764 73.516 144.159 72.6822C143.959 72.4067 144.021 72.0217 144.296 71.8216C144.571 71.6221 144.957 71.6833 145.156 71.9585C145.656 72.647 146.246 73.1846 146.911 73.5568C147.434 73.8491 147.903 73.9876 148.356 74.1215C149.043 74.3243 149.691 74.5158 150.18 75.1796C150.62 75.7754 150.777 76.5566 150.648 77.5019C150.605 77.8106 150.341 78.0344 150.038 78.0344Z" fill="#363E44"/>
<path d="M149.082 86.6906C148.613 88.5814 146.7 89.734 144.809 89.2651C142.919 88.7962 141.766 86.8833 142.235 84.9925C142.704 83.1017 143.768 85.3725 145.659 85.8417C147.549 86.3105 149.551 84.8 149.082 86.6906Z" fill="#363E44"/>
<path d="M144.56 100.013C136.895 100.013 130.219 98.0261 129.908 97.9322C129.582 97.8339 129.398 97.4899 129.496 97.1641C129.594 96.8389 129.938 96.655 130.264 96.7523C130.346 96.7771 138.63 99.2419 147.105 98.7017C147.44 98.6783 147.738 98.9376 147.759 99.2776C147.781 99.6171 147.523 99.9099 147.184 99.9315C146.302 99.9879 145.424 100.013 144.56 100.013Z" fill="#363E44"/>
<path d="M110.664 46.9994C110.664 46.9994 114.122 32.8271 102.611 20.4975C91.0993 8.16767 80.0769 8.58148 70.5929 18.828C61.1087 29.0745 63.831 51.0652 97.4572 60.9085L110.664 46.9994Z" fill="#363E44"/>
<path d="M89.4666 48.3305C85.2898 48.3305 81.1036 47.0273 77.7537 44.5321C72.464 40.5923 69.4245 33.8016 70.0102 27.2314C70.0404 26.8925 70.3402 26.6466 70.6785 26.6726C71.0172 26.7031 71.2675 27.002 71.2374 27.341C70.6886 33.494 73.5353 39.8541 78.4894 43.5444C83.4437 47.2341 90.352 48.1402 96.091 45.8535C96.4067 45.7266 96.7655 45.8817 96.8912 46.1977C97.0172 46.5134 96.8633 46.8722 96.547 46.998C94.3005 47.8935 91.8849 48.3305 89.4666 48.3305Z" fill="#40484C"/>
<path d="M88.0604 53.6012C85.6635 53.6012 83.2639 52.9697 81.2127 51.7336C80.9213 51.5578 80.8274 51.1792 81.0031 50.888C81.1783 50.5963 81.5572 50.5027 81.8487 50.6785C85.0385 52.6009 89.1571 52.9096 92.5976 51.4849C92.913 51.3547 93.2721 51.5041 93.4026 51.8182C93.5328 52.1326 93.3836 52.493 93.0692 52.6232C91.4871 53.2784 89.7746 53.6012 88.0604 53.6012Z" fill="#40484C"/>
<path d="M135.099 48.4034C135.099 48.4034 125.717 46.5383 117.387 57.1654C111.05 65.2498 109.307 74.1439 117.849 82.4241L109.994 86.811C109.994 86.811 97.0419 65.5283 113.382 52.9873C117.942 49.4878 124.934 47.2243 135.099 48.4034Z" fill="#363E44"/>
<path d="M123.158 91.0482C124.086 86.5456 121.188 82.1435 116.686 81.2158C112.183 80.2881 107.781 83.1861 106.854 87.6887C105.926 92.1913 108.824 96.5934 113.326 97.5211C117.829 98.4488 122.231 95.5508 123.158 91.0482Z" fill="#9E6C5A"/>
<path d="M118.971 90.817C118.784 90.817 118.6 90.732 118.479 90.5717C118.466 90.554 117.146 88.8387 115.084 88.5573C113.769 88.3788 112.407 88.8161 111.04 89.8597C110.769 90.0656 110.382 90.0139 110.176 89.744C109.97 89.4735 110.022 89.0868 110.292 88.8803C111.935 87.6269 113.611 87.1097 115.265 87.3391C117.84 87.697 119.399 89.7451 119.464 89.8323C119.668 90.1045 119.613 90.4909 119.34 90.6946C119.229 90.777 119.1 90.817 118.971 90.817Z" fill="#363E44"/>
</g>
<path d="M487.902 213.063H97.4204V480.814H487.902V213.063Z" fill="white"/>
<path d="M472.789 251.845H112.532V346.612H472.789V251.845Z" fill="#F2E6DC"/>
<path d="M472.789 326.636H112.532V460.707H472.789V326.636Z" fill="#CAB2FF"/>
<path d="M467.299 117.862H173.126V238.031H467.299V117.862Z" fill="#555454"/>
<path d="M404.051 212.545C423.159 212.545 438.649 197.055 438.649 177.947C438.649 158.839 423.159 143.348 404.051 143.348C384.942 143.348 369.452 158.839 369.452 177.947C369.452 197.055 384.942 212.545 404.051 212.545Z" fill="white"/>
<path d="M353.262 156.232H210.754V172.567H353.262V156.232Z" fill="white"/>
<path d="M353.262 183.327H210.754V199.661H353.262V183.327Z" fill="white"/>
<path d="M189.5 167.162C184.179 165.259 163.322 153.795 154.151 160.029C144.914 166.308 141.47 178.162 141.941 189.321C141.973 189.353 142.009 189.388 142.041 189.42C143.456 192.169 145.994 196.065 150.432 198.612C155.492 201.514 158.175 199.883 163.992 202.114C173.809 205.881 175.745 214.51 179.082 212.855C181.372 211.718 180.462 206.642 178.427 202.228C176.337 197.695 173.078 195.644 173.564 194.986C174.097 194.264 177.138 196.776 181.206 199.553C183.096 200.844 186.104 207.583 189.462 206.491C192.14 205.622 190.765 197.833 186.168 192.689C182.916 189.05 178.221 188.419 178.512 187.577C178.731 186.945 181.52 187.39 183.809 188.49C187.586 190.304 190.738 197.165 193.81 196.101C196.819 195.058 195.499 188.277 191.57 183.278C188.258 179.063 182.988 178.609 183.345 177.561C183.595 176.823 185.996 176.536 190.978 177.455C195.136 178.222 202.727 182.394 204.179 178.163C205.401 174.605 197.533 170.035 189.5 167.162Z" fill="#9E6C5A"/>
<path d="M53.7128 176.799C42.0798 181.305 34.5087 192.895 35.5512 205.326C36.2347 213.477 40.6299 221.705 53.5778 226.159C85.1036 237.005 152.082 189.191 152.082 189.191L159.382 158.282C123.667 158.25 85.7329 164.397 53.7128 176.799Z" fill="#9E6C5A"/>
<path d="M165.186 301.694H51.933C51.5927 301.694 51.3169 301.418 51.3169 301.078V287.465C51.3169 287.125 51.5927 286.849 51.933 286.849H181.453C181.793 286.849 182.069 287.125 182.069 287.465C182.069 287.805 181.793 288.081 181.453 288.081H52.5494V300.462H165.186C165.526 300.462 165.802 300.738 165.802 301.078C165.802 301.418 165.526 301.694 165.186 301.694Z" fill="#D3BBA3"/>
<path d="M267.905 441.479H121.129C120.788 441.479 120.513 441.203 120.513 440.862C120.513 440.522 120.788 440.246 121.129 440.246H267.289V329.532C267.289 329.192 267.564 328.916 267.905 328.916C268.246 328.916 268.521 329.192 268.521 329.532V440.862C268.521 441.203 268.245 441.479 267.905 441.479Z" fill="white"/>
<path d="M91.3937 441.479H51.933C51.5927 441.479 51.3169 441.203 51.3169 440.862V287.465C51.3169 287.125 51.5927 286.849 51.933 286.849H181.453C181.794 286.849 182.069 287.125 182.069 287.465C182.069 287.805 181.794 288.081 181.453 288.081H52.5491V440.247H91.3937C91.734 440.247 92.0098 440.522 92.0098 440.863C92.0098 441.203 91.734 441.479 91.3937 441.479Z" fill="#D3BBA3"/>
<path d="M63.2497 292.099C65.7734 295.413 62.0273 299.159 58.7134 296.635C56.1891 293.32 59.9356 289.574 63.2497 292.099Z" fill="white"/>
<path d="M73.2549 292.098C75.7789 295.412 72.0327 299.159 68.7188 296.634C66.1946 293.321 69.9404 289.574 73.2549 292.098Z" fill="white"/>
<path d="M83.2605 292.099C85.7842 295.413 82.0381 299.159 78.7242 296.635C76.1997 293.32 79.9467 289.574 83.2605 292.099Z" fill="white"/>
<path d="M255.204 311.394H64.6313V428.726H255.204V311.394Z" fill="white"/>
<path d="M235.093 380.158H177.41C177.07 380.158 176.794 379.883 176.794 379.542C176.794 379.202 177.07 378.926 177.41 378.926H235.093C235.434 378.926 235.71 379.202 235.71 379.542C235.71 379.883 235.434 380.158 235.093 380.158Z" fill="#D3BBA3"/>
<path d="M166.589 380.158H145.974C145.634 380.158 145.358 379.883 145.358 379.542C145.358 379.202 145.634 378.926 145.974 378.926H166.589C166.929 378.926 167.205 379.202 167.205 379.542C167.205 379.883 166.929 380.158 166.589 380.158Z" fill="#D3BBA3"/>
<path d="M235.096 391.915H211.993C211.652 391.915 211.376 391.639 211.376 391.299C211.376 390.958 211.652 390.682 211.993 390.682H235.096C235.437 390.682 235.713 390.958 235.713 391.299C235.713 391.639 235.437 391.915 235.096 391.915Z" fill="#D3BBA3"/>
<path d="M201.497 391.915H145.974C145.634 391.915 145.358 391.639 145.358 391.299C145.358 390.958 145.634 390.682 145.974 390.682H201.497C201.837 390.682 202.113 390.958 202.113 391.299C202.113 391.639 201.837 391.915 201.497 391.915Z" fill="#D3BBA3"/>
<path d="M235.097 403.671H186.938C186.598 403.671 186.322 403.396 186.322 403.055C186.322 402.715 186.598 402.439 186.938 402.439H235.097C235.437 402.439 235.713 402.715 235.713 403.055C235.713 403.396 235.437 403.671 235.097 403.671Z" fill="#D3BBA3"/>
<path d="M164.582 403.671H145.974C145.634 403.671 145.358 403.396 145.358 403.055C145.358 402.715 145.634 402.439 145.974 402.439H164.582C164.922 402.439 165.198 402.715 165.198 403.055C165.198 403.396 164.922 403.671 164.582 403.671Z" fill="#D3BBA3"/>
<path d="M235.096 415.428H214.266C213.926 415.428 213.65 415.152 213.65 414.812C213.65 414.472 213.926 414.196 214.266 414.196H235.096C235.436 414.196 235.712 414.472 235.712 414.812C235.712 415.152 235.436 415.428 235.096 415.428Z" fill="#D3BBA3"/>
<path d="M192.705 415.428H145.974C145.634 415.428 145.358 415.152 145.358 414.812C145.358 414.472 145.634 414.196 145.974 414.196H192.705C193.046 414.196 193.322 414.472 193.322 414.812C193.322 415.152 193.046 415.428 192.705 415.428Z" fill="#D3BBA3"/>
<path d="M133.789 325.235H80.6196V414.812H133.789V325.235Z" fill="#F2E6DC"/>
<path d="M274.959 320.792H208.256C207.916 320.792 207.64 320.516 207.64 320.176V257.568C207.64 257.239 207.899 256.968 208.228 256.953C209.343 256.901 210.345 256.875 211.289 256.875C228.288 256.875 244.315 263.447 256.417 275.379C268.506 287.296 275.309 303.202 275.575 320.166C275.577 320.331 275.513 320.49 275.398 320.608C275.282 320.726 275.123 320.792 274.959 320.792ZM208.872 319.56H274.33C273.462 285.617 245.313 258.108 211.289 258.108C210.532 258.108 209.737 258.124 208.872 258.159V319.56Z" fill="#8B865C"/>
<path d="M203.859 367.29C181.691 367.29 163.657 349.255 163.657 327.087C163.657 305.578 180.475 287.941 201.945 286.933C202.116 286.93 202.278 286.987 202.4 287.103C202.521 287.219 202.59 287.38 202.59 287.548V325.843H243.43C243.766 325.843 244.041 326.113 244.046 326.449L244.053 326.704C244.058 326.831 244.062 326.959 244.062 327.087C244.062 349.255 226.027 367.29 203.859 367.29ZM201.358 288.2C180.856 289.496 164.889 306.454 164.889 327.088C164.889 348.576 182.371 366.058 203.859 366.058C225.348 366.058 242.83 348.576 242.83 327.088C242.83 327.083 242.83 327.08 242.83 327.075H201.974C201.634 327.075 201.358 326.8 201.358 326.459V288.2Z" fill="#8B865C"/>
<path d="M389.845 327.485C386.706 311.629 381.952 297.343 376.462 286.085L366.986 307.419L371.366 276.841C364.335 265.645 356.621 259.454 349.751 260.814C335.457 263.643 330.231 298.08 338.08 337.732C345.929 377.383 363.879 407.233 378.174 404.404C392.468 401.574 397.693 367.137 389.845 327.485Z" fill="#AC86FF"/>
<path d="M431.564 358.454L413.687 362.926L432.735 350.989C436.779 320.406 430.832 295.216 418.201 292.75C404.258 290.028 387.45 316.021 380.66 350.805C373.87 385.59 379.668 415.995 393.61 418.717C407.553 421.439 424.36 395.446 431.151 360.662C431.295 359.923 431.431 359.188 431.564 358.454Z" fill="#AC86FF"/>
<path d="M330.422 372.857L343.858 374.458L328.878 367.528C323.099 345.628 325.096 326.729 334.068 323.763C343.971 320.488 358.622 337.863 366.791 362.57C374.959 387.277 373.553 409.96 363.65 413.234C353.747 416.508 339.097 399.134 330.928 374.427C330.755 373.903 330.587 373.38 330.422 372.857Z" fill="#AC86FF"/>
<path d="M380.181 493.695C380.174 493.695 380.166 493.695 380.158 493.695C379.819 493.683 379.553 493.398 379.565 493.058C382.004 422.752 374.267 367.418 367.346 333.379C359.852 296.517 351.684 276.028 351.602 275.825C351.475 275.51 351.628 275.151 351.943 275.024C352.259 274.897 352.618 275.049 352.745 275.365C352.827 275.569 361.037 296.162 368.554 333.133C375.487 367.238 383.24 422.675 380.795 493.101C380.784 493.433 380.511 493.695 380.181 493.695Z" fill="white"/>
<path d="M385.214 493.87C385.203 493.87 385.191 493.869 385.18 493.869C384.84 493.851 384.58 493.561 384.598 493.221C389.945 392.095 410.225 315.912 410.429 315.154C410.517 314.825 410.858 314.63 411.184 314.72C411.513 314.809 411.707 315.147 411.619 315.475C411.415 316.232 391.168 392.298 385.828 493.286C385.811 493.615 385.539 493.87 385.214 493.87Z" fill="white"/>
<path d="M373.846 492.679C373.843 492.679 373.84 492.679 373.836 492.679C373.495 492.673 373.225 492.393 373.23 492.053C373.971 448.47 365.45 409.959 358.171 385.326C350.128 358.107 341.715 341.027 340.791 339.884C340.563 339.681 340.516 339.334 340.694 339.076C340.887 338.796 341.271 338.725 341.55 338.918C343.359 340.162 375.891 408.001 374.462 492.074C374.456 492.41 374.182 492.679 373.846 492.679Z" fill="white"/>
<path d="M348.153 445.393V474.606C348.153 495.074 364.746 511.667 385.214 511.667C405.683 511.667 422.276 495.074 422.276 474.606V445.393H348.153Z" fill="#712FFF"/>
</svg>
