<svg width="512" height="512" viewBox="0 0 512 512" fill="none" xmlns="http://www.w3.org/2000/svg">
<g clip-path="url(#clip0_253_102)">
<path d="M255.667 511.333C396.868 511.333 511.333 396.868 511.333 255.667C511.333 114.466 396.868 0 255.667 0C114.466 0 0 114.466 0 255.667C0 396.868 114.466 511.333 255.667 511.333Z" fill="#712FFF" fill-opacity="0.37"/>
<path d="M434.838 120.089H424.909C424.02 115.249 422.752 110.542 421.141 105.998L429.733 101.037L412.932 71.9361L404.32 76.9086C401.16 73.2086 397.713 69.762 394.013 66.6015L398.985 57.9893L369.884 41.188L364.923 49.7809C360.379 48.1692 355.672 46.9012 350.832 46.0118V36.083H317.23V46.0118C312.39 46.9009 307.683 48.1689 303.138 49.7809L298.177 41.188L269.077 57.9893L274.049 66.6015C270.349 69.762 266.902 73.2089 263.742 76.9086L255.129 71.9361L238.328 101.037L246.921 105.998C245.309 110.543 244.041 115.249 243.152 120.089H233.223V153.692H243.152C244.041 158.532 245.309 163.238 246.921 167.783L238.328 172.744L255.129 201.845L263.742 196.872C266.902 200.572 270.349 204.019 274.049 207.18L269.077 215.792L298.177 232.593L303.138 224C307.683 225.612 312.39 226.88 317.23 227.769V237.698H350.832V227.769C355.672 226.88 360.379 225.612 364.923 224L369.884 232.593L398.985 215.792L394.012 207.179C397.712 204.019 401.159 200.572 404.319 196.872L412.932 201.845L429.733 172.744L421.14 167.783C422.752 163.238 424.02 158.532 424.909 153.692H434.838L434.838 120.089ZM389.686 138.713C388.755 167.868 365.009 191.615 335.854 192.546C303.659 193.573 277.348 167.263 278.375 135.068C279.306 105.912 303.052 82.1659 332.207 81.2351C364.403 80.2074 390.714 106.518 389.686 138.713Z" fill="white"/>
<path d="M334.033 211.012C293.162 211.012 259.912 177.762 259.912 136.891C259.912 119.033 266.352 101.782 278.046 88.3148C289.624 74.9819 305.565 66.2026 322.934 63.5945C323.271 63.5431 323.585 63.7761 323.635 64.1123C323.686 64.4487 323.453 64.7622 323.117 64.8128C287.787 70.1183 261.144 101.105 261.144 136.891C261.144 177.082 293.842 209.78 334.033 209.78C367.242 209.78 396.256 187.36 404.589 155.258C404.675 154.928 405.012 154.731 405.34 154.817C405.67 154.902 405.867 155.238 405.782 155.568C397.307 188.213 367.803 211.012 334.033 211.012Z" fill="#F2E6DC"/>
<path d="M152.271 282.037C227.669 282.037 288.79 220.915 288.79 145.517C288.79 70.1198 227.669 8.99805 152.271 8.99805C76.8737 8.99805 15.752 70.1198 15.752 145.517C15.752 220.915 76.8737 282.037 152.271 282.037Z" fill="#712FFF"/>
<mask id="mask0_253_102" style="mask-type:luminance" maskUnits="userSpaceOnUse" x="2" y="3" width="287" height="280">
<path d="M152.27 8.99812C138.086 8.99812 124.406 11.163 111.544 15.1783C106.194 8.15987 97.7506 3.62744 88.2448 3.62744C72.073 3.62744 58.9633 16.7374 58.9633 32.9095C58.9633 36.7998 59.7286 40.5099 61.1061 43.9063C38.5513 64.1556 22.781 91.8028 17.6048 123.032C6.63293 126.848 2.45117 137.273 2.45117 149.545C2.45117 162.441 7.45553 173.299 19.3051 176.587C20.7214 182.673 22.5516 188.601 24.752 194.344C19.1905 199.918 15.7511 207.611 15.7511 216.107C15.7511 233.124 29.5462 246.919 46.5636 246.919C50.7358 246.919 54.7122 246.086 58.341 244.583C82.814 267.795 115.878 282.037 152.27 282.037C227.668 282.037 288.789 220.916 288.789 145.518C288.79 70.1198 227.668 8.99812 152.27 8.99812Z" fill="white"/>
</mask>
<g mask="url(#mask0_253_102)">
<path d="M167.55 87.7593C160.706 69.9872 140.128 53.6525 140.128 53.6525C140.128 53.6525 100.765 45.211 97.3483 72.3022C93.9316 99.3936 70.5052 114.234 35.3434 118.98C0.181826 123.726 4.24204 161.3 4.24204 161.3L7.71799 165.075L11.4675 148.317L11.5443 169.23L16.4308 174.537L21.7338 156.475C21.7338 156.475 23.5087 173.361 24.0644 182.828L39.2586 199.329L166.577 130.056C166.578 130.055 175.795 109.165 167.55 87.7593Z" fill="#363E44"/>
<path d="M17.0683 158.849C17.044 158.849 17.0197 158.848 16.9951 158.845C16.657 158.805 16.4153 158.499 16.4555 158.161C17.7166 147.496 26.6688 139.705 34.6258 135.971C42.4757 132.287 51.2053 130.905 59.647 129.567C60.829 129.38 62.0095 129.193 63.1867 129C72.1015 127.539 82.2924 125.49 90.4064 119.646C97.3633 114.634 103.697 104.78 101.163 94.9874C101.078 94.658 101.276 94.3221 101.605 94.2366C101.938 94.1534 102.271 94.35 102.356 94.6789C105.035 105.032 98.4128 115.397 91.1267 120.646C82.7959 126.646 72.4393 128.732 63.3862 130.216C62.2073 130.41 61.0246 130.597 59.8401 130.785C51.483 132.109 42.8415 133.477 35.1494 137.087C27.492 140.681 18.8812 148.142 17.6794 158.306C17.6422 158.619 17.3762 158.849 17.0683 158.849Z" fill="#40484C"/>
<path d="M34.0641 162.017C34.0233 162.017 33.9816 162.013 33.94 162.004C33.6064 161.936 33.3915 161.611 33.46 161.277C35.3094 152.237 43.7238 144.833 55.9684 141.47C60.4399 140.242 65.0953 139.528 69.5976 138.837C75.1214 137.988 80.8335 137.112 86.1734 135.28C95.4462 132.1 104.87 124.349 105.019 114.201C105.024 113.864 105.298 113.594 105.635 113.594C105.638 113.594 105.641 113.594 105.644 113.594C105.984 113.599 106.256 113.879 106.251 114.219C106.093 124.965 96.2537 133.126 86.5727 136.446C81.1288 138.313 75.3616 139.198 69.7842 140.054C65.3169 140.74 60.6973 141.449 56.2942 142.659C47.1933 145.158 36.7328 151.426 34.6668 161.524C34.6073 161.816 34.3508 162.017 34.0641 162.017Z" fill="#40484C"/>
<path d="M110.333 216.666L64.4374 237.138C50.0273 243.566 33.0849 238.323 24.8236 224.88C16.9807 212.118 19.2188 195.591 30.1876 185.39C41.647 174.732 55.607 162.17 63.64 156.474C78.9542 145.616 110.333 216.666 110.333 216.666Z" fill="#1C1C1C"/>
<path d="M294.299 123.613C294.299 123.613 283.251 98.6576 213.199 100.316L210.594 130.295L294.299 123.613Z" fill="#1C1C1C"/>
<path d="M213.201 100.316C213.201 100.316 117.411 112.204 61.7148 158.025L105.058 220.628L100.62 305.978C100.62 305.978 262.5 255.616 262.47 254.069C262.441 252.521 226.422 165.447 226.422 165.447L213.201 100.316Z" fill="#1C1C1C"/>
<path d="M107.65 132.993C107.65 132.993 144.35 212.703 159.119 287.373L236.495 263.06L186.954 106.658C186.954 106.658 138.874 111.579 107.65 132.993Z" fill="white"/>
<path d="M145.512 54.2099C153.593 68.2064 151.182 86.8469 138.28 94.2959C125.378 101.745 104.264 94.577 96.1833 80.5804C88.1022 66.5839 92.0104 49.1988 104.913 41.7498C117.815 34.3009 137.431 40.213 145.512 54.2099Z" fill="#363E44"/>
<path d="M125.382 91.6951L135.632 126.736L155.816 121.316L147.858 93.6026L125.382 91.6951Z" fill="#9E6C5A"/>
<path d="M120.493 127.667C120.493 127.667 141.101 111.928 166.576 111.591L162.935 153.547L120.493 127.667Z" fill="#9E6C5A"/>
<path d="M119.682 51.4276C120.633 50.8475 129.82 45.4296 138.751 49.1788C145.397 51.9685 148.939 57.9668 153.358 68.9252C158.563 81.8301 159.871 90.2716 157.469 94.4802C153.675 101.13 132.425 100.666 120.736 92.8593C112.299 87.2245 107.912 76.8277 109.023 66.6712C110.131 56.5429 119.075 51.7978 119.682 51.4276Z" fill="#9E6C5A"/>
<path d="M150.418 57.1369C150.447 57.2246 150.531 57.2671 150.561 57.3551C150.562 57.3588 150.562 57.3621 150.562 57.3621C151.336 58.4124 152.155 59.5142 153.106 60.4013C153.527 60.7942 153.982 60.9141 154.421 61.239C154.743 61.4776 155.05 61.7073 155.377 61.9292C156.815 57.8628 156.17 53.8345 156.17 53.8345C156.17 53.8345 153.153 54.8245 150.418 57.1369Z" fill="white"/>
<mask id="mask1_253_102" style="mask-type:luminance" maskUnits="userSpaceOnUse" x="145" y="53" width="12" height="18">
<path d="M156.169 53.8345C156.169 53.8345 157.109 59.6835 154.207 64.3995C151.305 69.1158 145.66 70.9133 145.66 70.9133C145.66 70.9133 144.721 65.0643 147.623 60.3482C150.525 55.6322 156.169 53.8345 156.169 53.8345Z" fill="white"/>
</mask>
<g mask="url(#mask1_253_102)">
<path d="M154.972 60.9509C156.716 64.5503 155.212 68.8818 151.613 70.6257C148.013 72.3695 143.682 70.8654 141.938 67.2663C140.194 63.6671 141.698 59.3356 145.297 57.5914C148.896 55.8473 153.228 57.3514 154.972 60.9509Z" fill="#363E44"/>
</g>
<path d="M132.297 75.5862C132.943 76.9816 133.689 77.9162 134.971 78.6419C138.168 76.8494 140.127 74.3034 140.127 74.3034C140.127 74.3034 135.891 72.0141 131.139 72.3327C131.239 73.4609 131.839 74.5959 132.297 75.5862Z" fill="white"/>
<mask id="mask2_253_102" style="mask-type:luminance" maskUnits="userSpaceOnUse" x="120" y="72" width="21" height="9">
<path d="M120.493 78.38C120.493 78.38 124.103 73.6828 129.524 72.5573C134.946 71.4315 140.128 74.3033 140.128 74.3033C140.128 74.3033 136.518 79.0006 131.096 80.1264C125.674 81.2522 120.493 78.38 120.493 78.38Z" fill="white"/>
</mask>
<g mask="url(#mask2_253_102)">
<path d="M120.899 76.1156C122.321 72.377 126.503 70.4985 130.242 71.9196C133.981 73.3407 135.859 77.5236 134.438 81.2622C133.017 85.0008 128.834 86.8793 125.095 85.4582C121.357 84.0368 119.478 79.8542 120.899 76.1156Z" fill="#363E44"/>
</g>
<path d="M149.705 77.7012C149.677 77.7012 149.648 77.6995 149.62 77.6953C149.283 77.6489 149.047 77.3382 149.093 77.0013C149.178 76.3851 149.097 75.9059 148.855 75.5773C148.622 75.2616 148.29 75.1521 147.673 74.9696C147.204 74.831 146.619 74.6583 145.976 74.2987C145.154 73.8385 144.431 73.1827 143.825 72.349C143.626 72.0734 143.687 71.6884 143.962 71.4884C144.238 71.2889 144.623 71.35 144.823 71.6253C145.322 72.3138 145.913 72.8513 146.577 73.2235C147.1 73.5158 147.569 73.6544 148.023 73.7882C148.709 73.9911 149.358 74.1825 149.847 74.8464C150.286 75.4421 150.444 76.2234 150.314 77.1686C150.272 77.4774 150.008 77.7012 149.705 77.7012Z" fill="#363E44"/>
<path d="M148.749 86.3571C148.28 88.2479 146.367 89.4005 144.476 88.9316C142.585 88.4628 141.433 86.5499 141.901 84.6591C142.37 82.7682 143.434 85.0391 145.325 85.5082C147.216 85.9771 149.218 84.4666 148.749 86.3571Z" fill="#363E44"/>
<path d="M144.226 99.6799C136.561 99.6799 129.885 97.6927 129.574 97.5988C129.248 97.5004 129.064 97.1565 129.163 96.8307C129.261 96.5054 129.604 96.3216 129.93 96.4188C130.013 96.4437 138.296 98.9084 146.772 98.3683C147.106 98.3448 147.404 98.6041 147.426 98.9442C147.447 99.2837 147.19 99.5765 146.85 99.598C145.969 99.6545 145.091 99.6799 144.226 99.6799Z" fill="#363E44"/>
<path d="M110.33 46.666C110.33 46.666 113.789 32.4937 102.277 20.1641C90.7658 7.83429 79.7434 8.24811 70.2594 18.4946C60.7752 28.7411 63.4975 50.7318 97.1237 60.5751L110.33 46.666Z" fill="#363E44"/>
<path d="M89.1331 47.9972C84.9563 47.9972 80.7701 46.694 77.4202 44.1988C72.1305 40.259 69.091 33.4683 69.6767 26.8981C69.7069 26.5592 70.0067 26.3133 70.345 26.3393C70.6837 26.3697 70.9341 26.6687 70.9039 27.0077C70.3551 33.1607 73.2018 39.5208 78.1559 43.211C83.1102 46.9007 90.0185 47.8069 95.7575 45.5202C96.0732 45.3933 96.432 45.5484 96.5577 45.8644C96.6837 46.1801 96.5298 46.5389 96.2135 46.6646C93.967 47.5602 91.5514 47.9972 89.1331 47.9972Z" fill="#40484C"/>
<path d="M87.7269 53.2677C85.3301 53.2677 82.9304 52.6362 80.8792 51.4001C80.5878 51.2243 80.4939 50.8457 80.6696 50.5546C80.8448 50.2629 81.2237 50.1693 81.5152 50.345C84.705 52.2674 88.8236 52.5761 92.2641 51.1514C92.5795 51.0212 92.9386 51.1707 93.0691 51.4847C93.1993 51.7991 93.0501 52.1595 92.7357 52.2897C91.1537 52.945 89.4411 53.2677 87.7269 53.2677Z" fill="#40484C"/>
<path d="M134.765 48.0701C134.765 48.0701 125.384 46.205 117.053 56.8321C110.716 64.9165 108.974 73.8106 117.515 82.0909L109.661 86.4777C109.661 86.4777 96.7084 65.1951 113.049 52.654C117.609 49.1546 124.6 46.891 134.765 48.0701Z" fill="#363E44"/>
<path d="M122.825 90.7149C123.753 86.2123 120.855 81.8102 116.352 80.8825C111.85 79.9548 107.448 82.8528 106.52 87.3554C105.592 91.858 108.49 96.2601 112.993 97.1878C117.495 98.1155 121.897 95.2175 122.825 90.7149Z" fill="#9E6C5A"/>
<path d="M118.638 90.4837C118.451 90.4837 118.266 90.3988 118.145 90.2384C118.132 90.2208 116.812 88.5054 114.75 88.224C113.435 88.0455 112.074 88.4828 110.706 89.5264C110.435 89.7323 110.049 89.6806 109.843 89.4107C109.636 89.1402 109.688 88.7535 109.958 88.547C111.601 87.2936 113.277 86.7764 114.931 87.0058C117.506 87.3637 119.065 89.4119 119.131 89.499C119.335 89.7712 119.279 90.1576 119.006 90.3613C118.896 90.4437 118.766 90.4837 118.638 90.4837Z" fill="#363E44"/>
</g>
<path d="M487.569 212.73H97.0869V480.481H487.569V212.73Z" fill="white"/>
<path d="M472.456 251.512H112.199V346.278H472.456V251.512Z" fill="#F2E6DC"/>
<path d="M472.456 326.302H112.199V460.374H472.456V326.302Z" fill="#CAB2FF"/>
<path d="M466.965 117.529H172.793V237.698H466.965V117.529Z" fill="#555454"/>
<path d="M403.717 212.212C422.825 212.212 438.315 196.722 438.315 177.614C438.315 158.505 422.825 143.015 403.717 143.015C384.608 143.015 369.118 158.505 369.118 177.614C369.118 196.722 384.608 212.212 403.717 212.212Z" fill="white"/>
<path d="M352.928 155.899H210.421V172.233H352.928V155.899Z" fill="white"/>
<path d="M352.928 182.994H210.421V199.328H352.928V182.994Z" fill="white"/>
<path d="M189.167 166.829C183.845 164.926 162.988 153.462 153.817 159.696C144.581 165.975 141.136 177.828 141.607 188.988C141.639 189.019 141.675 189.055 141.708 189.086C143.122 191.835 145.66 195.732 150.098 198.278C155.158 201.181 157.841 199.549 163.658 201.781C173.475 205.548 175.411 214.177 178.748 212.521C181.039 211.385 180.128 206.308 178.093 201.894C176.004 197.362 172.745 195.31 173.231 194.652C173.763 193.931 176.804 196.443 180.872 199.22C182.762 200.51 185.771 207.249 189.129 206.158C191.806 205.288 190.432 197.5 185.835 192.356C182.582 188.717 177.887 188.086 178.179 187.243C178.398 186.612 181.186 187.057 183.475 188.156C187.253 189.97 190.404 196.831 193.476 195.767C196.485 194.725 195.165 187.943 191.237 182.945C187.924 178.73 182.655 178.276 183.011 177.228C183.262 176.49 185.663 176.203 190.645 177.121C194.802 177.888 202.393 182.061 203.846 177.83C205.067 174.272 197.199 169.701 189.167 166.829Z" fill="#9E6C5A"/>
<path d="M53.3793 176.466C41.7463 180.972 34.1752 192.562 35.2177 204.993C35.9012 213.143 40.2964 221.371 53.2443 225.826C84.7701 236.672 151.748 188.858 151.748 188.858L159.048 157.949C123.333 157.916 85.3994 164.063 53.3793 176.466Z" fill="#9E6C5A"/>
<path d="M164.852 301.361H51.5995C51.2592 301.361 50.9834 301.085 50.9834 300.745V287.132C50.9834 286.791 51.2592 286.516 51.5995 286.516H181.119C181.46 286.516 181.736 286.791 181.736 287.132C181.736 287.472 181.46 287.748 181.119 287.748H52.2159V300.129H164.852C165.193 300.129 165.468 300.404 165.468 300.745C165.468 301.085 165.192 301.361 164.852 301.361Z" fill="#D3BBA3"/>
<path d="M267.571 441.145H120.795C120.455 441.145 120.179 440.869 120.179 440.529C120.179 440.189 120.455 439.913 120.795 439.913H266.955V329.199C266.955 328.859 267.231 328.583 267.572 328.583C267.912 328.583 268.188 328.859 268.188 329.199V440.529C268.187 440.869 267.912 441.145 267.571 441.145Z" fill="white"/>
<path d="M91.0602 441.145H51.5995C51.2592 441.145 50.9834 440.869 50.9834 440.529V287.132C50.9834 286.791 51.2592 286.516 51.5995 286.516H181.12C181.46 286.516 181.736 286.791 181.736 287.132C181.736 287.472 181.46 287.748 181.12 287.748H52.2156V439.913H91.0602C91.4005 439.913 91.6763 440.189 91.6763 440.529C91.6763 440.869 91.4005 441.145 91.0602 441.145Z" fill="#D3BBA3"/>
<path d="M62.9162 291.765C65.4399 295.079 61.6938 298.825 58.3799 296.301C55.8556 292.987 59.6021 289.241 62.9162 291.765Z" fill="white"/>
<path d="M72.9214 291.765C75.4454 295.079 71.6992 298.825 68.3853 296.301C65.8611 292.987 69.607 289.241 72.9214 291.765Z" fill="white"/>
<path d="M82.9271 291.765C85.4507 295.08 81.7046 298.825 78.3907 296.302C75.8662 292.987 79.6132 289.241 82.9271 291.765Z" fill="white"/>
<path d="M254.87 311.06H64.2979V428.393H254.87V311.06Z" fill="white"/>
<path d="M234.76 379.825H177.077C176.736 379.825 176.46 379.549 176.46 379.209C176.46 378.869 176.736 378.593 177.077 378.593H234.76C235.1 378.593 235.376 378.869 235.376 379.209C235.376 379.549 235.1 379.825 234.76 379.825Z" fill="#D3BBA3"/>
<path d="M166.256 379.825H145.641C145.3 379.825 145.024 379.549 145.024 379.209C145.024 378.869 145.3 378.593 145.641 378.593H166.256C166.596 378.593 166.872 378.869 166.872 379.209C166.872 379.549 166.596 379.825 166.256 379.825Z" fill="#D3BBA3"/>
<path d="M234.763 391.581H211.659C211.319 391.581 211.043 391.306 211.043 390.965C211.043 390.625 211.319 390.349 211.659 390.349H234.763C235.103 390.349 235.379 390.625 235.379 390.965C235.379 391.306 235.103 391.581 234.763 391.581Z" fill="#D3BBA3"/>
<path d="M201.163 391.581H145.641C145.3 391.581 145.024 391.306 145.024 390.965C145.024 390.625 145.3 390.349 145.641 390.349H201.163C201.504 390.349 201.779 390.625 201.779 390.965C201.779 391.306 201.503 391.581 201.163 391.581Z" fill="#D3BBA3"/>
<path d="M234.763 403.338H186.605C186.265 403.338 185.989 403.062 185.989 402.722C185.989 402.382 186.265 402.106 186.605 402.106H234.763C235.104 402.106 235.379 402.382 235.379 402.722C235.379 403.062 235.104 403.338 234.763 403.338Z" fill="#D3BBA3"/>
<path d="M164.248 403.338H145.641C145.3 403.338 145.024 403.062 145.024 402.722C145.024 402.382 145.3 402.106 145.641 402.106H164.248C164.588 402.106 164.864 402.382 164.864 402.722C164.864 403.062 164.588 403.338 164.248 403.338Z" fill="#D3BBA3"/>
<path d="M234.762 415.095H213.933C213.593 415.095 213.317 414.819 213.317 414.479C213.317 414.138 213.593 413.863 213.933 413.863H234.762C235.103 413.863 235.379 414.138 235.379 414.479C235.379 414.819 235.103 415.095 234.762 415.095Z" fill="#D3BBA3"/>
<path d="M192.372 415.095H145.641C145.3 415.095 145.024 414.819 145.024 414.479C145.024 414.138 145.3 413.863 145.641 413.863H192.372C192.712 413.863 192.988 414.138 192.988 414.479C192.988 414.819 192.712 415.095 192.372 415.095Z" fill="#D3BBA3"/>
<path d="M133.455 324.902H80.2861V414.479H133.455V324.902Z" fill="#F2E6DC"/>
<path d="M274.625 320.458H207.923C207.582 320.458 207.307 320.183 207.307 319.842V257.235C207.307 256.906 207.565 256.635 207.894 256.62C209.01 256.568 210.011 256.542 210.956 256.542C227.954 256.542 243.981 263.113 256.084 275.045C268.173 286.963 274.976 302.869 275.241 319.833C275.244 319.998 275.18 320.157 275.064 320.274C274.948 320.392 274.79 320.458 274.625 320.458ZM208.539 319.227H273.996C273.128 285.284 244.979 257.775 210.956 257.775C210.199 257.775 209.403 257.791 208.539 257.825V319.227Z" fill="#8B865C"/>
<path d="M203.526 366.957C181.358 366.957 163.323 348.922 163.323 326.754C163.323 305.245 180.142 287.607 201.612 286.6C201.782 286.597 201.944 286.654 202.066 286.77C202.188 286.886 202.257 287.047 202.257 287.215V325.51H243.096C243.433 325.51 243.707 325.78 243.712 326.116L243.72 326.371C243.724 326.498 243.728 326.626 243.728 326.754C243.728 348.922 225.694 366.957 203.526 366.957ZM201.025 287.867C180.523 289.162 164.555 306.121 164.555 326.754C164.555 348.243 182.037 365.725 203.526 365.725C225.014 365.725 242.496 348.243 242.496 326.754C242.496 326.75 242.496 326.746 242.496 326.742H201.641C201.3 326.742 201.025 326.466 201.025 326.126V287.867Z" fill="#8B865C"/>
<path d="M389.512 327.152C386.373 311.296 381.619 297.01 376.129 285.752L366.653 307.085L371.033 276.507C364.002 265.311 356.288 259.121 349.418 260.48C335.124 263.31 329.898 297.747 337.747 337.399C345.595 377.05 363.546 406.9 377.841 404.07C392.135 401.241 397.36 366.803 389.512 327.152Z" fill="#AC86FF"/>
<path d="M431.231 358.121L413.354 362.593L432.402 350.655C436.446 320.072 430.499 294.883 417.867 292.417C403.924 289.695 387.117 315.687 380.327 350.472C373.536 385.257 379.334 415.662 393.277 418.383C407.219 421.105 424.027 395.113 430.817 360.328C430.961 359.59 431.098 358.854 431.231 358.121Z" fill="#AC86FF"/>
<path d="M330.089 372.524L343.525 374.125L328.545 367.195C322.766 345.294 324.763 326.396 333.735 323.429C343.638 320.155 358.289 337.529 366.458 362.236C374.626 386.943 373.22 409.626 363.317 412.901C353.414 416.175 338.764 398.8 330.595 374.093C330.422 373.569 330.254 373.046 330.089 372.524Z" fill="#AC86FF"/>
<path d="M379.848 493.362C379.84 493.362 379.833 493.362 379.825 493.361C379.486 493.35 379.22 493.064 379.232 492.724C381.671 422.419 373.934 367.085 367.013 333.045C359.519 296.183 351.351 275.695 351.269 275.492C351.142 275.177 351.295 274.818 351.61 274.69C351.926 274.564 352.285 274.715 352.412 275.032C352.494 275.236 360.704 295.829 368.221 332.8C375.154 366.904 382.907 422.342 380.462 492.767C380.451 493.1 380.178 493.362 379.848 493.362Z" fill="white"/>
<path d="M384.881 493.536C384.87 493.536 384.858 493.536 384.847 493.535C384.507 493.518 384.247 493.228 384.265 492.888C389.612 391.762 409.892 315.579 410.096 314.821C410.184 314.492 410.525 314.297 410.851 314.387C411.18 314.475 411.374 314.813 411.286 315.142C411.082 315.898 390.835 391.964 385.495 492.953C385.478 493.282 385.206 493.536 384.881 493.536Z" fill="white"/>
<path d="M373.514 492.346C373.51 492.346 373.507 492.346 373.503 492.346C373.163 492.34 372.892 492.059 372.898 491.719C373.639 448.137 365.118 409.626 357.838 384.993C349.795 357.774 341.383 340.694 340.458 339.551C340.23 339.347 340.184 339.001 340.361 338.742C340.554 338.462 340.939 338.391 341.218 338.584C343.026 339.828 375.559 407.668 374.13 491.741C374.124 492.077 373.849 492.346 373.514 492.346Z" fill="white"/>
<path d="M347.82 445.059V474.272C347.82 494.741 364.413 511.333 384.881 511.333C405.35 511.333 421.943 494.74 421.943 474.272V445.059H347.82Z" fill="#712FFF"/>
</g>
<defs>
<clipPath id="clip0_253_102">
<rect width="511.33" height="511.33" fill="white"/>
</clipPath>
</defs>
</svg>
