<svg width="115" height="56" viewBox="0 0 115 56" fill="none" xmlns="http://www.w3.org/2000/svg">
<path d="M57.8475 19.3564L45.261 4.48149H37.9053L57.9292 28.1015V19.3564H57.8475Z" fill="#233F52"/>
<path d="M64.3056 28.1015L77.8729 4.48149H71.4162L57.8489 28.1015H64.3056Z" fill="#233F52"/>
<path d="M51.1474 32.3513C51.3109 34.3945 53.5176 35.1301 54.6619 34.558C57.5224 33.2504 55.4792 28.1013 48.6955 27.9379V28.0197C50.0033 28.183 50.984 28.7552 51.3109 29.6542C51.8013 30.8802 51.0657 31.207 51.1474 32.3513Z" fill="#233F52"/>
<path d="M42.4803 48.8611C42.5621 47.8803 43.2159 47.1447 42.8889 45.837C42.3986 44.039 40.6005 43.9573 40.1919 43.9573C38.3938 43.9573 37.1678 45.5101 38.2303 47.7168C38.2303 47.7168 39.7832 51.2313 45.9129 51.5581V51.4764C42.5621 50.9861 42.4803 49.5967 42.4803 48.8611Z" fill="#233F52"/>
<path d="M66.7576 4.56322L57.8489 4.48149V12.5728H57.9307C58.2576 9.79395 59.8922 4.97187 66.7576 4.56322Z" fill="#233F52"/>
<path d="M69.7808 28.0193H77.7904V19.1925H77.7086C77.3818 21.6443 75.9106 27.4472 68.4732 28.0193C71.9876 28.5915 72.151 35.2933 72.3145 39.6249V39.7884C72.2327 44.2019 71.9876 50.822 68.4732 51.3941V51.4758C68.4732 51.4758 69.4539 51.4758 69.6174 51.4758C74.1125 51.1489 78.4442 47.2259 78.4442 39.7884C78.5259 32.2693 74.1126 28.1827 69.7808 28.0193Z" fill="#233F52"/>
<path d="M66.5114 28.101C66.5114 28.0193 66.348 28.0193 65.5307 28.0193C60.9538 28.0193 56.4587 32.2693 56.4587 39.7884C56.4587 40.524 56.5404 41.2595 56.622 41.9135C53.4346 36.4375 41.8289 36.1106 41.8289 31.7788C41.8289 28.101 45.5886 28.0193 46.4875 28.0193V27.9375C39.7857 27.0386 38.2328 21.5627 37.9058 19.1925H37.8242V28.101H45.5068C39.8674 28.2645 37.3338 31.125 37.3338 34.149C37.252 42.5673 53.4347 42.4038 53.1077 47.5528C53.1077 47.5528 53.3529 50.7402 50.0837 51.5575V51.6393C51.7183 51.4758 57.3577 50.0047 57.4393 45.3461C58.9922 49.2691 62.098 51.3941 65.3672 51.6393C65.5307 51.6393 66.5114 51.6393 66.5114 51.6393V51.5575C62.997 50.9855 62.8336 44.2836 62.6701 39.9519V39.7884C62.8336 35.2933 62.997 28.6731 66.5114 28.101Z" fill="#233F52"/>
</svg>
