<svg width="115" height="56" viewBox="0 0 115 56" fill="none" xmlns="http://www.w3.org/2000/svg">
<path d="M104.645 35.1056C104.645 33.5543 105.873 32.3264 107.425 32.3264C108.976 32.3264 110.204 33.5543 110.204 35.1056C110.204 36.6568 108.976 37.8849 107.425 37.8849C105.873 37.8849 104.645 36.6568 104.645 35.1056Z" fill="#233F52"/>
<path d="M15.5772 27.7372C15.5772 25.9921 15.2541 24.6348 14.5431 23.7945C13.8321 22.9542 12.7979 22.5018 11.4406 22.5018H9.954V33.2958H11.1174C12.6686 33.2958 13.7675 32.8433 14.5431 31.9385C15.2541 31.0335 15.5772 29.6116 15.5772 27.7372ZM20.8773 27.5433C20.8773 30.775 20.037 33.2312 18.2919 34.9763C16.5468 36.7215 14.1553 37.5617 10.9882 37.5617H4.91243V18.2359H11.4406C14.4784 18.2359 16.8054 19.0115 18.4212 20.6273C20.037 22.2432 20.8773 24.5701 20.8773 27.5433Z" fill="#233F52"/>
<path d="M37.7461 37.6263H42.5937V18.2359H37.7461V37.6263Z" fill="#233F52"/>
<path d="M49.4465 30.3874C49.4465 31.6155 49.5757 32.5849 49.8989 33.2313C50.222 33.8777 50.7391 34.2008 51.5148 34.2008C52.2904 34.2008 52.8075 33.8777 53.1306 33.2313C53.4538 32.5849 53.583 31.6155 53.583 30.3874C53.583 29.1593 53.4538 28.2544 53.1306 27.608C52.8075 26.9617 52.2904 26.6385 51.5148 26.6385C50.7391 26.6385 50.222 26.9618 49.8989 27.5435C49.5757 28.1897 49.4465 29.1593 49.4465 30.3874ZM58.5599 30.3874C58.5599 32.7142 57.9136 34.5887 56.6855 35.8813C55.4575 37.174 53.7123 37.885 51.5148 37.885C49.3818 37.885 47.7014 37.2386 46.4086 35.8813C45.1159 34.524 44.5341 32.7142 44.5341 30.3874C44.5341 28.0605 45.1806 26.1861 46.4086 24.8934C47.6367 23.6007 49.3818 22.9544 51.644 22.9544C53.0013 22.9544 54.2294 23.2775 55.3282 23.8593C56.3623 24.441 57.2026 25.3458 57.7843 26.4446C58.2367 27.5434 58.5599 28.9007 58.5599 30.3874Z" fill="#233F52"/>
<path d="M60.498 37.6267H65.3456V30.1937V23.2132H60.498V37.6267Z" fill="#233F52"/>
<path d="M60.498 21.4676H65.3456V18.2359H60.498V21.4676Z" fill="#233F52"/>
<path d="M75.1693 33.9416C75.8157 33.9416 76.5912 33.7477 77.496 33.4245V37.0441C76.8497 37.3026 76.2034 37.5612 75.6217 37.6904C75.04 37.8197 74.329 37.8843 73.5535 37.8843C71.9376 37.8843 70.7742 37.4965 69.9985 36.6562C69.2875 35.8159 68.8996 34.588 68.8996 32.9075V26.9611H67.2192V23.2122H68.8996V19.528L73.8119 18.6878V23.2122H76.9144V26.9611H73.8119V32.5842C73.8766 33.4892 74.2645 33.9416 75.1693 33.9416Z" fill="#233F52"/>
<path d="M86.4161 33.9416C87.0625 33.9416 87.8381 33.7477 88.7431 33.4245V37.0441C88.0967 37.3026 87.4503 37.5612 86.8685 37.6904C86.2868 37.8197 85.5759 37.8843 84.8003 37.8843C83.1844 37.8843 82.021 37.4965 81.2454 36.6562C80.4697 35.8159 80.1466 34.588 80.1466 32.9075V26.9611H78.466V23.2122H80.1466V19.4634L85.0588 18.6878V23.2122H88.1613V26.9611H85.0588V32.5842C85.0588 33.4892 85.5113 33.9416 86.4161 33.9416Z" fill="#233F52"/>
<path d="M94.8833 28.6423C94.9479 27.8666 95.2065 27.2849 95.5296 26.8971C95.9174 26.5092 96.3698 26.3154 96.9516 26.3154C97.5979 26.3154 98.0504 26.5092 98.4382 26.9617C98.8263 27.3495 99.0198 27.9312 99.0198 28.6423H94.8833ZM101.734 24.6349C100.571 23.4715 98.955 22.9544 96.8224 22.9544C94.6248 22.9544 92.8797 23.6007 91.6516 24.8934C90.4235 26.1861 89.8417 28.0605 89.8417 30.5166C89.8417 32.8434 90.4881 34.7179 91.7808 35.9459C93.0735 37.2386 94.8832 37.885 97.21 37.885C98.3085 37.885 99.2782 37.8204 100.118 37.6264C100.894 37.4971 101.734 37.174 102.446 36.7862L101.67 33.5544C101.088 33.7484 100.571 33.9422 100.118 34.0715C99.4079 34.2654 98.6318 34.3301 97.7919 34.3301C96.887 34.3301 96.1113 34.0716 95.5942 33.6191C95.0771 33.1667 94.7539 32.5203 94.7539 31.7447H103.415V29.5471C103.415 27.4142 102.834 25.7983 101.734 24.6349Z" fill="#233F52"/>
<path d="M27.3391 28.6423C27.4037 27.8666 27.6623 27.2849 27.9855 26.8971C28.3732 26.5092 28.8256 26.3154 29.4074 26.3154C30.0537 26.3154 30.5062 26.5092 30.894 26.9617C31.2818 27.3495 31.4756 27.9312 31.4756 28.6423H27.3391ZM34.1257 24.6349C32.9623 23.4715 31.3464 22.9544 29.2134 22.9544C27.0159 22.9544 25.2707 23.6007 24.0427 24.8934C22.8146 26.1861 22.2329 28.0605 22.2329 30.5166C22.2329 32.8434 22.8792 34.7179 24.1719 35.9459C25.4646 37.2386 27.2744 37.885 29.6013 37.885C30.7001 37.885 31.6697 37.8204 32.5099 37.6264C33.2855 37.4971 34.1256 37.174 34.8366 36.7862L34.0611 33.5544C33.4793 33.7484 32.9623 33.9422 32.5099 34.0715C31.7989 34.2654 31.0232 34.3301 30.183 34.3301C29.2781 34.3301 28.5025 34.0716 27.9855 33.6191C27.4684 33.1667 27.1452 32.5203 27.1452 31.7447H35.8062V29.5471C35.8707 27.4142 35.2891 25.7983 34.1257 24.6349Z" fill="#233F52"/>
</svg>
