<svg width="115" height="56" viewBox="0 0 115 56" fill="none" xmlns="http://www.w3.org/2000/svg">
<path d="M47.3727 14.306L28.1166 41.8148H32.9306L51.9509 14.306H47.3727Z" fill="#233F52"/>
<path d="M57.8653 31.3028V16.2909H54.6428L37.5874 40.1646H42.8533L53.1888 25.6439V40.1646H57.04L67.2969 25.5456V40.1646H72.0323V16.2909H68.633L57.8653 31.3028Z" fill="#233F52"/>
<path d="M102.45 16.2909H97.1063L91.2705 24.4846L85.5919 16.3302H80.2473L88.5786 28.2965L87.1442 30.3007L77.3589 16.2909H73.5863V40.1646H78.1252V33.6214H83.7056L84.1968 34.3092L80.0312 40.1449H85.3758L86.8691 38.0425L88.4214 40.1646L93.9624 40.1449L89.7379 34.0734L91.1722 32.0692L96.7919 40.1449H102.136L93.8642 28.2572L102.45 16.2909ZM78.1056 29.4362V24.9955L81.2494 29.4362H78.1056Z" fill="#233F52"/>
<path d="M107.797 18.5699C107.797 17.8625 107.385 17.4892 106.52 17.4892H105.125V21.2422H105.675V19.6113H106.245L107.227 21.2422H107.837L106.815 19.5916C107.385 19.5523 107.797 19.2576 107.797 18.5699ZM106.304 19.1594H105.734V17.9804H106.481C106.874 17.9804 107.286 18.059 107.286 18.5502C107.247 19.1201 106.795 19.1594 106.304 19.1594Z" fill="#233F52"/>
<path d="M106.36 16.1729C104.67 16.1729 103.236 17.5484 103.236 19.3757C103.236 21.2227 104.65 22.5982 106.36 22.5982C108.05 22.5982 109.445 21.2227 109.445 19.3757C109.445 17.568 108.03 16.1729 106.36 16.1729ZM106.36 22.1266C104.925 22.1266 103.805 20.9477 103.805 19.3757C103.805 17.8234 104.906 16.6445 106.36 16.6445C107.794 16.6445 108.895 17.8234 108.895 19.3757C108.895 20.9477 107.794 22.1266 106.36 22.1266Z" fill="#233F52"/>
<path d="M31.3598 35.7433H30.2005V29.9272H35.4075L37.1956 27.53V25.8205H30.2005V20.6135H36.8615V16.3496H25.6026V39.6339L19.1773 31.951C22.3998 30.9686 24.738 27.8247 24.738 24.2682C24.738 19.9061 21.1815 16.3496 16.8194 16.3496L8.84188 16.3103V23.2268V40.184H13.3415V32.4226L19.865 40.2037H28.4124L31.3598 35.7433ZM16.7015 27.4907L13.3415 27.5103V20.5546H16.7015C18.6075 20.5546 20.1794 22.1068 20.1794 24.0325C20.1401 25.9384 18.6075 27.4907 16.7015 27.4907Z" fill="#233F52"/>
<path d="M37.0974 40.1641V37.4525L34.9949 40.1641H37.0974Z" fill="#233F52"/>
</svg>
