<svg width="120" height="56" viewBox="0 0 120 56" fill="none" xmlns="http://www.w3.org/2000/svg">
<path d="M19.6523 34.7223C20.0292 35.7275 20.5511 36.5878 21.2277 37.303C21.8946 38.0183 22.6873 38.5596 23.6055 38.9365C24.5237 39.3134 25.5193 39.5068 26.6018 39.5068C27.6457 39.5068 28.6316 39.3134 29.5498 38.9171C30.468 38.5209 31.2702 37.9699 31.9565 37.2547C32.6429 36.5394 33.1745 35.6889 33.5514 34.703C33.9283 33.7171 34.1217 32.6055 34.1217 31.3877V12.5108H38.7129V43.0927H34.1699V40.2511C33.1551 41.3239 31.9469 42.1552 30.5648 42.7447C29.1826 43.3246 27.6843 43.6146 26.0895 43.6146C24.4561 43.6146 22.9386 43.3343 21.5274 42.764C20.1162 42.1938 18.8886 41.3915 17.8545 40.338C16.8202 39.2845 15.989 38.028 15.3993 36.5587C14.8001 35.0896 14.5005 33.4465 14.5005 31.639V12.5108H19.0917V31.378C19.0917 32.6055 19.2753 33.7171 19.6523 34.7223Z" fill="#233F52"/>
<path d="M46.6111 12.5108V23.6455C47.6259 22.6306 48.8052 21.8187 50.1487 21.2194C51.4922 20.6202 52.9421 20.3206 54.5175 20.3206C56.151 20.3206 57.6781 20.6299 59.1087 21.2388C60.5392 21.8477 61.7764 22.679 62.8203 23.7325C63.8642 24.7861 64.6954 26.0233 65.314 27.4441C65.923 28.8746 66.2322 30.3824 66.2322 31.9869C66.2322 33.5914 65.923 35.0993 65.314 36.5105C64.705 37.9216 63.8738 39.1491 62.8203 40.2027C61.7764 41.2465 60.5296 42.0778 59.1087 42.6964C57.6781 43.3053 56.151 43.6146 54.5175 43.6146C52.9421 43.6146 51.4825 43.315 50.1293 42.7158C48.7762 42.1165 47.5872 41.3143 46.5724 40.2897V43.083H42.2036V12.5108H46.6111ZM47.1137 35.0026C47.51 35.9305 48.0512 36.7521 48.7472 37.448C49.4431 38.1439 50.2647 38.7045 51.1925 39.1105C52.1205 39.5164 53.1256 39.7194 54.2082 39.7194C55.2521 39.7194 56.2477 39.5164 57.1756 39.1105C58.1034 38.7045 58.9153 38.1536 59.6016 37.448C60.2878 36.7521 60.8292 35.9305 61.2352 35.0026C61.6411 34.0747 61.844 33.0695 61.844 31.9869C61.844 30.9044 61.6411 29.8992 61.2352 28.9519C60.8292 28.0047 60.2783 27.1831 59.6016 26.4872C58.9153 25.7913 58.1131 25.2403 57.1756 24.8537C56.238 24.4671 55.2521 24.2641 54.2082 24.2641C53.1643 24.2641 52.1688 24.4574 51.2409 24.8537C50.313 25.25 49.4915 25.7913 48.7955 26.4872C48.0996 27.1831 47.539 28.0047 47.133 28.9519C46.7271 29.8992 46.5241 30.914 46.5241 31.9869C46.5241 33.0695 46.7174 34.0747 47.1137 35.0026Z" fill="#233F52"/>
<path d="M68.7046 27.4926C69.2846 26.0911 70.0869 24.8636 71.1114 23.8004C72.136 22.7372 73.3345 21.8963 74.736 21.2873C76.1375 20.6784 77.6454 20.3691 79.2788 20.3691C80.8833 20.3691 82.3622 20.6591 83.7347 21.239C85.1072 21.8189 86.2864 22.6308 87.2723 23.6651C88.2582 24.6993 89.0314 25.9268 89.592 27.338C90.1429 28.7492 90.4232 30.286 90.4232 31.9485V33.3886H72.2906C72.4355 34.2876 72.7255 35.1285 73.1605 35.9017C73.5954 36.675 74.1464 37.3419 74.7939 37.9122C75.4513 38.4824 76.1955 38.927 77.017 39.246C77.8483 39.565 78.7279 39.7293 79.6558 39.7293C82.3042 39.7293 84.4499 38.6371 86.0738 36.4526L89.2634 38.8111C88.1616 40.2995 86.7889 41.4595 85.1555 42.31C83.522 43.151 81.6855 43.5763 79.6558 43.5763C77.9933 43.5763 76.4468 43.2863 75.0066 42.7063C73.5664 42.1264 72.3099 41.3048 71.2467 40.261C70.1835 39.217 69.3426 37.9798 68.7336 36.5686C68.1248 35.1575 67.8154 33.6207 67.8154 31.9582C67.8348 30.373 68.1248 28.8942 68.7046 27.4926ZM74.8423 25.7722C73.6051 26.8064 72.7835 28.1789 72.3776 29.8994H85.9674C85.5904 28.1789 84.7785 26.8064 83.5413 25.7722C82.3042 24.738 80.8543 24.2257 79.1919 24.2257C77.5294 24.216 76.0795 24.738 74.8423 25.7722Z" fill="#233F52"/>
<path d="M98.6782 26.2746C97.7503 27.2895 97.2766 28.6814 97.2766 30.4211V43.0928H92.8691V20.8136H97.2381V23.5683C97.789 22.6694 98.5139 21.9541 99.4031 21.4322C100.292 20.9102 101.346 20.6492 102.574 20.6492H104.101V24.7571H102.264C100.805 24.7378 99.6061 25.2501 98.6782 26.2746Z" fill="#233F52"/>
</svg>
