<svg width="116" height="56" viewBox="0 0 116 56" fill="none" xmlns="http://www.w3.org/2000/svg">
<path fill-rule="evenodd" clip-rule="evenodd" d="M18.0152 22.5125C18.1191 22.4778 18.1538 22.5125 18.2232 22.5819C18.57 22.9979 19.6796 24.4195 19.9916 24.801C20.0263 24.8704 20.0263 24.9397 19.9569 24.9743C17.7031 26.8468 15.2065 29.4475 13.8195 31.3199C13.7848 31.3546 13.8195 31.3546 13.8195 31.3546C16.2468 30.245 21.8987 28.5112 24.4646 28.0257V24.6276L14.4783 16.2709L4.45741 24.6276V28.3725C7.57811 26.396 14.7558 23.3793 18.0152 22.5125ZM64.479 17.4152H68.8826V39.3645H64.479V17.4152ZM61.2196 17.4152H56.8159V39.3645H61.2196V17.4152ZM90.4155 25.009H86.0811L90.4848 39.3645H94.5071L95.6167 35.7236C96.0674 34.2673 96.7956 31.5973 96.7956 31.5973C96.7956 31.5973 96.7956 31.5626 96.8303 31.5626C96.8303 31.5626 96.865 31.5626 96.865 31.5973C96.865 31.5973 97.5932 34.3366 98.0092 35.7583L99.0844 39.3645H103.071L107.44 25.009H103.418L102.136 29.3781C101.754 30.7651 101.373 32.1521 101.026 33.5044C101.026 33.5044 101.026 33.5391 100.991 33.5391C100.991 33.5391 100.957 33.5391 100.957 33.5044C100.957 33.5044 100.263 30.8691 99.8468 29.3781L98.5637 25.0437H95.3393L94.0216 29.3781C93.6056 30.7651 92.8774 33.5044 92.8774 33.5044L92.8427 33.5391C92.8427 33.5391 92.808 33.5391 92.808 33.5044C92.808 33.5044 92.1145 30.7998 91.6984 29.3781L90.4155 25.009ZM71.0325 32.2561C71.0325 27.8871 74.3612 24.6623 78.4528 24.6623C82.5097 24.6623 85.8385 27.8871 85.8385 32.2561C85.8385 36.6252 82.5097 39.8499 78.4528 39.8499C74.3959 39.8499 71.0325 36.6252 71.0325 32.2561ZM81.6082 32.2561C81.6082 30.1063 80.1518 28.6499 78.4528 28.6499C76.7191 28.6499 75.2627 30.1063 75.2627 32.2561C75.2627 34.4059 76.7191 35.8623 78.4528 35.8623C80.1865 35.8276 81.6082 34.4059 81.6082 32.2561ZM31.3648 19.4611V23.6914H39.1319C39.1666 23.6914 39.1666 23.7261 39.1666 23.7608L31.3648 37.7695V37.8041C31.1915 38.1508 31.1568 38.2202 31.1568 38.5669V39.3991H46.3095V35.1688H37.8489C37.8489 35.1688 37.8142 35.1688 37.8142 35.1341V35.0994L45.7201 20.9174L45.7547 20.8827C45.8241 20.7787 45.8588 20.64 45.8588 20.3626V19.4611H31.3648ZM51.268 17.8314C52.6549 17.8314 53.7645 19.0103 53.7645 20.4319C53.7645 21.8537 52.6203 23.0326 51.268 23.0326C49.881 23.0326 48.7715 21.8537 48.7715 20.4319C48.7715 19.0103 49.9156 17.8314 51.268 17.8314ZM49.0835 25.009H53.4872V39.3645H49.0835V25.009ZM9.65858 36.8332C9.72794 36.9025 9.79729 36.9025 9.86659 36.8678C13.5768 34.8568 21.76 32.2908 24.4646 31.8053V39.4685H4.45741V31.4932C6.50321 30.2796 12.0858 27.7484 14.0276 27.0549C14.0623 27.0549 14.0623 27.0549 14.0276 27.0896C12.1898 28.5805 9.24249 32.048 7.78616 34.302C7.71682 34.4059 7.71682 34.4406 7.78616 34.51L9.65858 36.8332ZM109.729 22.2697C110.111 22.2697 110.388 22.5472 110.388 22.9632C110.388 23.2753 110.215 23.518 109.972 23.6221L110.353 24.2809H110.006L109.66 23.6914H109.348V24.2809H109.036V22.2697H109.729ZM109.313 23.3793H109.695C109.902 23.3793 110.041 23.2059 110.041 22.9632C110.041 22.7205 109.902 22.5472 109.695 22.5472H109.313V23.3793ZM109.625 21.5762C108.966 21.5762 108.377 21.9924 108.099 22.6511C107.857 23.3099 107.995 24.0381 108.446 24.5236C108.897 25.009 109.625 25.1824 110.249 24.9051C110.874 24.6276 111.255 24.0035 111.255 23.31C111.255 22.3391 110.527 21.5762 109.625 21.5762ZM109.625 24.697C109.105 24.697 108.619 24.3503 108.412 23.8301C108.204 23.31 108.308 22.7205 108.689 22.3044C109.07 21.8883 109.625 21.7843 110.145 21.9924C110.63 22.2004 110.977 22.7205 110.977 23.2753C110.943 24.0728 110.353 24.697 109.625 24.697Z" fill="#233F52"/>
</svg>
