<svg width="115" height="56" viewBox="0 0 115 56" fill="none" xmlns="http://www.w3.org/2000/svg">
<path d="M20.8753 40.0452C19.3444 40.3136 17.7834 40.3932 16.1729 40.6119L11.2617 26.2063V41.2283C9.73067 41.3873 8.32889 41.606 6.8774 41.8148V14.306H10.9634L16.5507 29.9146V14.306H20.8753V40.0452ZM29.3358 24.377C31.0059 24.377 33.5511 24.2975 35.082 24.2975V28.5923C33.1733 28.5923 30.9463 28.5923 29.3358 28.6719V35.0644C31.861 34.9053 34.3862 34.6866 36.9411 34.6071V38.7429L25.0409 39.6873V14.306H36.9411V18.6008H29.3358V24.377ZM52.9275 18.6008H48.4637V38.375C47.0122 38.375 45.5607 38.375 44.1689 38.4247V18.6008H39.705V14.306H52.9275V18.6008ZM59.9166 24.0887H65.8021V28.3836H59.9166V38.1364H55.7013V14.306H67.7109V18.6008H59.9166V24.0887ZM74.69 34.3784C77.1356 34.4281 79.6111 34.617 81.9971 34.7562V39.0014C78.1596 38.7627 74.3122 38.5141 70.3851 38.4347V14.306H74.68V34.3784H74.69ZM85.6259 39.2896C86.9978 39.3692 88.4493 39.4487 89.8411 39.6077V14.306H85.6259V39.2896ZM108.681 14.306L103.223 27.3894L108.681 41.8148C107.07 41.5961 105.46 41.3078 103.849 41.0394L100.757 33.086L97.6156 40.3932C96.0548 40.1247 94.5536 40.0452 92.9927 39.8265L98.5199 27.2303L93.5296 14.306H98.1524L100.976 21.5337L103.978 14.306H108.681Z" fill="#233F52"/>
</svg>
