<svg width="115" height="56" viewBox="0 0 115 56" fill="none" xmlns="http://www.w3.org/2000/svg">
<path fill-rule="evenodd" clip-rule="evenodd" d="M58.3985 47.7058V45.624H12.2977V47.7058H58.3985ZM75.9212 40.2203V42.4298L55.505 37.4996L35.2617 42.4336V40.224L55.505 35.29L75.9212 40.2203Z" fill="#233F52"/>
<path fill-rule="evenodd" clip-rule="evenodd" d="M67.2425 47.7058H69.298V42.0917H67.2425V47.7058ZM51.9331 16.918H53.6354V13.3443H56.5252V16.918H60.779V24.0616C60.779 24.4862 60.7941 24.9147 60.8354 25.2341C60.8767 25.5497 60.9294 25.7564 60.997 25.9255C61.0646 26.0946 61.1361 26.2262 61.23 26.3351C61.3239 26.4478 61.4329 26.5417 61.5607 26.6207C61.6884 26.6996 61.8313 26.7635 62.0492 26.8161C62.2672 26.865 62.5602 26.9025 62.8384 26.9251C63.1164 26.9438 63.3757 26.9476 63.5937 26.9213C63.7891 26.8988 63.9807 26.8462 64.1611 26.7635C64.3377 26.6846 64.5181 26.5794 64.6872 26.4515C64.8562 26.3238 65.0104 26.1772 65.1381 26.0195C65.2659 25.8654 65.3711 25.6962 65.4538 25.5121C65.544 25.313 65.6078 25.1025 65.6454 24.8846C65.6905 24.6215 65.7168 24.3547 65.713 24.0841V16.918H68.6066V28.9956H65.713V28.2253C65.4538 28.4394 65.1607 28.6086 64.7773 28.7514C64.3941 28.898 63.9244 29.0144 63.3907 29.0858C62.8421 29.1572 62.2859 29.1797 61.7335 29.1535C61.2037 29.1234 60.7377 29.0407 60.3318 28.9205C59.9599 28.8078 59.6029 28.6462 59.2797 28.432C58.9903 28.2403 58.7273 28.0074 58.5055 27.7405C58.0847 27.2257 57.8855 26.6545 57.8855 26.1021V19.8078H56.5252V29.1647H53.6354V19.8078H52.0985C52.1135 22.9268 52.1023 26.0458 52.106 29.1647H49.2162V22.0212C49.2162 21.5965 49.2012 21.1757 49.1598 20.8562C49.1223 20.5406 49.0659 20.3302 48.9983 20.161C48.9457 20.0107 48.8668 19.8716 48.7653 19.7477C48.6714 19.6349 48.5587 19.5372 48.4346 19.4621C48.2805 19.3681 48.1115 19.3004 47.9311 19.2629C47.6681 19.2102 47.405 19.1727 47.1344 19.1577C46.8601 19.1389 46.6159 19.1351 46.4017 19.1614C46.2024 19.184 46.0109 19.2366 45.8266 19.3193C45.6388 19.4019 45.4659 19.5071 45.3044 19.6311C45.139 19.759 44.9887 19.9017 44.8572 20.0633C44.7294 20.2211 44.6242 20.3864 44.5378 20.5706C44.4513 20.7548 44.3874 20.9614 44.3461 21.2019C44.301 21.465 44.2785 21.728 44.2785 21.9948V29.1685H41.385V20.8637L35.3611 26.7371C36.2894 27.0867 37.3941 27.004 38.4764 26.5079C39.0439 26.2412 39.5699 25.8879 40.0247 25.4557V28.71C38.7056 29.5217 37.1085 29.8449 35.6016 29.5969C34.8426 29.4729 34.1098 29.2174 33.4372 28.8378C32.5728 29.8336 31.5508 30.6829 30.4197 31.3593C29.2886 32.032 28.0522 32.5167 26.767 32.7948C25.4744 33.0729 24.144 33.1481 22.8288 33.0128C21.5173 32.8775 20.2285 32.5279 19.0297 31.9869C17.831 31.4458 16.7224 30.7129 15.7604 29.8261C14.7946 28.9355 13.9754 27.8946 13.3366 26.7447C12.0515 24.4374 11.5479 21.7055 11.8973 19.105C12.0702 17.7974 12.4535 16.5272 13.0284 15.3398C13.6034 14.156 14.3662 13.07 15.2794 12.1306C16.1925 11.191 17.2598 10.3982 18.4284 9.79319C20.7583 8.57941 23.5015 8.14351 26.1094 8.5719C27.4096 8.78234 28.6723 9.19945 29.8409 9.80822C31.0059 10.417 32.0693 11.2061 32.9825 12.1531C33.8993 13.1038 34.6622 14.1974 35.2409 15.3886H30.6301C29.9424 14.5544 29.0969 13.8554 28.1462 13.3406C27.1954 12.8258 26.1432 12.4988 25.0648 12.3785C23.9825 12.2583 22.8852 12.3447 21.8367 12.6341C19.7287 13.2203 17.9325 14.6107 16.8351 16.5009C16.2903 17.4441 15.9333 18.4813 15.7829 19.5597C15.6326 20.642 15.689 21.743 15.952 22.8028C16.2151 23.8549 16.6773 24.8507 17.3199 25.7263C17.9587 26.6019 18.7629 27.3422 19.6836 27.9133C20.608 28.4845 21.6339 28.8679 22.7086 29.0444C23.7871 29.2248 24.9145 29.1948 26.0155 28.9543C27.1166 28.7138 28.1875 28.2591 29.142 27.6353L30.8706 26.1547C30.5173 25.4557 30.2919 24.7042 30.2017 23.9263C30.1152 23.1523 30.1716 22.3669 30.3633 21.6116C30.555 20.8562 30.8856 20.1422 31.329 19.5071C31.7724 18.8721 32.3361 18.3159 32.9749 17.8763C34.2677 16.9857 35.8835 16.6099 37.4054 16.794C38.172 16.8842 38.916 17.1059 39.5925 17.4629C40.2689 17.8199 40.8814 18.3084 41.385 18.8946V17.0909H44.2785V17.8612C44.534 17.6508 44.8234 17.4817 45.1992 17.3389C45.5749 17.1961 46.0409 17.0759 46.5669 17.0044C47.093 16.933 47.6793 16.9068 48.2054 16.933C48.7315 16.9593 49.2012 17.0382 49.607 17.1585C50.0129 17.2787 50.3586 17.4366 50.663 17.632C50.9561 17.8161 51.2192 18.0453 51.4446 18.3084C51.6588 18.5564 51.8167 18.8233 51.9331 19.1126V16.918ZM38.2359 19.8341C37.8 19.6274 37.3265 19.5071 36.8418 19.4771C34.8276 19.3568 33.0839 20.8524 32.896 22.8591C32.851 23.3364 32.8998 23.8248 33.0351 24.2908L38.2359 19.8341ZM72.6838 29.1647H69.7903V17.0871H72.6838V17.8575C72.8792 17.6432 73.1009 17.4554 73.3452 17.2975C73.7773 17.0308 74.1644 16.9293 74.5552 16.918H77.6178V23.9451L82.5518 16.918H85.9526L74.7281 32.9076H71.3235L74.5552 28.3042V19.8867C74.2847 19.9618 74.0253 20.0858 73.7961 20.2474C73.5594 20.4128 73.349 20.6195 73.1798 20.845C73.007 21.0816 72.8792 21.3447 72.8078 21.6266C72.7251 21.9347 72.6838 22.3029 72.6838 22.6712V29.1647ZM92.247 25.0838H99.563V47.7095H95.3096V29.1685H93.0925C93.333 29.7998 93.5134 30.4574 93.6261 31.1112C93.7389 31.7652 93.7877 32.4152 93.7539 33.0015C93.72 33.5464 93.6111 34.0875 93.4307 34.6023C93.2579 35.0946 93.0287 35.5643 92.7318 35.9739C92.4311 36.3835 92.0629 36.7329 91.7735 37.0148C91.4841 37.2928 91.2625 37.4921 91.0558 37.7063L85.3402 43.6286H94.1184V47.7095H79.6583V43.6286L88.974 34.1551C89.1468 33.9823 89.2821 33.7756 89.4023 33.4975C89.5301 33.1856 89.6241 32.8625 89.6766 32.5318C89.733 32.2085 89.7443 31.8817 89.7142 31.5584C89.6654 30.9948 89.4211 30.4687 89.0265 30.0666C88.8086 29.8411 88.5644 29.6495 88.2938 29.4954C87.7113 29.161 87.0499 28.9919 86.3811 29.0069C86.0428 29.0144 85.7046 29.067 85.3927 29.161C85.0809 29.2549 84.7953 29.3864 84.5359 29.5518C84.2804 29.7171 84.055 29.9163 83.8596 30.1605C83.6566 30.4199 83.4875 30.7016 83.3597 31.0061C83.2283 31.3142 83.1305 31.6336 83.0704 31.9643C83.0216 32.2612 83.0253 32.5054 83.0741 32.7459H78.9819C78.9669 32.1372 79.042 31.5247 79.2187 30.8482C79.4103 30.1154 79.6997 29.409 80.0792 28.7514C80.4775 28.0675 80.9811 27.4549 81.5673 26.9288C82.1535 26.4065 82.8187 25.9894 83.5364 25.6812C84.2579 25.3768 85.0358 25.189 85.8249 25.1213C86.614 25.0574 87.4069 25.1138 88.1773 25.2905C88.9363 25.467 89.6466 25.7602 90.3343 26.1923C91.022 26.6282 91.6796 27.2031 92.2395 27.8608L92.247 25.0838ZM102.149 46.973H102.502V46.9054C102.431 46.9054 102.378 46.8828 102.348 46.8227L102.081 46.3793C102.227 46.3192 102.326 46.2252 102.326 46.0674C102.326 45.778 102.036 45.7255 101.815 45.7255H101.164V45.7856H101.224C101.326 45.7856 101.341 45.8307 101.341 45.9133V46.7776C101.341 46.8978 101.288 46.9054 101.172 46.9054V46.973H101.807V46.9054H101.747C101.653 46.9054 101.63 46.8603 101.63 46.7776V46.3793H101.807L102.149 46.973ZM101.63 46.3154V45.8044C101.83 45.8044 102.029 45.8044 102.029 46.0636C102.029 46.2477 101.939 46.3154 101.77 46.3154H101.63ZM101.784 47.5367C102.442 47.533 102.972 47.0031 102.976 46.3455C102.972 45.6878 102.442 45.158 101.784 45.1543C101.127 45.1543 100.586 45.6878 100.586 46.3455C100.586 47.0031 101.127 47.5367 101.784 47.5367ZM101.784 47.4052C101.198 47.4014 100.728 46.9279 100.724 46.3455C100.724 45.7667 101.198 45.2857 101.784 45.2857C102.363 45.2857 102.844 45.7667 102.844 46.3455C102.84 46.9279 102.367 47.4014 101.784 47.4052Z" fill="#233F52"/>
</svg>
