<svg width="115" height="56" viewBox="0 0 115 56" fill="none" xmlns="http://www.w3.org/2000/svg">
<path d="M59.97 20.2402C59.97 21.373 59.0574 22.2856 57.9245 22.2856C56.7916 22.2856 55.8789 21.373 55.8789 20.2402C55.8789 19.1072 56.76 18.1946 57.9245 18.1946C59.0889 18.226 59.97 19.1386 59.97 20.2402ZM51.536 24.3628C51.536 24.5516 51.536 24.8663 51.536 24.8663C51.536 24.8663 50.5605 23.6074 48.4834 23.6074C45.0532 23.6074 42.3783 26.2194 42.3783 29.8385C42.3783 33.4261 45.0218 36.0696 48.4834 36.0696C50.592 36.0696 51.536 34.7793 51.536 34.7793V35.3143C51.536 35.5661 51.7249 35.7549 51.9767 35.7549H54.5257V23.9221C54.5257 23.9221 52.1969 23.9221 51.9767 23.9221C51.7249 23.9221 51.536 24.1424 51.536 24.3628ZM51.536 31.947C51.064 32.6394 50.1199 33.2373 48.9869 33.2373C46.9729 33.2373 45.4309 31.9785 45.4309 29.8385C45.4309 27.6986 46.9729 26.4398 48.9869 26.4398C50.0884 26.4398 51.0955 27.0691 51.536 27.73V31.947ZM56.4139 23.9221H59.4351V35.7549H56.4139V23.9221ZM101.542 23.6074C99.4651 23.6074 98.4895 24.8663 98.4895 24.8663V18.226H95.4682V35.7549C95.4682 35.7549 97.7971 35.7549 98.0173 35.7549C98.2694 35.7549 98.458 35.5346 98.458 35.3143V34.7793C98.458 34.7793 99.4336 36.0696 101.511 36.0696C104.94 36.0696 107.616 33.4261 107.616 29.8385C107.616 26.2509 104.94 23.6074 101.542 23.6074ZM101.039 33.2058C99.8738 33.2058 98.9611 32.6079 98.4895 31.9155V27.6986C98.9611 27.0691 99.9681 26.4082 101.039 26.4082C103.053 26.4082 104.594 27.6671 104.594 29.807C104.594 31.947 103.053 33.2058 101.039 33.2058ZM93.8947 28.737V35.7864H90.8737V29.0833C90.8737 27.1321 90.2442 26.3454 88.5449 26.3454C87.6323 26.3454 86.6881 26.8174 86.0902 27.5098V35.7549H83.069V23.9221H85.4607C85.7125 23.9221 85.9014 24.1424 85.9014 24.3628V24.8663C86.7825 23.9536 87.9469 23.6074 89.1113 23.6074C90.433 23.6074 91.5345 23.9851 92.4156 24.7403C93.4856 25.6215 93.8947 26.7544 93.8947 28.737ZM75.7366 23.6074C73.6595 23.6074 72.6839 24.8663 72.6839 24.8663V18.226H69.6628V35.7549C69.6628 35.7549 71.9916 35.7549 72.2119 35.7549C72.4636 35.7549 72.6525 35.5346 72.6525 35.3143V34.7793C72.6525 34.7793 73.628 36.0696 75.705 36.0696C79.1353 36.0696 81.8102 33.4261 81.8102 29.8385C81.8418 26.2509 79.1667 23.6074 75.7366 23.6074ZM75.233 33.2058C74.0687 33.2058 73.156 32.6079 72.6839 31.9155V27.6986C73.156 27.0691 74.1631 26.4082 75.233 26.4082C77.2471 26.4082 78.7892 27.6671 78.7892 29.807C78.7892 31.947 77.2471 33.2058 75.233 33.2058ZM67.0508 23.6074C67.9634 23.6074 68.4355 23.7648 68.4355 23.7648V26.5656C68.4355 26.5656 65.9179 25.7159 64.3444 27.5098V35.7864H61.3233V23.9221C61.3233 23.9221 63.6521 23.9221 63.8723 23.9221C64.124 23.9221 64.3129 24.1424 64.3129 24.3628V24.8663C64.8794 24.2054 66.1066 23.6074 67.0508 23.6074ZM35.6752 34.6849C35.5178 34.3073 35.3605 33.8982 35.2031 33.552C34.9513 32.9855 34.6996 32.4505 34.4793 31.947L34.4478 31.9155C32.2764 27.195 29.9475 22.4116 27.4929 17.6911L27.3986 17.5023C27.1467 17.0302 26.8949 16.5267 26.6432 16.0232C26.3286 15.4567 26.0138 14.8588 25.5103 14.2923C24.5033 13.0335 23.0556 12.3411 21.5136 12.3411C19.9401 12.3411 18.5239 13.0335 17.4855 14.2293C17.0134 14.7958 16.6672 15.3937 16.3525 15.9602C16.1008 16.4637 15.849 16.9672 15.5972 17.4393L15.5028 17.6281C13.0796 22.3486 10.7194 27.1321 8.54794 31.8526L8.51646 31.9155C8.29617 32.4191 8.04441 32.954 7.79265 33.5205C7.6353 33.8666 7.47795 34.2443 7.3206 34.6534C6.91149 35.8178 6.78561 36.9192 6.94296 38.0522C7.28914 40.4125 8.86264 42.3951 11.0341 43.2762C11.8523 43.6224 12.702 43.7797 13.5832 43.7797C13.8349 43.7797 14.1496 43.7483 14.4013 43.7169C15.4399 43.5909 16.5099 43.2448 17.5483 42.6469C18.8386 41.923 20.066 40.8845 21.4507 39.3739C22.8353 40.8845 24.0942 41.923 25.353 42.6469C26.3914 43.2448 27.4614 43.5909 28.5 43.7169C28.7517 43.7483 29.0665 43.7797 29.3182 43.7797C30.1993 43.7797 31.0805 43.6224 31.8673 43.2762C34.0701 42.3951 35.6122 40.381 35.9584 38.0522C36.2101 36.9508 36.0843 35.8493 35.6752 34.6849ZM21.4821 36.3213C19.7827 34.1814 18.6813 32.1673 18.3037 30.4679C18.1463 29.7441 18.1148 29.1147 18.2092 28.5482C18.2722 28.0447 18.461 27.6042 18.7128 27.2265C19.3107 26.3768 20.3177 25.8418 21.4821 25.8418C22.6465 25.8418 23.6851 26.3454 24.2515 27.2265C24.5033 27.6042 24.6921 28.0447 24.7551 28.5482C24.8495 29.1147 24.8179 29.7756 24.6606 30.4679C24.283 32.1359 23.1816 34.1499 21.4821 36.3213ZM34.0387 37.8004C33.8184 39.4369 32.717 40.853 31.1749 41.4825C30.4196 41.7971 29.6014 41.8915 28.7832 41.7971C27.9965 41.7027 27.2097 41.451 26.3914 40.9789C25.2586 40.3495 24.1256 39.3739 22.8039 37.9264C24.8809 35.3773 26.1397 33.0485 26.6118 30.9714C26.8321 29.9959 26.8635 29.1147 26.7691 28.2965C26.6432 27.5098 26.36 26.7859 25.9194 26.1565C24.9439 24.7403 23.3074 23.9221 21.4821 23.9221C19.6569 23.9221 18.0204 24.7719 17.0448 26.1565C16.6043 26.7859 16.3211 27.5098 16.1952 28.2965C16.0693 29.1147 16.1008 30.0273 16.3525 30.9714C16.8246 33.0485 18.1148 35.4087 20.1604 37.9578C18.8701 39.4054 17.7057 40.381 16.5728 41.0104C15.7546 41.4824 14.9678 41.7342 14.1811 41.8286C13.3314 41.923 12.5132 41.7971 11.7894 41.5139C10.2473 40.8845 9.14587 39.4683 8.92557 37.8319C8.83117 37.0452 8.89411 36.2584 9.20881 35.3773C9.30322 35.0625 9.46057 34.7478 9.61792 34.3702C9.83823 33.8666 10.0899 33.3317 10.3417 32.7967L10.3732 32.7338C12.5446 28.0447 14.8734 23.2612 17.2966 18.6037L17.3911 18.4149C17.6428 17.9428 17.8946 17.4393 18.1463 16.9672C18.3981 16.4637 18.6813 15.9916 19.0274 15.5825C19.6883 14.8273 20.5695 14.4181 21.5451 14.4181C22.5207 14.4181 23.4018 14.8273 24.0627 15.5825C24.4088 15.9916 24.6921 16.4637 24.9439 16.9672C25.1956 17.4393 25.4474 17.9428 25.6991 18.4149L25.7935 18.6037C28.1853 23.2928 30.514 28.0761 32.6854 32.7652V32.7967C32.9373 33.3003 33.1575 33.8666 33.4093 34.3702C33.5666 34.7478 33.724 35.0625 33.8184 35.3773C34.0701 36.1955 34.1645 36.9822 34.0387 37.8004Z" fill="#233F52"/>
</svg>
