<svg width="168" height="24" viewBox="0 0 168 24" fill="none" xmlns="http://www.w3.org/2000/svg">
<path d="M22.4248 9.131C22.3308 8.836 22.1498 8.576 21.9058 8.385C21.6618 8.194 21.3658 8.082 21.0558 8.063L15.4878 7.678L13.4248 2.475C13.3128 2.188 13.1168 1.942 12.8618 1.769C12.6078 1.595 12.3078 1.501 11.9998 1.5C11.6918 1.501 11.3918 1.595 11.1378 1.769C10.8838 1.942 10.6878 2.188 10.5748 2.475L8.47481 7.706L2.94381 8.063C2.63481 8.083 2.33881 8.196 2.09481 8.387C1.85081 8.577 1.66981 8.837 1.57481 9.131C1.47781 9.43 1.47181 9.752 1.55881 10.054C1.64581 10.357 1.82081 10.626 2.06281 10.828L6.3188 14.428L5.05281 19.406C4.96581 19.743 4.98081 20.098 5.09881 20.426C5.21581 20.754 5.4278 21.039 5.70981 21.244C5.9818 21.44 6.30681 21.549 6.64281 21.56C6.97881 21.57 7.3098 21.479 7.5938 21.3L11.9908 18.516H12.0088L16.7438 21.506C16.9868 21.664 17.2698 21.749 17.5588 21.75C17.7958 21.748 18.0288 21.692 18.2398 21.586C18.4518 21.48 18.6358 21.327 18.7788 21.139C18.9218 20.951 19.0198 20.732 19.0658 20.5C19.1108 20.268 19.1018 20.028 19.0408 19.8L17.6998 14.353L21.9378 10.828C22.1788 10.626 22.3548 10.357 22.4418 10.054C22.5278 9.752 22.5228 9.43 22.4248 9.131Z" fill="#712FFF"/>
<path d="M58.4248 9.131C58.3308 8.836 58.1498 8.576 57.9058 8.385C57.6618 8.194 57.3658 8.082 57.0558 8.063L51.4878 7.678L49.4248 2.475C49.3128 2.188 49.1168 1.942 48.8618 1.769C48.6078 1.595 48.3078 1.501 47.9998 1.5C47.6918 1.501 47.3918 1.595 47.1378 1.769C46.8838 1.942 46.6878 2.188 46.5748 2.475L44.4748 7.706L38.9438 8.063C38.6348 8.083 38.3388 8.196 38.0948 8.387C37.8508 8.577 37.6698 8.837 37.5748 9.131C37.4778 9.43 37.4718 9.752 37.5588 10.054C37.6458 10.357 37.8208 10.626 38.0628 10.828L42.3188 14.428L41.0528 19.406C40.9658 19.743 40.9808 20.098 41.0988 20.426C41.2148 20.754 41.4278 21.039 41.7088 21.244C41.9818 21.44 42.3068 21.549 42.6428 21.56C42.9788 21.57 43.3098 21.479 43.5938 21.3L47.9908 18.516H48.0098L52.7438 21.506C52.9868 21.664 53.2698 21.749 53.5588 21.75C53.7958 21.748 54.0288 21.692 54.2398 21.586C54.4518 21.48 54.6358 21.327 54.7788 21.139C54.9218 20.951 55.0198 20.732 55.0658 20.5C55.1108 20.268 55.1018 20.028 55.0408 19.8L53.6998 14.353L57.9378 10.828C58.1788 10.626 58.3548 10.357 58.4408 10.054C58.5278 9.752 58.5228 9.43 58.4248 9.131Z" fill="#712FFF"/>
<path d="M94.4248 9.131C94.3308 8.836 94.1498 8.576 93.9058 8.385C93.6618 8.194 93.3658 8.082 93.0558 8.063L87.4878 7.678L85.4248 2.475C85.3128 2.188 85.1168 1.942 84.8618 1.769C84.6078 1.595 84.3078 1.501 83.9998 1.5C83.6918 1.501 83.3918 1.595 83.1378 1.769C82.8838 1.942 82.6878 2.188 82.5748 2.475L80.4748 7.706L74.9438 8.063C74.6348 8.083 74.3388 8.196 74.0948 8.387C73.8508 8.577 73.6698 8.837 73.5748 9.131C73.4778 9.43 73.4718 9.752 73.5588 10.054C73.6458 10.357 73.8208 10.626 74.0628 10.828L78.3188 14.428L77.0528 19.406C76.9658 19.743 76.9808 20.098 77.0988 20.426C77.2158 20.754 77.4278 21.039 77.7098 21.244C77.9818 21.44 78.3068 21.549 78.6428 21.56C78.9788 21.57 79.3098 21.479 79.5938 21.3L83.9908 18.516H84.0098L88.7438 21.506C88.9868 21.664 89.2698 21.749 89.5588 21.75C89.7958 21.748 90.0288 21.692 90.2398 21.586C90.4518 21.48 90.6358 21.327 90.7788 21.139C90.9218 20.951 91.0198 20.732 91.0658 20.5C91.1108 20.268 91.1018 20.028 91.0408 19.8L89.6998 14.353L93.9378 10.828C94.1788 10.626 94.3548 10.357 94.4418 10.054C94.5278 9.752 94.5228 9.43 94.4248 9.131Z" fill="#712FFF"/>
<path d="M130.425 9.131C130.331 8.836 130.15 8.576 129.906 8.385C129.662 8.194 129.366 8.082 129.056 8.063L123.488 7.678L121.425 2.475C121.313 2.188 121.117 1.942 120.862 1.769C120.608 1.595 120.308 1.501 120 1.5C119.692 1.501 119.392 1.595 119.138 1.769C118.884 1.942 118.688 2.188 118.575 2.475L116.475 7.706L110.944 8.063C110.635 8.083 110.339 8.196 110.095 8.387C109.851 8.577 109.67 8.837 109.575 9.131C109.478 9.43 109.472 9.752 109.559 10.054C109.646 10.357 109.821 10.626 110.063 10.828L114.319 14.428L113.053 19.406C112.966 19.743 112.981 20.098 113.099 20.426C113.216 20.754 113.428 21.039 113.71 21.244C113.982 21.44 114.307 21.549 114.643 21.56C114.979 21.57 115.31 21.479 115.594 21.3L119.991 18.516H120.01L124.744 21.506C124.987 21.664 125.27 21.749 125.56 21.75C125.796 21.748 126.029 21.692 126.24 21.586C126.452 21.48 126.636 21.327 126.779 21.139C126.922 20.951 127.02 20.732 127.066 20.5C127.111 20.268 127.102 20.028 127.041 19.8L125.7 14.353L129.938 10.828C130.179 10.626 130.355 10.357 130.442 10.054C130.528 9.752 130.523 9.43 130.425 9.131Z" fill="#712FFF"/>
<path d="M166.425 9.131C166.331 8.836 166.15 8.576 165.906 8.385C165.662 8.194 165.366 8.082 165.056 8.063L159.488 7.678L157.425 2.475C157.313 2.188 157.117 1.942 156.862 1.769C156.608 1.595 156.308 1.501 156 1.5C155.692 1.501 155.392 1.595 155.138 1.769C154.884 1.942 154.688 2.188 154.575 2.475L152.475 7.706L146.944 8.063C146.635 8.083 146.339 8.196 146.095 8.387C145.851 8.577 145.67 8.837 145.575 9.131C145.478 9.43 145.472 9.752 145.559 10.054C145.646 10.357 145.821 10.626 146.063 10.828L150.319 14.428L149.053 19.406C148.966 19.743 148.981 20.098 149.099 20.426C149.216 20.754 149.428 21.039 149.71 21.244C149.982 21.44 150.307 21.549 150.643 21.56C150.979 21.57 151.31 21.479 151.594 21.3L155.991 18.516H156.01L160.744 21.506C160.987 21.664 161.27 21.749 161.56 21.75C161.796 21.748 162.029 21.692 162.24 21.586C162.452 21.48 162.636 21.327 162.779 21.139C162.922 20.951 163.02 20.732 163.066 20.5C163.111 20.268 163.102 20.028 163.041 19.8L161.7 14.353L165.938 10.828C166.179 10.626 166.355 10.357 166.442 10.054C166.528 9.752 166.523 9.43 166.425 9.131Z" fill="#712FFF"/>
</svg>
