<svg width="180" height="49" viewBox="0 0 180 49" fill="none" xmlns="http://www.w3.org/2000/svg">
<path d="M24.2124 45.0404C35.8521 45.0404 45.288 35.8072 45.288 24.4175C45.288 13.0278 35.8521 3.79461 24.2124 3.79461C12.5726 3.79461 3.13666 13.0278 3.13666 24.4175C3.13666 35.8072 12.5726 45.0404 24.2124 45.0404Z" fill="#712FFF"/>
<path d="M26.1875 10.4424C25.909 9.43214 25.2593 8.93175 24.6746 9.00728C24.3187 9.0415 23.9767 9.16453 23.6788 9.36545C23.3808 9.56636 23.1362 9.83902 22.9668 10.1591C22.15 12.0474 23.8949 17.5422 24.1177 18.458C22.5955 23.1315 17.7041 31.9686 14.7434 33.9701C14.6684 34.0176 14.581 34.0409 14.4928 34.0369C14.4046 34.0328 14.3196 34.0016 14.2492 33.9474C14.1788 33.8932 14.1262 33.8185 14.0985 33.7331C14.0707 33.6478 14.069 33.556 14.0937 33.4697C14.3907 32.5256 15.3281 31.0528 17.9455 29.3439C18.1288 29.1477 18.2993 28.9396 18.456 28.7208C15.3466 30.2597 11.3185 32.7428 13.741 34.5933C13.9149 34.7155 14.1057 34.811 14.3071 34.8765C16.1634 35.5752 18.7622 33.2904 21.3704 28.1071C24.1264 27.1127 26.966 26.3764 29.8537 25.9072C33.4456 28.3903 35.8495 28.9001 37.4831 28.2581C37.8061 28.1152 38.0956 27.904 38.3324 27.6388C38.5692 27.3734 38.748 27.0601 38.8567 26.7192C37.5295 28.3809 34.4201 27.2196 31.942 25.6334C34.2253 25.3785 36.5828 25.2275 37.613 25.5579C38.9124 25.9733 38.866 26.6248 38.8567 26.7192C38.9507 26.4986 38.9993 26.2609 38.9993 26.0205C38.9993 25.7802 38.9507 25.5424 38.8567 25.3219C37.7615 23.5091 32.7402 24.5666 30.9118 24.7554C28.3194 23.036 26.3356 20.5185 25.2501 17.5706C26.0018 14.6437 26.8 12.5195 26.1782 10.414M24.9344 16.5415C24.5075 14.9836 23.9228 11.7075 24.5911 10.1591C24.6181 10.0949 24.6596 10.038 24.7124 9.99326C24.7651 9.94847 24.8274 9.91697 24.8944 9.90134C24.9613 9.8857 25.0309 9.88638 25.0975 9.9033C25.1642 9.92014 25.226 9.95285 25.2779 9.99862C26.7907 11.3676 25.612 14.0584 24.9344 16.5415ZM28.8976 25.1519C26.3701 25.6625 23.9029 26.4441 21.5374 27.4839C22.7665 24.7953 23.7905 22.0145 24.6004 19.1661C25.6375 21.4258 27.1008 23.4563 28.9069 25.1425" fill="white"/>
<path d="M55.393 32.7492V15.7477H64.7476C65.9024 15.7477 66.8841 15.9869 67.6925 16.4653C68.5174 16.9273 69.1444 17.579 69.5733 18.4204C70.0188 19.2453 70.2415 20.2187 70.2415 21.3406C70.2415 22.4955 70.0105 23.4936 69.5486 24.335C69.1031 25.1765 68.4597 25.8364 67.6183 26.3148C66.7933 26.7768 65.8034 27.0078 64.6486 27.0078H59.8228V32.7492H55.393ZM59.8228 23.5926H63.6092C64.3021 23.5926 64.83 23.4029 65.193 23.0234C65.556 22.6275 65.7375 22.083 65.7375 21.3901C65.7375 20.8951 65.655 20.4909 65.49 20.1775C65.3415 19.864 65.1105 19.6248 64.797 19.4598C64.4836 19.2783 64.0876 19.1876 63.6092 19.1876H59.8228V23.5926ZM72.4253 32.7492V15.7477H79.5278C81.3756 15.7477 82.9345 16.0529 84.2048 16.6633C85.4917 17.2738 86.4651 18.2059 87.125 19.4598C87.8015 20.6972 88.1397 22.2892 88.1397 24.236C88.1397 26.1663 87.8015 27.7667 87.125 29.0371C86.4651 30.2909 85.4917 31.2231 84.2048 31.8335C82.9345 32.444 81.3756 32.7492 79.5278 32.7492H72.4253ZM76.8551 29.2845H79.4783C80.1713 29.2845 80.7734 29.1855 81.2849 28.9876C81.7963 28.7896 82.2253 28.5009 82.5715 28.1214C82.918 27.7419 83.1737 27.2717 83.3387 26.7108C83.5037 26.1499 83.5862 25.5064 83.5862 24.7805V23.7411C83.5862 22.9987 83.5037 22.347 83.3387 21.786C83.1737 21.2251 82.918 20.7549 82.5715 20.3754C82.2253 19.996 81.7963 19.7073 81.2849 19.5093C80.7734 19.3113 80.1713 19.2123 79.4783 19.2123H76.8551V29.2845ZM90.8594 32.7492V15.7477H103.901V19.2123H95.2892V22.8749H102.862V26.2653H95.2892V32.7492H90.8594Z" fill="black"/>
<path d="M116.366 33.0461C114.881 33.0461 113.619 32.8069 112.579 32.3285C111.54 31.8335 110.74 31.0828 110.179 30.0764C109.634 29.07 109.362 27.7832 109.362 26.2158C109.362 24.6815 109.634 23.4111 110.179 22.4047C110.723 21.3983 111.507 20.6477 112.53 20.1527C113.553 19.6578 114.782 19.4103 116.217 19.4103C117.636 19.4103 118.832 19.6495 119.806 20.128C120.796 20.6064 121.546 21.3406 122.058 22.3305C122.569 23.3204 122.825 24.599 122.825 26.1663V27.0325H113.47C113.47 27.7254 113.569 28.3111 113.767 28.7896C113.965 29.268 114.27 29.631 114.683 29.8785C115.095 30.1259 115.648 30.2497 116.341 30.2497C116.753 30.2497 117.116 30.2002 117.43 30.1012C117.743 30.0022 118.007 29.862 118.222 29.6805C118.436 29.4825 118.601 29.2515 118.717 28.9876C118.832 28.7236 118.89 28.4266 118.89 28.0966H122.825C122.825 28.8886 122.676 29.598 122.379 30.2249C122.099 30.8354 121.678 31.3551 121.117 31.784C120.556 32.1965 119.872 32.5099 119.063 32.7244C118.271 32.9389 117.372 33.0461 116.366 33.0461ZM113.495 24.7805H118.692C118.692 24.3515 118.634 23.9803 118.519 23.6668C118.42 23.3369 118.263 23.0647 118.049 22.8502C117.851 22.6357 117.603 22.479 117.306 22.38C117.026 22.2645 116.696 22.2067 116.316 22.2067C115.722 22.2067 115.227 22.3057 114.831 22.5037C114.435 22.7017 114.13 22.9904 113.916 23.3699C113.701 23.7493 113.561 24.2195 113.495 24.7805ZM128.693 33.0461C128.149 33.0461 127.613 32.9884 127.085 32.8729C126.573 32.7739 126.103 32.5924 125.674 32.3285C125.262 32.048 124.932 31.6685 124.684 31.1901C124.437 30.7116 124.313 30.1094 124.313 29.3835C124.313 28.4431 124.511 27.6759 124.907 27.082C125.303 26.4881 125.872 26.0261 126.615 25.6961C127.373 25.3497 128.281 25.1104 129.337 24.9785C130.409 24.8465 131.605 24.7805 132.925 24.7805V23.9638C132.925 23.5844 132.851 23.2709 132.702 23.0234C132.554 22.7594 132.331 22.5615 132.034 22.4295C131.754 22.281 131.374 22.2067 130.896 22.2067C130.467 22.2067 130.087 22.2562 129.757 22.3552C129.444 22.4542 129.205 22.6027 129.04 22.8007C128.875 22.9822 128.792 23.2049 128.792 23.4689V23.6916H124.833C124.816 23.6091 124.808 23.5431 124.808 23.4936C124.808 23.4276 124.808 23.3451 124.808 23.2461C124.808 22.4707 125.047 21.7943 125.526 21.2168C126.021 20.6394 126.722 20.194 127.629 19.8805C128.537 19.567 129.634 19.4103 130.921 19.4103C132.125 19.4103 133.173 19.5588 134.064 19.8557C134.971 20.1527 135.68 20.6064 136.192 21.2168C136.72 21.8273 136.984 22.6275 136.984 23.6174V29.1855C136.984 29.466 137.058 29.6887 137.206 29.8537C137.371 30.0187 137.569 30.1012 137.8 30.1012H138.642V32.6007C138.46 32.6832 138.172 32.7739 137.776 32.8729C137.396 32.9884 136.934 33.0461 136.39 33.0461C135.829 33.0461 135.334 32.9719 134.905 32.8234C134.492 32.6914 134.146 32.5017 133.866 32.2542C133.602 31.9902 133.42 31.685 133.321 31.3386H133.148C132.834 31.6685 132.463 31.9655 132.034 32.2295C131.622 32.4934 131.135 32.6914 130.574 32.8234C130.03 32.9719 129.403 33.0461 128.693 33.0461ZM130.203 30.2497C130.599 30.2497 130.962 30.1919 131.292 30.0764C131.622 29.961 131.902 29.8042 132.133 29.6062C132.381 29.3918 132.57 29.136 132.702 28.8391C132.851 28.5421 132.925 28.2204 132.925 27.8739V27.0078C131.985 27.0078 131.176 27.0737 130.5 27.2057C129.823 27.3377 129.304 27.544 128.941 27.8244C128.578 28.1049 128.396 28.4596 128.396 28.8886C128.396 29.202 128.471 29.466 128.619 29.6805C128.784 29.8785 128.999 30.0269 129.262 30.1259C129.526 30.2084 129.84 30.2497 130.203 30.2497ZM145.65 33.0461C144.792 33.0461 143.984 32.9554 143.225 32.7739C142.483 32.5924 141.823 32.3285 141.245 31.982C140.684 31.6355 140.239 31.2066 139.909 30.6951C139.595 30.1837 139.439 29.5897 139.439 28.9133C139.439 28.8473 139.439 28.7896 139.439 28.7401C139.439 28.6741 139.447 28.6163 139.463 28.5668H143.299C143.299 28.5998 143.299 28.6411 143.299 28.6906C143.299 28.7236 143.299 28.7566 143.299 28.7896C143.316 29.1525 143.431 29.4578 143.646 29.7052C143.877 29.9362 144.174 30.1094 144.537 30.2249C144.9 30.3239 145.296 30.3734 145.725 30.3734C146.038 30.3734 146.368 30.3404 146.714 30.2744C147.077 30.2084 147.383 30.0929 147.63 29.928C147.878 29.763 148.001 29.5238 148.001 29.2103C148.001 28.8638 147.845 28.5998 147.531 28.4184C147.234 28.2369 146.83 28.0884 146.318 27.9729C145.824 27.8409 145.287 27.7172 144.71 27.6017C144.132 27.4697 143.547 27.3212 142.953 27.1562C142.375 26.9913 141.839 26.7685 141.344 26.4881C140.866 26.1911 140.478 25.8116 140.181 25.3497C139.884 24.8877 139.736 24.302 139.736 23.5926C139.736 22.8337 139.892 22.1902 140.206 21.6623C140.536 21.1179 140.981 20.6807 141.542 20.3507C142.103 20.0207 142.747 19.7815 143.472 19.633C144.215 19.4845 144.999 19.4103 145.824 19.4103C146.582 19.4103 147.3 19.4845 147.977 19.633C148.669 19.7815 149.288 20.0125 149.833 20.3259C150.394 20.6229 150.831 21.0106 151.144 21.4891C151.458 21.951 151.614 22.4955 151.614 23.1224C151.614 23.2049 151.606 23.2956 151.59 23.3946C151.59 23.4771 151.59 23.5349 151.59 23.5679H147.779V23.3699C147.779 23.0894 147.688 22.8584 147.506 22.6769C147.325 22.4955 147.077 22.3552 146.764 22.2562C146.45 22.1408 146.104 22.083 145.725 22.083C145.477 22.083 145.23 22.1078 144.982 22.1573C144.751 22.1902 144.537 22.248 144.339 22.3305C144.141 22.3965 143.976 22.4955 143.844 22.6275C143.728 22.7594 143.67 22.9244 143.67 23.1224C143.67 23.3699 143.778 23.5761 143.992 23.7411C144.207 23.8896 144.495 24.0133 144.858 24.1123C145.238 24.2113 145.65 24.3185 146.096 24.434C146.706 24.566 147.35 24.7062 148.026 24.8547C148.702 24.9867 149.338 25.1847 149.932 25.4487C150.542 25.6961 151.029 26.0756 151.392 26.587C151.771 27.082 151.961 27.7667 151.961 28.6411C151.961 29.466 151.796 30.1672 151.466 30.7446C151.136 31.3056 150.682 31.7593 150.105 32.1057C149.527 32.4357 148.859 32.6749 148.1 32.8234C147.341 32.9719 146.525 33.0461 145.65 33.0461ZM160.526 33.0461C159.041 33.0461 157.779 32.8069 156.74 32.3285C155.7 31.8335 154.9 31.0828 154.339 30.0764C153.795 29.07 153.522 27.7832 153.522 26.2158C153.522 24.6815 153.795 23.4111 154.339 22.4047C154.884 21.3983 155.667 20.6477 156.69 20.1527C157.713 19.6578 158.942 19.4103 160.378 19.4103C161.796 19.4103 162.992 19.6495 163.966 20.128C164.956 20.6064 165.706 21.3406 166.218 22.3305C166.729 23.3204 166.985 24.599 166.985 26.1663V27.0325H157.631C157.631 27.7254 157.73 28.3111 157.927 28.7896C158.125 29.268 158.431 29.631 158.843 29.8785C159.256 30.1259 159.808 30.2497 160.501 30.2497C160.914 30.2497 161.277 30.2002 161.59 30.1012C161.904 30.0022 162.168 29.862 162.382 29.6805C162.597 29.4825 162.762 29.2515 162.877 28.9876C162.992 28.7236 163.05 28.4266 163.05 28.0966H166.985C166.985 28.8886 166.837 29.598 166.54 30.2249C166.259 30.8354 165.838 31.3551 165.277 31.784C164.717 32.1965 164.032 32.5099 163.223 32.7244C162.432 32.9389 161.532 33.0461 160.526 33.0461ZM157.655 24.7805H162.852C162.852 24.3515 162.794 23.9803 162.679 23.6668C162.58 23.3369 162.423 23.0647 162.209 22.8502C162.011 22.6357 161.763 22.479 161.466 22.38C161.186 22.2645 160.856 22.2067 160.476 22.2067C159.883 22.2067 159.388 22.3057 158.992 22.5037C158.596 22.7017 158.29 22.9904 158.076 23.3699C157.862 23.7493 157.721 24.2195 157.655 24.7805Z" fill="#712FFF"/>
</svg>
